<?xml version="1.0" encoding="UTF-8" standalone="no"?>
<!DOCTYPE svg PUBLIC "-//W3C//DTD SVG 1.1//EN" "http://www.w3.org/Graphics/SVG/1.1/DTD/svg11.dtd">
<svg xmlns="http://www.w3.org/2000/svg" version="1.1" viewBox="0 0 600 200">
<g stroke-width="2.00" fill="none" stroke-linecap="butt">
<path stroke="#a69eae" vector-effect="non-scaling-stroke" d="
  M 37.42 99.66
  Q 32.28 105.28 37.82 110.45
  A 1.31 0.96 28.3 0 1 38.23 111.31
  Q 38.07 118.32 38.73 125.31
  C 39.34 131.80 43.25 141.16 50.13 143.22
  A 1.31 1.26 81.9 0 1 50.86 143.79
  Q 51.74 145.25 52.40 145.56
  Q 69.38 153.46 82.72 141.76
  C 92.27 133.38 91.03 123.76 91.31 111.63
  A 1.32 1.27 69.9 0 1 91.72 110.70
  Q 97.45 105.38 92.27 99.51
  A 1.68 1.56 -56.1 0 1 92.01 97.86
  C 96.81 85.63 94.34 72.74 81.48 67.01
  C 72.85 63.15 64.22 64.05 56.54 62.92
  Q 48.97 61.82 46.14 55.20
  A 0.91 0.90 61.6 0 0 44.81 54.80
  C 31.42 63.69 28.98 86.02 37.47 98.83
  A 0.69 0.66 49.8 0 1 37.42 99.66"
/>
<path stroke="#a69eae" vector-effect="non-scaling-stroke" d="
  M 146.86 125.75
  C 139.21 124.15 145.13 116.79 138.25 116.75
  Q 130.75 116.71 123.25 116.69
  Q 119.29 116.69 119.30 120.76
  C 119.34 155.09 175.38 154.08 175.34 122.26
  C 175.33 109.25 165.57 103.13 154.66 97.87
  Q 145.50 93.45 144.09 91.95
  C 137.52 84.99 152.18 81.99 152.15 91.51
  Q 152.14 94.71 155.35 94.73
  Q 163.12 94.77 170.75 94.95
  Q 175.00 95.05 175.00 91.00
  C 174.96 54.42 113.53 58.20 119.92 93.18
  C 122.62 107.94 137.98 113.40 149.42 119.39
  C 152.02 120.76 154.06 124.12 150.11 125.53
  Q 148.52 126.10 146.86 125.75"
/>
<path stroke="#a69eae" vector-effect="non-scaling-stroke" d="
  M 201.75 94.75
  L 201.76 69.00
  Q 201.76 66.00 198.75 66.00
  L 181.50 66.00
  Q 178.50 66.00 178.50 69.00
  L 178.51 142.50
  Q 178.51 145.26 181.25 145.26
  L 199.50 145.25
  Q 201.72 145.25 201.73 142.94
  L 201.74 116.00
  A 0.51 0.50 -0.0 0 1 202.25 115.50
  L 211.00 115.50
  A 0.49 0.49 -89.4 0 1 211.49 116.00
  L 211.48 142.51
  Q 211.48 145.24 214.26 145.24
  L 232.00 145.26
  Q 234.50 145.26 234.50 142.75
  L 234.50 69.00
  Q 234.50 66.05 231.49 66.05
  L 214.31 66.07
  Q 211.54 66.07 211.53 68.81
  L 211.51 94.75
  A 0.51 0.50 -0.0 0 1 211.00 95.25
  L 202.25 95.25
  A 0.50 0.50 0.0 0 1 201.75 94.75"
/>
<path stroke="#a69eae" vector-effect="non-scaling-stroke" d="
  M 239.69 127.98
  C 246.95 152.56 285.97 151.88 293.29 128.27
  Q 294.81 123.37 294.77 111.08
  Q 294.71 89.91 294.76 68.74
  Q 294.76 65.99 292.01 65.99
  L 274.75 66.00
  Q 271.50 66.00 271.50 69.23
  Q 271.52 94.24 271.48 119.22
  C 271.47 128.21 261.75 128.46 261.75 118.46
  Q 261.76 94.53 261.73 70.61
  C 261.73 67.97 261.21 66.07 258.25 66.04
  Q 249.75 65.96 241.31 66.02
  Q 238.55 66.04 238.54 68.80
  Q 238.43 91.54 238.54 114.25
  Q 238.59 124.24 239.69 127.98"
/>
<path stroke="#a69eae" vector-effect="non-scaling-stroke" d="
  M 299.18 67.70
  Q 298.75 68.59 298.75 69.50
  L 298.76 142.25
  Q 298.76 145.22 301.73 145.24
  Q 316.21 145.31 330.70 145.18
  C 337.92 145.11 346.46 141.70 350.92 135.86
  C 357.60 127.10 356.72 111.96 347.40 104.81
  A 0.44 0.44 41.8 0 1 347.36 104.15
  C 358.49 93.42 355.36 73.51 340.24 68.31
  C 329.42 64.58 315.53 65.86 301.32 66.32
  Q 299.82 66.37 299.18 67.70"
/>
<path stroke="#a69eae" vector-effect="non-scaling-stroke" d="
  M 382.25 94.75
  L 382.26 69.00
  Q 382.26 66.01 379.24 66.01
  L 362.00 66.02
  Q 359.00 66.02 359.01 69.00
  L 359.01 142.44
  Q 359.01 145.28 361.74 145.28
  L 379.76 145.26
  Q 382.22 145.26 382.22 142.69
  L 382.24 116.00
  A 0.51 0.50 -0.0 0 1 382.75 115.50
  L 391.50 115.50
  A 0.50 0.50 0.0 0 1 392.00 116.00
  L 392.00 143.00
  Q 392.00 145.24 394.26 145.24
  L 412.51 145.27
  Q 415.00 145.27 415.00 142.75
  L 415.00 69.24
  Q 415.00 66.04 411.74 66.04
  L 394.57 66.05
  Q 391.99 66.05 391.99 68.74
  L 392.00 94.75
  A 0.50 0.50 0.0 0 1 391.50 95.25
  L 382.75 95.25
  A 0.50 0.50 0.0 0 1 382.25 94.75"
/>
<path stroke="#a69eae" vector-effect="non-scaling-stroke" d="
  M 437.90 67.51
  Q 437.03 69.16 436.53 71.06
  Q 427.30 106.27 417.92 141.44
  Q 416.90 145.26 420.74 145.26
  L 438.74 145.24
  Q 440.99 145.24 441.43 143.19
  L 443.07 135.52
  A 0.70 0.65 5.5 0 1 443.75 135.00
  L 458.00 135.00
  A 0.85 0.62 -4.4 0 1 458.80 135.49
  L 460.50 143.00
  Q 460.99 145.21 463.19 145.22
  Q 471.91 145.27 480.76 145.25
  C 483.69 145.25 485.12 144.45 484.27 141.24
  Q 474.80 105.24 465.43 69.20
  Q 464.61 66.05 461.50 66.02
  Q 450.90 65.95 440.30 66.05
  A 2.73 2.72 13.6 0 0 437.90 67.51"
/>
<path stroke="#a69eae" vector-effect="non-scaling-stroke" d="
  M 530.25 104.50
  L 530.24 142.51
  Q 530.24 145.24 533.01 145.24
  L 551.00 145.26
  Q 553.26 145.26 553.26 143.00
  L 553.26 68.99
  Q 553.26 66.08 550.42 66.08
  L 533.18 66.09
  Q 531.32 66.09 530.49 67.51
  L 520.78 84.27
  A 0.47 0.43 46.6 0 1 520.01 84.21
  L 510.47 68.03
  Q 509.28 66.02 506.75 66.02
  L 490.01 66.02
  Q 487.25 66.02 487.25 68.75
  L 487.26 142.94
  Q 487.26 145.25 489.50 145.25
  L 507.51 145.28
  Q 510.47 145.28 510.47 142.18
  L 510.49 104.75
  Q 510.49 103.97 510.90 104.62
  L 515.24 111.51
  Q 516.48 113.48 518.36 113.85
  C 525.45 115.22 526.45 108.92 529.88 104.46
  Q 530.25 103.97 530.25 104.50"
/>
<path stroke="#a69eae" vector-effect="non-scaling-stroke" d="
  M 580.44 134.55
  A 11.63 11.63 0.0 0 0 568.81 122.92
  A 11.63 11.63 0.0 0 0 557.18 134.55
  A 11.63 11.63 0.0 0 0 568.81 146.18
  A 11.63 11.63 0.0 0 0 580.44 134.55"
/>
<path stroke="#8a655b" vector-effect="non-scaling-stroke" d="
  M 34.29 80.75
  Q 33.92 89.95 39.06 97.49
  A 0.99 0.38 59.3 0 0 39.75 98.04
  L 42.50 97.73
  A 0.83 0.69 -89.5 0 0 43.13 96.99
  Q 44.19 85.87 53.53 80.02
  Q 54.91 79.16 56.45 79.78
  L 63.80 82.73
  Q 65.25 83.31 66.74 82.52
  C 69.95 80.81 73.94 77.82 77.50 80.79"
/>
<path stroke="#825f57" vector-effect="non-scaling-stroke" d="
  M 77.50 80.79
  Q 85.66 86.85 86.73 97.02
  A 0.82 0.51 86.3 0 0 87.24 97.74
  L 89.55 97.89
  A 0.92 0.47 -73.0 0 0 90.17 97.25
  C 94.10 86.91 93.17 75.89 82.75 70.04"
/>
<path stroke="#8a655b" vector-effect="non-scaling-stroke" d="
  M 82.75 70.04
  Q 76.20 66.04 68.50 65.96"
/>
<path stroke="#8f6e69" vector-effect="non-scaling-stroke" d="
  M 68.50 65.96
  C 60.30 65.64 50.49 65.86 44.91 57.39
  A 0.40 0.40 50.2 0 0 44.28 57.33
  Q 34.94 67.00 34.29 80.75"
/>
<path stroke="#cc9767" vector-effect="non-scaling-stroke" d="
  M 68.50 65.96
  C 62.42 67.49 52.55 68.89 46.93 65.48
  A 1.63 1.63 42.7 0 0 45.12 65.55
  Q 38.03 70.72 35.95 79.19
  C 35.71 80.15 35.19 80.54 34.29 80.75"
/>
<path stroke="#bf8755" vector-effect="non-scaling-stroke" d="
  M 82.75 70.04
  C 82.43 71.99 83.59 73.15 83.51 74.74
  C 83.33 78.16 80.53 79.41 77.50 80.79"
/>
<path stroke="#a68b82" vector-effect="non-scaling-stroke" d="
  M 66.00 85.22
  L 58.85 83.10"
/>
<path stroke="#927a76" vector-effect="non-scaling-stroke" d="
  M 58.85 83.10
  C 52.57 78.92 47.02 88.83 45.76 93.66"
/>
<path stroke="#a68b82" vector-effect="non-scaling-stroke" d="
  M 45.76 93.66
  Q 44.86 105.83 45.26 118.10
  A 0.75 0.74 -10.5 0 0 46.25 118.77
  C 51.02 117.11 54.66 114.32 59.97 114.20
  A 0.56 0.42 -1.1 0 0 60.52 113.77
  Q 60.49 112.58 61.46 112.21
  A 0.53 0.43 68.0 0 1 62.05 112.54
  Q 64.72 118.75 67.65 112.79
  A 0.86 0.38 -66.0 0 1 68.27 112.23
  Q 69.47 112.47 69.24 113.75
  A 0.54 0.38 4.4 0 0 69.78 114.20
  C 74.86 114.37 78.65 116.93 83.06 118.69
  A 1.23 1.22 11.2 0 0 84.74 117.57
  C 84.84 106.58 87.15 92.50 78.50 84.46"
/>
<path stroke="#927a76" vector-effect="non-scaling-stroke" d="
  M 78.50 84.46
  C 75.07 79.25 70.75 82.55 66.00 85.22"
/>
<path stroke="#ebc99b" vector-effect="non-scaling-stroke" d="
  M 78.50 84.46
  L 66.00 85.22"
/>
<path stroke="#ebc99b" vector-effect="non-scaling-stroke" d="
  M 58.85 83.10
  Q 51.16 86.90 45.76 93.66"
/>
<path stroke="#a68b82" vector-effect="non-scaling-stroke" d="
  M 40.02 109.43
  Q 43.04 111.35 43.03 107.79
  L 43.01 100.51
  A 0.56 0.51 1.3 0 0 42.48 100.01
  C 36.74 99.71 35.13 106.33 40.02 109.43"
/>
<path stroke="#a0877f" vector-effect="non-scaling-stroke" d="
  M 87.38 109.68
  C 93.63 110.84 95.07 99.66 87.35 100.10
  A 0.65 0.63 88.1 0 0 86.76 100.75
  L 86.86 109.00
  A 0.70 0.64 -85.1 0 0 87.38 109.68"
/>
<path stroke="#7e5c55" vector-effect="non-scaling-stroke" d="
  M 44.54 135.75
  C 56.77 153.31 81.58 148.95 88.38 129.01"
/>
<path stroke="#8a655b" vector-effect="non-scaling-stroke" d="
  M 88.38 129.01
  C 89.78 123.54 89.09 118.24 89.41 112.80
  A 0.76 0.44 -87.3 0 0 88.99 112.00
  L 87.25 112.00
  A 0.73 0.47 85.5 0 0 86.82 112.80
  Q 87.38 117.93 85.34 122.54"
/>
<path stroke="#765652" vector-effect="non-scaling-stroke" d="
  M 85.34 122.54
  Q 80.38 127.23 73.25 126.75
  Q 72.36 126.69 71.75 127.71"
/>
<path stroke="#8a655b" vector-effect="non-scaling-stroke" d="
  M 71.75 127.71
  Q 65.93 131.03 59.75 128.54"
/>
<path stroke="#8f6e69" vector-effect="non-scaling-stroke" d="
  M 59.75 128.54
  L 58.50 127.96"
/>
<path stroke="#7e5c55" vector-effect="non-scaling-stroke" d="
  M 58.50 127.96
  L 57.06 126.89
  A 1.49 1.04 53.4 0 0 56.19 126.60
  Q 52.31 126.82 48.54 125.75"
/>
<path stroke="#8f6e69" vector-effect="non-scaling-stroke" d="
  M 48.54 125.75
  L 48.00 125.46"
/>
<path stroke="#8a655b" vector-effect="non-scaling-stroke" d="
  M 48.00 125.46
  C 43.06 122.09 42.72 118.96 43.03 112.96
  A 0.88 0.38 -87.1 0 0 42.69 112.05
  L 40.75 112.00
  A 1.01 0.38 88.7 0 0 40.39 113.04
  C 40.63 121.26 39.46 127.97 44.54 135.75"
/>
<path stroke="#cc9767" vector-effect="non-scaling-stroke" d="
  M 48.00 125.46
  Q 46.21 125.50 46.50 127.21"
/>
<path stroke="#8a655b" vector-effect="non-scaling-stroke" d="
  M 46.50 127.21
  Q 44.44 129.30 46.71 131.00"
/>
<path stroke="#cc9767" vector-effect="non-scaling-stroke" d="
  M 46.71 131.00
  Q 47.33 134.21 49.69 136.36
  A 1.41 1.31 -21.1 0 0 50.56 136.71
  L 51.71 136.75"
/>
<path stroke="#8a655b" vector-effect="non-scaling-stroke" d="
  M 51.71 136.75
  Q 52.07 142.54 53.04 137.75"
/>
<path stroke="#cc9767" vector-effect="non-scaling-stroke" d="
  M 53.04 137.75
  L 54.25 137.46"
/>
<path stroke="#8a655b" vector-effect="non-scaling-stroke" d="
  M 54.25 137.46
  Q 55.93 138.73 56.04 136.50"
/>
<path stroke="#cc9767" vector-effect="non-scaling-stroke" d="
  M 56.04 136.50
  C 60.11 135.03 59.52 131.97 59.75 128.54"
/>
<path stroke="#b37f50" vector-effect="non-scaling-stroke" d="
  M 71.75 127.71
  Q 78.22 130.30 83.94 125.94
  Q 85.04 125.09 84.79 126.75"
/>
<path stroke="#8a655b" vector-effect="non-scaling-stroke" d="
  M 84.79 126.75
  Q 84.47 127.82 85.03 128.39
  A 0.42 0.39 -55.4 0 0 85.68 128.24
  Q 86.60 126.36 85.50 124.46"
/>
<path stroke="#b37f50" vector-effect="non-scaling-stroke" d="
  M 85.50 124.46
  L 85.34 122.54"
/>
<path stroke="#bb8453" vector-effect="non-scaling-stroke" d="
  M 88.38 129.01
  Q 85.89 131.34 83.99 134.00
  C 79.16 140.81 70.65 143.81 62.50 143.79"
/>
<path stroke="#8a655b" vector-effect="non-scaling-stroke" d="
  M 62.50 143.79
  C 62.15 143.04 62.58 140.43 61.64 140.74
  A 0.83 0.81 -7.8 0 0 61.09 141.45
  L 60.96 143.25"
/>
<path stroke="#bb8453" vector-effect="non-scaling-stroke" d="
  M 60.96 143.25
  Q 52.27 142.60 46.41 136.32
  C 45.81 135.67 45.39 135.60 44.54 135.75"
/>
<path stroke="#7e5c55" vector-effect="non-scaling-stroke" d="
  M 60.96 143.25
  Q 61.29 145.57 62.50 143.79"
/>
<path stroke="#bf8e61" vector-effect="non-scaling-stroke" d="
  M 48.54 125.75
  C 48.69 127.95 55.61 128.67 57.19 128.61
  A 1.15 0.20 -39.7 0 0 57.95 128.17
  Q 58.15 128.02 58.50 127.96"
/>
<path stroke="#8f6e69" vector-effect="non-scaling-stroke" d="
  M 56.04 136.50
  C 55.74 131.85 54.25 134.06 54.25 136.16
  Q 54.25 136.81 54.25 137.46"
/>
<path stroke="#8f6e69" vector-effect="non-scaling-stroke" d="
  M 53.04 137.75
  Q 53.11 134.86 51.71 136.75"
/>
<path stroke="#8f6e69" vector-effect="non-scaling-stroke" d="
  M 46.71 131.00
  Q 47.59 129.02 46.50 127.21"
/>
<path stroke="#765652" vector-effect="non-scaling-stroke" d="
  M 85.50 124.46
  Q 84.81 125.45 84.79 126.75"
/>
<path stroke="#8a655b" vector-effect="non-scaling-stroke" d="
  M 48.44 122.61
  C 53.12 126.49 61.36 124.81 63.52 119.02"
/>
<path stroke="#8f6e69" vector-effect="non-scaling-stroke" d="
  M 63.52 119.02
  Q 64.22 118.02 63.03 117.42
  C 57.45 114.60 52.00 118.91 46.73 120.69
  A 0.38 0.37 -26.8 0 0 46.54 121.26
  Q 47.38 122.43 48.44 122.61"
/>
<path stroke="#cc9767" vector-effect="non-scaling-stroke" d="
  M 63.52 119.02
  Q 56.21 121.83 48.44 122.61"
/>
<path stroke="#8a655b" vector-effect="non-scaling-stroke" d="
  M 65.96 118.81
  C 68.95 124.70 76.68 127.01 81.79 122.51"
/>
<path stroke="#8f6e69" vector-effect="non-scaling-stroke" d="
  M 81.79 122.51
  C 85.70 120.40 80.89 120.35 79.66 119.63
  C 75.94 117.44 68.90 114.20 65.96 118.81"
/>
<path stroke="#cc9767" vector-effect="non-scaling-stroke" d="
  M 81.79 122.51
  Q 74.17 119.30 65.96 118.81"
/>
<path stroke="#9e5562" vector-effect="non-scaling-stroke" d="
  M 68.58 125.49
  Q 64.86 125.86 61.22 125.39
  C 60.59 125.30 59.42 125.76 60.55 126.46
  Q 64.26 128.77 68.96 126.72
  Q 70.05 126.25 69.47 125.71
  A 1.27 0.82 -18.8 0 0 68.58 125.49"
/>
<path stroke="#8a655b" vector-effect="non-scaling-stroke" d="
  M 38.69 89.32
  C 38.45 88.32 37.79 82.14 37.06 82.24
  A 0.78 0.58 -89.5 0 0 36.55 82.92
  C 36.45 84.07 36.99 91.61 38.52 90.21
  A 1.01 0.65 67.9 0 0 38.69 89.32"
/>
<path stroke="#8a655b" vector-effect="non-scaling-stroke" d="
  M 38.84 91.39
  Q 38.67 91.96 39.22 92.26
  A 0.49 0.47 -69.8 0 0 39.92 91.92
  Q 40.03 91.44 39.56 91.21
  A 0.56 0.41 22.6 0 0 38.84 91.39"
/>
<path stroke="#a69eae" vector-effect="non-scaling-stroke" d="
  M 142.43 93.81
  C 131.80 84.56 153.75 76.02 154.86 91.38
  A 0.66 0.64 88.1 0 0 155.50 92.00
  L 171.50 92.00
  A 0.66 0.66 -87.6 0 0 172.16 91.39
  C 174.28 65.63 133.99 59.55 123.92 80.49
  C 118.98 90.75 124.08 102.14 133.55 107.95
  Q 139.09 111.34 149.00 116.15
  C 166.08 124.44 141.82 137.07 139.35 120.16
  A 0.76 0.58 85.1 0 0 138.75 119.50
  L 122.75 119.50
  A 0.72 0.66 -86.6 0 0 122.09 120.14
  C 119.19 149.95 172.53 151.93 172.67 122.59
  C 172.76 104.23 151.06 101.32 142.43 93.81"
/>
<path stroke="#a69eae" vector-effect="non-scaling-stroke" d="
  M 201.50 97.93
  Q 199.25 97.94 199.25 95.51
  L 199.25 69.25
  A 0.50 0.50 0.0 0 0 198.75 68.75
  L 181.75 68.75
  A 0.50 0.50 0.0 0 0 181.25 69.25
  L 181.25 142.00
  A 0.75 0.50 90.0 0 0 181.75 142.75
  L 198.75 142.75
  A 0.75 0.50 -90.0 0 0 199.25 142.00
  L 199.25 114.50
  A 1.50 1.50 0.0 0 1 200.75 113.00
  L 212.25 112.99
  A 1.76 1.75 -90.0 0 1 214.00 114.75
  L 214.00 142.25
  A 0.50 0.50 0.0 0 0 214.50 142.75
  L 231.50 142.75
  A 0.50 0.50 0.0 0 0 232.00 142.25
  L 232.00 69.25
  A 0.50 0.50 0.0 0 0 231.50 68.75
  L 214.50 68.75
  A 0.50 0.50 0.0 0 0 214.00 69.25
  L 214.01 95.51
  Q 214.01 97.87 211.55 97.88
  L 201.50 97.93"
/>
<path stroke="#a69eae" vector-effect="non-scaling-stroke" d="
  M 241.12 119.68
  C 241.30 143.07 270.74 151.20 285.50 136.30
  C 292.53 129.21 292.15 121.79 292.21 110.50
  Q 292.32 89.91 292.21 69.31
  A 0.56 0.46 90.0 0 0 291.75 68.75
  L 274.75 68.75
  A 0.51 0.51 -89.8 0 0 274.24 69.26
  Q 274.29 93.10 274.22 116.93
  Q 274.20 121.83 273.43 123.82
  C 270.12 132.28 259.06 128.57 259.04 119.49
  Q 258.98 94.41 258.99 69.29
  A 0.54 0.49 -90.0 0 0 258.50 68.75
  L 241.50 68.75
  A 0.50 0.48 -89.4 0 0 241.02 69.24
  Q 240.92 94.48 241.12 119.68"
/>
<path stroke="#a69eae" vector-effect="non-scaling-stroke" d="
  M 343.87 104.23
  C 346.27 100.44 349.14 100.11 350.36 94.53
  C 354.23 76.81 343.15 68.73 327.12 68.74
  Q 314.48 68.75 301.99 68.76
  A 0.49 0.49 0.1 0 0 301.50 69.25
  L 301.50 142.25
  A 0.53 0.45 -0.0 0 0 302.03 142.70
  Q 315.49 142.86 328.93 142.66
  C 335.71 142.56 347.14 139.34 350.00 132.99
  Q 357.52 116.26 344.00 105.05
  A 0.63 0.62 36.6 0 1 343.87 104.23"
/>
<path stroke="#a69eae" vector-effect="non-scaling-stroke" d="
  M 393.77 97.66
  Q 387.65 98.35 381.48 97.84
  A 1.89 1.85 2.4 0 1 379.75 96.00
  L 379.75 69.25
  A 0.50 0.50 0.0 0 0 379.25 68.75
  L 362.25 68.75
  A 0.50 0.50 0.0 0 0 361.75 69.25
  L 361.75 142.25
  A 0.50 0.50 0.0 0 0 362.25 142.75
  L 379.25 142.75
  A 0.50 0.50 0.0 0 0 379.75 142.25
  L 379.75 114.50
  A 1.50 1.50 0.0 0 1 381.25 113.00
  L 393.18 113.03
  A 1.32 1.22 -0.0 0 1 394.50 114.25
  L 394.50 142.25
  A 0.50 0.50 0.0 0 0 395.00 142.75
  L 412.00 142.75
  A 0.50 0.50 0.0 0 0 412.50 142.25
  L 412.50 69.25
  A 0.50 0.50 0.0 0 0 412.00 68.75
  L 395.00 68.75
  A 0.50 0.50 0.0 0 0 394.50 69.25
  L 394.50 96.50
  A 1.20 0.81 88.0 0 1 393.77 97.66"
/>
<path stroke="#a69eae" vector-effect="non-scaling-stroke" d="
  M 439.90 68.97
  L 420.50 141.95
  A 0.64 0.56 -81.6 0 0 421.01 142.75
  L 438.25 142.75
  A 0.88 0.62 4.2 0 0 439.07 142.26
  L 440.86 133.90
  A 2.03 2.00 -83.9 0 1 442.82 132.29
  L 458.76 132.25
  Q 460.72 132.25 461.22 134.51
  L 462.95 142.26
  A 0.85 0.62 -4.4 0 0 463.75 142.75
  L 481.25 142.75
  A 0.59 0.51 81.3 0 0 481.71 142.01
  L 462.56 69.44
  A 0.90 0.45 77.8 0 0 462.00 68.75
  L 440.25 68.75
  A 0.38 0.29 5.8 0 0 439.90 68.97"
/>
<path stroke="#a69eae" vector-effect="non-scaling-stroke" d="
  M 507.81 101.56
  C 507.82 99.24 509.36 96.39 511.52 100.02
  Q 514.63 105.27 517.75 110.57
  A 1.27 0.29 62.3 0 0 518.43 111.36
  Q 520.35 111.75 522.27 111.30
  A 1.24 0.26 -61.7 0 0 522.93 110.52
  Q 528.28 101.39 529.47 99.70
  Q 531.05 97.45 532.48 99.41
  A 1.45 1.39 -64.1 0 1 532.75 100.25
  L 532.75 142.00
  A 0.75 0.50 90.0 0 0 533.25 142.75
  L 550.25 142.75
  A 0.50 0.50 0.0 0 0 550.75 142.25
  L 550.75 69.25
  A 0.50 0.50 0.0 0 0 550.25 68.75
  L 533.25 68.75
  A 1.18 0.97 -72.1 0 0 532.34 69.33
  L 522.33 86.59
  Q 520.41 89.90 518.44 86.55
  L 508.23 69.26
  A 1.02 0.70 69.6 0 0 507.50 68.75
  L 490.25 68.75
  A 0.50 0.50 0.0 0 0 489.75 69.25
  L 489.75 142.25
  A 0.50 0.50 0.0 0 0 490.25 142.75
  L 507.25 142.75
  A 0.53 0.49 89.4 0 0 507.74 142.21
  Q 507.71 121.86 507.81 101.56"
/>
<path stroke="#a69eae" vector-effect="non-scaling-stroke" d="
  M 319.56 84.93
  L 319.50 96.76
  A 1.76 1.53 3.4 0 0 321.09 98.32
  C 327.68 99.00 336.21 97.44 333.24 88.19
  C 331.57 82.97 324.92 83.37 320.67 83.90
  A 1.27 1.02 -4.2 0 0 319.56 84.93"
/>
<path stroke="#a69eae" vector-effect="non-scaling-stroke" d="
  M 319.49 113.25
  L 319.48 125.52
  Q 319.48 127.70 321.68 127.74
  C 328.94 127.85 336.35 126.99 334.31 117.15
  C 332.99 110.77 326.26 111.27 321.27 111.55
  A 1.89 1.69 -1.8 0 0 319.49 113.25"
/>
<path stroke="#a69eae" vector-effect="non-scaling-stroke" d="
  M 448.94 95.27
  Q 446.43 106.30 444.43 116.47
  Q 443.90 119.16 446.58 119.17
  L 454.97 119.19
  Q 457.99 119.19 457.35 116.22
  C 456.62 112.83 453.38 94.39 451.83 93.12
  C 449.91 91.55 449.27 93.84 448.94 95.27"
/>
<path stroke="#825f57" vector-effect="non-scaling-stroke" d="
  M 89.42 81.41
  C 90.73 81.22 88.22 77.34 87.44 76.59
  Q 87.12 76.29 87.06 76.56
  L 87.02 76.76
  A 0.84 0.10 -76.5 0 0 86.94 77.46
  L 88.68 80.89
  A 0.89 0.59 68.5 0 0 89.42 81.41"
/>
<path stroke="#a68b82" vector-effect="non-scaling-stroke" d="
  M 60.3476 97.5154
  A 3.45 3.45 0.0 0 0 56.3315 94.7448
  L 50.8235 95.7557
  A 3.45 3.45 0.0 0 0 48.0530 99.7719
  L 48.1324 100.2046
  A 3.45 3.45 0.0 0 0 52.1485 102.9752
  L 57.6565 101.9643
  A 3.45 3.45 0.0 0 0 60.4270 97.9481
  L 60.3476 97.5154"
/>
<path stroke="#a68b82" vector-effect="non-scaling-stroke" d="
  M 81.9143 99.9260
  A 3.45 3.45 0.0 0 0 79.2356 95.8481
  L 73.7128 94.7044
  A 3.45 3.45 0.0 0 0 69.6349 97.3831
  L 69.5457 97.8140
  A 3.45 3.45 0.0 0 0 72.2244 101.8919
  L 77.7472 103.0356
  A 3.45 3.45 0.0 0 0 81.8251 100.3569
  L 81.9143 99.9260"
/>
<path stroke="#ffe0b3" vector-effect="non-scaling-stroke" d="
  M 50.29 111.00
  Q 48.16 113.77 51.79 113.98
  Q 55.31 114.18 57.48 111.25"
/>
<path stroke="#a68b82" vector-effect="non-scaling-stroke" d="
  M 57.48 111.25
  Q 58.71 110.64 58.31 109.17
  C 56.70 103.36 48.37 105.38 50.29 111.00"
/>
<path stroke="#a6918e" vector-effect="non-scaling-stroke" d="
  M 57.48 111.25
  Q 56.32 110.56 56.58 109.97
  Q 54.91 105.96 52.06 108.90
  A 1.28 0.90 73.9 0 0 51.77 109.75
  Q 51.80 111.13 50.29 111.00"
/>
<path stroke="#ffe0b3" vector-effect="non-scaling-stroke" d="
  M 72.71 111.00
  C 75.34 114.60 83.38 114.58 79.75 110.96"
/>
<path stroke="#a68b82" vector-effect="non-scaling-stroke" d="
  M 79.75 110.96
  Q 80.67 108.00 78.58 106.63
  C 72.83 102.87 69.11 111.10 72.71 111.00"
/>
<path stroke="#a6918e" vector-effect="non-scaling-stroke" d="
  M 79.75 110.96
  C 76.90 111.74 78.80 106.36 74.51 108.10
  A 1.33 1.30 1.6 0 0 73.82 108.74
  L 72.71 111.00"
/>
<path stroke="#a69eae" vector-effect="non-scaling-stroke" d="
  M 322.49 95.56
  C 332.93 98.43 335.27 84.78 322.60 86.33
  A 0.68 0.67 -3.3 0 0 322.00 87.00
  L 322.00 95.00
  A 0.67 0.55 9.5 0 0 322.49 95.56"
/>
<path stroke="#a69eae" vector-effect="non-scaling-stroke" d="
  M 450.28 101.59
  Q 448.62 108.60 447.31 115.80
  A 0.60 0.47 -83.6 0 0 447.75 116.50
  L 454.00 116.50
  A 0.63 0.56 83.8 0 0 454.54 115.74
  L 451.07 99.49
  Q 450.92 98.77 450.63 99.41
  C 450.41 99.90 450.36 101.28 450.28 101.59"
/>
<path stroke="#8f6e69" vector-effect="non-scaling-stroke" d="
  M 57.06 96.94
  Q 54.57 96.97 52.08 97.53
  C 49.85 98.03 48.63 100.12 51.84 100.96
  C 52.23 101.07 60.95 100.08 57.95 97.25
  A 1.35 1.03 -18.0 0 0 57.06 96.94"
/>
<path stroke="#8f6e69" vector-effect="non-scaling-stroke" d="
  M 79.9543 99.4691
  A 1.54 1.54 0.0 0 0 78.6958 97.6916
  L 73.3335 96.7750
  A 1.54 1.54 0.0 0 0 71.5561 98.0335
  L 71.5257 98.2109
  A 1.54 1.54 0.0 0 0 72.7842 99.9884
  L 78.1465 100.9050
  A 1.54 1.54 0.0 0 0 79.9239 99.6465
  L 79.9543 99.4691"
/>
<path stroke="#a68b82" vector-effect="non-scaling-stroke" d="
  M 40.09 104.15
  Q 41.29 104.39 40.19 104.88
  Q 38.22 105.77 39.17 107.59
  Q 39.41 108.04 39.67 107.56
  L 40.15 106.69
  A 0.36 0.34 38.6 0 1 40.72 106.64
  C 42.81 108.97 42.46 103.50 40.19 102.59
  A 0.80 0.54 21.1 0 0 39.24 102.81
  Q 38.84 103.90 40.09 104.15"
/>
<path stroke="#a0877f" vector-effect="non-scaling-stroke" d="
  M 89.85 106.70
  Q 89.96 107.35 90.43 107.82
  A 0.47 0.28 -61.0 0 0 90.98 107.50
  Q 91.80 105.48 89.83 104.91
  Q 89.19 104.73 89.85 104.27
  Q 92.25 102.62 89.56 102.67
  A 1.08 0.84 13.8 0 0 88.78 103.02
  Q 87.26 105.02 88.11 107.34
  Q 88.30 107.84 88.61 107.29
  Q 88.87 106.81 89.25 106.54
  A 0.40 0.33 -24.8 0 1 89.85 106.70"
/>
<path stroke="#a69eae" vector-effect="non-scaling-stroke" d="
  M 322.51 124.80
  C 329.39 126.71 336.14 120.82 329.87 114.82
  A 1.41 1.34 67.2 0 0 329.01 114.44
  L 322.50 114.03
  A 0.47 0.47 1.7 0 0 322.00 114.50
  L 322.00 124.25
  A 0.69 0.53 9.6 0 0 322.51 124.80"
/>
<path stroke="#8a655b" vector-effect="non-scaling-stroke" d="
  M 68.04 135.44
  C 69.64 137.02 69.23 132.94 69.10 132.49
  A 0.64 0.44 73.7 0 0 68.50 132.00
  Q 68.23 132.08 68.05 132.31
  Q 66.65 134.07 68.04 135.44"
/>
<path stroke="#8a655b" vector-effect="non-scaling-stroke" d="
  M 81.78 132.24
  Q 81.51 131.85 80.99 132.00
  A 0.82 0.28 88.2 0 0 80.76 132.75
  L 80.75 135.24
  A 0.60 0.48 87.9 0 0 81.27 135.85
  Q 81.91 135.79 82.06 134.24
  A 3.05 1.20 -76.5 0 0 81.78 132.24"
/>
<path stroke="#8a655b" vector-effect="non-scaling-stroke" d="
  M 73.53 140.18
  Q 74.92 138.47 73.42 136.90
  A 0.33 0.33 -57.2 0 0 72.87 137.02
  Q 72.28 138.63 72.95 140.11
  A 0.35 0.34 -37.9 0 0 73.53 140.18"
/>
<path stroke="#a69eae" vector-effect="non-scaling-stroke" d="
  M 577.69 134.56
  A 8.89 8.89 0.0 0 0 568.80 125.67
  A 8.89 8.89 0.0 0 0 559.91 134.56
  A 8.89 8.89 0.0 0 0 568.80 143.45
  A 8.89 8.89 0.0 0 0 577.69 134.56"
/>
</g>
<path fill="#ffffff" d="
  M 0.00 0.00
  L 600.00 0.00
  L 600.00 200.00
  L 0.00 200.00
  L 0.00 0.00
  Z
  M 37.42 99.66
  Q 32.28 105.28 37.82 110.45
  A 1.31 0.96 28.3 0 1 38.23 111.31
  Q 38.07 118.32 38.73 125.31
  C 39.34 131.80 43.25 141.16 50.13 143.22
  A 1.31 1.26 81.9 0 1 50.86 143.79
  Q 51.74 145.25 52.40 145.56
  Q 69.38 153.46 82.72 141.76
  C 92.27 133.38 91.03 123.76 91.31 111.63
  A 1.32 1.27 69.9 0 1 91.72 110.70
  Q 97.45 105.38 92.27 99.51
  A 1.68 1.56 -56.1 0 1 92.01 97.86
  C 96.81 85.63 94.34 72.74 81.48 67.01
  C 72.85 63.15 64.22 64.05 56.54 62.92
  Q 48.97 61.82 46.14 55.20
  A 0.91 0.90 61.6 0 0 44.81 54.80
  C 31.42 63.69 28.98 86.02 37.47 98.83
  A 0.69 0.66 49.8 0 1 37.42 99.66
  Z
  M 146.86 125.75
  C 139.21 124.15 145.13 116.79 138.25 116.75
  Q 130.75 116.71 123.25 116.69
  Q 119.29 116.69 119.30 120.76
  C 119.34 155.09 175.38 154.08 175.34 122.26
  C 175.33 109.25 165.57 103.13 154.66 97.87
  Q 145.50 93.45 144.09 91.95
  C 137.52 84.99 152.18 81.99 152.15 91.51
  Q 152.14 94.71 155.35 94.73
  Q 163.12 94.77 170.75 94.95
  Q 175.00 95.05 175.00 91.00
  C 174.96 54.42 113.53 58.20 119.92 93.18
  C 122.62 107.94 137.98 113.40 149.42 119.39
  C 152.02 120.76 154.06 124.12 150.11 125.53
  Q 148.52 126.10 146.86 125.75
  Z
  M 201.75 94.75
  L 201.76 69.00
  Q 201.76 66.00 198.75 66.00
  L 181.50 66.00
  Q 178.50 66.00 178.50 69.00
  L 178.51 142.50
  Q 178.51 145.26 181.25 145.26
  L 199.50 145.25
  Q 201.72 145.25 201.73 142.94
  L 201.74 116.00
  A 0.51 0.50 -0.0 0 1 202.25 115.50
  L 211.00 115.50
  A 0.49 0.49 -89.4 0 1 211.49 116.00
  L 211.48 142.51
  Q 211.48 145.24 214.26 145.24
  L 232.00 145.26
  Q 234.50 145.26 234.50 142.75
  L 234.50 69.00
  Q 234.50 66.05 231.49 66.05
  L 214.31 66.07
  Q 211.54 66.07 211.53 68.81
  L 211.51 94.75
  A 0.51 0.50 -0.0 0 1 211.00 95.25
  L 202.25 95.25
  A 0.50 0.50 0.0 0 1 201.75 94.75
  Z
  M 239.69 127.98
  C 246.95 152.56 285.97 151.88 293.29 128.27
  Q 294.81 123.37 294.77 111.08
  Q 294.71 89.91 294.76 68.74
  Q 294.76 65.99 292.01 65.99
  L 274.75 66.00
  Q 271.50 66.00 271.50 69.23
  Q 271.52 94.24 271.48 119.22
  C 271.47 128.21 261.75 128.46 261.75 118.46
  Q 261.76 94.53 261.73 70.61
  C 261.73 67.97 261.21 66.07 258.25 66.04
  Q 249.75 65.96 241.31 66.02
  Q 238.55 66.04 238.54 68.80
  Q 238.43 91.54 238.54 114.25
  Q 238.59 124.24 239.69 127.98
  Z
  M 299.18 67.70
  Q 298.75 68.59 298.75 69.50
  L 298.76 142.25
  Q 298.76 145.22 301.73 145.24
  Q 316.21 145.31 330.70 145.18
  C 337.92 145.11 346.46 141.70 350.92 135.86
  C 357.60 127.10 356.72 111.96 347.40 104.81
  A 0.44 0.44 41.8 0 1 347.36 104.15
  C 358.49 93.42 355.36 73.51 340.24 68.31
  C 329.42 64.58 315.53 65.86 301.32 66.32
  Q 299.82 66.37 299.18 67.70
  Z
  M 382.25 94.75
  L 382.26 69.00
  Q 382.26 66.01 379.24 66.01
  L 362.00 66.02
  Q 359.00 66.02 359.01 69.00
  L 359.01 142.44
  Q 359.01 145.28 361.74 145.28
  L 379.76 145.26
  Q 382.22 145.26 382.22 142.69
  L 382.24 116.00
  A 0.51 0.50 -0.0 0 1 382.75 115.50
  L 391.50 115.50
  A 0.50 0.50 0.0 0 1 392.00 116.00
  L 392.00 143.00
  Q 392.00 145.24 394.26 145.24
  L 412.51 145.27
  Q 415.00 145.27 415.00 142.75
  L 415.00 69.24
  Q 415.00 66.04 411.74 66.04
  L 394.57 66.05
  Q 391.99 66.05 391.99 68.74
  L 392.00 94.75
  A 0.50 0.50 0.0 0 1 391.50 95.25
  L 382.75 95.25
  A 0.50 0.50 0.0 0 1 382.25 94.75
  Z
  M 437.90 67.51
  Q 437.03 69.16 436.53 71.06
  Q 427.30 106.27 417.92 141.44
  Q 416.90 145.26 420.74 145.26
  L 438.74 145.24
  Q 440.99 145.24 441.43 143.19
  L 443.07 135.52
  A 0.70 0.65 5.5 0 1 443.75 135.00
  L 458.00 135.00
  A 0.85 0.62 -4.4 0 1 458.80 135.49
  L 460.50 143.00
  Q 460.99 145.21 463.19 145.22
  Q 471.91 145.27 480.76 145.25
  C 483.69 145.25 485.12 144.45 484.27 141.24
  Q 474.80 105.24 465.43 69.20
  Q 464.61 66.05 461.50 66.02
  Q 450.90 65.95 440.30 66.05
  A 2.73 2.72 13.6 0 0 437.90 67.51
  Z
  M 530.25 104.50
  L 530.24 142.51
  Q 530.24 145.24 533.01 145.24
  L 551.00 145.26
  Q 553.26 145.26 553.26 143.00
  L 553.26 68.99
  Q 553.26 66.08 550.42 66.08
  L 533.18 66.09
  Q 531.32 66.09 530.49 67.51
  L 520.78 84.27
  A 0.47 0.43 46.6 0 1 520.01 84.21
  L 510.47 68.03
  Q 509.28 66.02 506.75 66.02
  L 490.01 66.02
  Q 487.25 66.02 487.25 68.75
  L 487.26 142.94
  Q 487.26 145.25 489.50 145.25
  L 507.51 145.28
  Q 510.47 145.28 510.47 142.18
  L 510.49 104.75
  Q 510.49 103.97 510.90 104.62
  L 515.24 111.51
  Q 516.48 113.48 518.36 113.85
  C 525.45 115.22 526.45 108.92 529.88 104.46
  Q 530.25 103.97 530.25 104.50
  Z
  M 580.44 134.55
  A 11.63 11.63 0.0 0 0 568.81 122.92
  A 11.63 11.63 0.0 0 0 557.18 134.55
  A 11.63 11.63 0.0 0 0 568.81 146.18
  A 11.63 11.63 0.0 0 0 580.44 134.55
  Z"
/>
<path fill="#4d3c5d" d="
  M 37.47 98.83
  C 28.98 86.02 31.42 63.69 44.81 54.80
  A 0.91 0.90 61.6 0 1 46.14 55.20
  Q 48.97 61.82 56.54 62.92
  C 64.22 64.05 72.85 63.15 81.48 67.01
  C 94.34 72.74 96.81 85.63 92.01 97.86
  A 1.68 1.56 -56.1 0 0 92.27 99.51
  Q 97.45 105.38 91.72 110.70
  A 1.32 1.27 69.9 0 0 91.31 111.63
  C 91.03 123.76 92.27 133.38 82.72 141.76
  Q 69.38 153.46 52.40 145.56
  Q 51.74 145.25 50.86 143.79
  A 1.31 1.26 81.9 0 0 50.13 143.22
  C 43.25 141.16 39.34 131.80 38.73 125.31
  Q 38.07 118.32 38.23 111.31
  A 1.31 0.96 28.3 0 0 37.82 110.45
  Q 32.28 105.28 37.42 99.66
  A 0.69 0.66 49.8 0 0 37.47 98.83
  Z
  M 34.29 80.75
  Q 33.92 89.95 39.06 97.49
  A 0.99 0.38 59.3 0 0 39.75 98.04
  L 42.50 97.73
  A 0.83 0.69 -89.5 0 0 43.13 96.99
  Q 44.19 85.87 53.53 80.02
  Q 54.91 79.16 56.45 79.78
  L 63.80 82.73
  Q 65.25 83.31 66.74 82.52
  C 69.95 80.81 73.94 77.82 77.50 80.79
  Q 85.66 86.85 86.73 97.02
  A 0.82 0.51 86.3 0 0 87.24 97.74
  L 89.55 97.89
  A 0.92 0.47 -73.0 0 0 90.17 97.25
  C 94.10 86.91 93.17 75.89 82.75 70.04
  Q 76.20 66.04 68.50 65.96
  C 60.30 65.64 50.49 65.86 44.91 57.39
  A 0.40 0.40 50.2 0 0 44.28 57.33
  Q 34.94 67.00 34.29 80.75
  Z
  M 66.00 85.22
  L 58.85 83.10
  C 52.57 78.92 47.02 88.83 45.76 93.66
  Q 44.86 105.83 45.26 118.10
  A 0.75 0.74 -10.5 0 0 46.25 118.77
  C 51.02 117.11 54.66 114.32 59.97 114.20
  A 0.56 0.42 -1.1 0 0 60.52 113.77
  Q 60.49 112.58 61.46 112.21
  A 0.53 0.43 68.0 0 1 62.05 112.54
  Q 64.72 118.75 67.65 112.79
  A 0.86 0.38 -66.0 0 1 68.27 112.23
  Q 69.47 112.47 69.24 113.75
  A 0.54 0.38 4.4 0 0 69.78 114.20
  C 74.86 114.37 78.65 116.93 83.06 118.69
  A 1.23 1.22 11.2 0 0 84.74 117.57
  C 84.84 106.58 87.15 92.50 78.50 84.46
  C 75.07 79.25 70.75 82.55 66.00 85.22
  Z
  M 40.02 109.43
  Q 43.04 111.35 43.03 107.79
  L 43.01 100.51
  A 0.56 0.51 1.3 0 0 42.48 100.01
  C 36.74 99.71 35.13 106.33 40.02 109.43
  Z
  M 87.38 109.68
  C 93.63 110.84 95.07 99.66 87.35 100.10
  A 0.65 0.63 88.1 0 0 86.76 100.75
  L 86.86 109.00
  A 0.70 0.64 -85.1 0 0 87.38 109.68
  Z
  M 44.54 135.75
  C 56.77 153.31 81.58 148.95 88.38 129.01
  C 89.78 123.54 89.09 118.24 89.41 112.80
  A 0.76 0.44 -87.3 0 0 88.99 112.00
  L 87.25 112.00
  A 0.73 0.47 85.5 0 0 86.82 112.80
  Q 87.38 117.93 85.34 122.54
  Q 80.38 127.23 73.25 126.75
  Q 72.36 126.69 71.75 127.71
  Q 65.93 131.03 59.75 128.54
  L 58.50 127.96
  L 57.06 126.89
  A 1.49 1.04 53.4 0 0 56.19 126.60
  Q 52.31 126.82 48.54 125.75
  L 48.00 125.46
  C 43.06 122.09 42.72 118.96 43.03 112.96
  A 0.88 0.38 -87.1 0 0 42.69 112.05
  L 40.75 112.00
  A 1.01 0.38 88.7 0 0 40.39 113.04
  C 40.63 121.26 39.46 127.97 44.54 135.75
  Z
  M 48.44 122.61
  C 53.12 126.49 61.36 124.81 63.52 119.02
  Q 64.22 118.02 63.03 117.42
  C 57.45 114.60 52.00 118.91 46.73 120.69
  A 0.38 0.37 -26.8 0 0 46.54 121.26
  Q 47.38 122.43 48.44 122.61
  Z
  M 65.96 118.81
  C 68.95 124.70 76.68 127.01 81.79 122.51
  C 85.70 120.40 80.89 120.35 79.66 119.63
  C 75.94 117.44 68.90 114.20 65.96 118.81
  Z
  M 68.58 125.49
  Q 64.86 125.86 61.22 125.39
  C 60.59 125.30 59.42 125.76 60.55 126.46
  Q 64.26 128.77 68.96 126.72
  Q 70.05 126.25 69.47 125.71
  A 1.27 0.82 -18.8 0 0 68.58 125.49
  Z"
/>
<path fill="#d0a075" d="
  M 68.50 65.96
  C 62.42 67.49 52.55 68.89 46.93 65.48
  A 1.63 1.63 42.7 0 0 45.12 65.55
  Q 38.03 70.72 35.95 79.19
  C 35.71 80.15 35.19 80.54 34.29 80.75
  Q 34.94 67.00 44.28 57.33
  A 0.40 0.40 50.2 0 1 44.91 57.39
  C 50.49 65.86 60.30 65.64 68.50 65.96
  Z"
/>
<path fill="#c78d59" d="
  M 68.50 65.96
  Q 76.20 66.04 82.75 70.04
  C 82.43 71.99 83.59 73.15 83.51 74.74
  C 83.33 78.16 80.53 79.41 77.50 80.79
  C 73.94 77.82 69.95 80.81 66.74 82.52
  Q 65.25 83.31 63.80 82.73
  L 56.45 79.78
  Q 54.91 79.16 53.53 80.02
  Q 44.19 85.87 43.13 96.99
  A 0.83 0.69 -89.5 0 1 42.50 97.73
  L 39.75 98.04
  A 0.99 0.38 59.3 0 1 39.06 97.49
  Q 33.92 89.95 34.29 80.75
  C 35.19 80.54 35.71 80.15 35.95 79.19
  Q 38.03 70.72 45.12 65.55
  A 1.63 1.63 42.7 0 1 46.93 65.48
  C 52.55 68.89 62.42 67.49 68.50 65.96
  Z
  M 38.69 89.32
  C 38.45 88.32 37.79 82.14 37.06 82.24
  A 0.78 0.58 -89.5 0 0 36.55 82.92
  C 36.45 84.07 36.99 91.61 38.52 90.21
  A 1.01 0.65 67.9 0 0 38.69 89.32
  Z
  M 38.84 91.39
  Q 38.67 91.96 39.22 92.26
  A 0.49 0.47 -69.8 0 0 39.92 91.92
  Q 40.03 91.44 39.56 91.21
  A 0.56 0.41 22.6 0 0 38.84 91.39
  Z"
/>
<path fill="#4d3c5d" d="
  M 146.86 125.75
  Q 148.52 126.10 150.11 125.53
  C 154.06 124.12 152.02 120.76 149.42 119.39
  C 137.98 113.40 122.62 107.94 119.92 93.18
  C 113.53 58.20 174.96 54.42 175.00 91.00
  Q 175.00 95.05 170.75 94.95
  Q 163.12 94.77 155.35 94.73
  Q 152.14 94.71 152.15 91.51
  C 152.18 81.99 137.52 84.99 144.09 91.95
  Q 145.50 93.45 154.66 97.87
  C 165.57 103.13 175.33 109.25 175.34 122.26
  C 175.38 154.08 119.34 155.09 119.30 120.76
  Q 119.29 116.69 123.25 116.69
  Q 130.75 116.71 138.25 116.75
  C 145.13 116.79 139.21 124.15 146.86 125.75
  Z
  M 142.43 93.81
  C 131.80 84.56 153.75 76.02 154.86 91.38
  A 0.66 0.64 88.1 0 0 155.50 92.00
  L 171.50 92.00
  A 0.66 0.66 -87.6 0 0 172.16 91.39
  C 174.28 65.63 133.99 59.55 123.92 80.49
  C 118.98 90.75 124.08 102.14 133.55 107.95
  Q 139.09 111.34 149.00 116.15
  C 166.08 124.44 141.82 137.07 139.35 120.16
  A 0.76 0.58 85.1 0 0 138.75 119.50
  L 122.75 119.50
  A 0.72 0.66 -86.6 0 0 122.09 120.14
  C 119.19 149.95 172.53 151.93 172.67 122.59
  C 172.76 104.23 151.06 101.32 142.43 93.81
  Z"
/>
<path fill="#4d3c5d" d="
  M 202.25 95.25
  L 211.00 95.25
  A 0.51 0.50 -0.0 0 0 211.51 94.75
  L 211.53 68.81
  Q 211.54 66.07 214.31 66.07
  L 231.49 66.05
  Q 234.50 66.05 234.50 69.00
  L 234.50 142.75
  Q 234.50 145.26 232.00 145.26
  L 214.26 145.24
  Q 211.48 145.24 211.48 142.51
  L 211.49 116.00
  A 0.49 0.49 -89.4 0 0 211.00 115.50
  L 202.25 115.50
  A 0.51 0.50 -0.0 0 0 201.74 116.00
  L 201.73 142.94
  Q 201.72 145.25 199.50 145.25
  L 181.25 145.26
  Q 178.51 145.26 178.51 142.50
  L 178.50 69.00
  Q 178.50 66.00 181.50 66.00
  L 198.75 66.00
  Q 201.76 66.00 201.76 69.00
  L 201.75 94.75
  A 0.50 0.50 0.0 0 0 202.25 95.25
  Z
  M 201.50 97.93
  Q 199.25 97.94 199.25 95.51
  L 199.25 69.25
  A 0.50 0.50 0.0 0 0 198.75 68.75
  L 181.75 68.75
  A 0.50 0.50 0.0 0 0 181.25 69.25
  L 181.25 142.00
  A 0.75 0.50 90.0 0 0 181.75 142.75
  L 198.75 142.75
  A 0.75 0.50 -90.0 0 0 199.25 142.00
  L 199.25 114.50
  A 1.50 1.50 0.0 0 1 200.75 113.00
  L 212.25 112.99
  A 1.76 1.75 -90.0 0 1 214.00 114.75
  L 214.00 142.25
  A 0.50 0.50 0.0 0 0 214.50 142.75
  L 231.50 142.75
  A 0.50 0.50 0.0 0 0 232.00 142.25
  L 232.00 69.25
  A 0.50 0.50 0.0 0 0 231.50 68.75
  L 214.50 68.75
  A 0.50 0.50 0.0 0 0 214.00 69.25
  L 214.01 95.51
  Q 214.01 97.87 211.55 97.88
  L 201.50 97.93
  Z"
/>
<path fill="#4d3c5d" d="
  M 293.29 128.27
  C 285.97 151.88 246.95 152.56 239.69 127.98
  Q 238.59 124.24 238.54 114.25
  Q 238.43 91.54 238.54 68.80
  Q 238.55 66.04 241.31 66.02
  Q 249.75 65.96 258.25 66.04
  C 261.21 66.07 261.73 67.97 261.73 70.61
  Q 261.76 94.53 261.75 118.46
  C 261.75 128.46 271.47 128.21 271.48 119.22
  Q 271.52 94.24 271.50 69.23
  Q 271.50 66.00 274.75 66.00
  L 292.01 65.99
  Q 294.76 65.99 294.76 68.74
  Q 294.71 89.91 294.77 111.08
  Q 294.81 123.37 293.29 128.27
  Z
  M 241.12 119.68
  C 241.30 143.07 270.74 151.20 285.50 136.30
  C 292.53 129.21 292.15 121.79 292.21 110.50
  Q 292.32 89.91 292.21 69.31
  A 0.56 0.46 90.0 0 0 291.75 68.75
  L 274.75 68.75
  A 0.51 0.51 -89.8 0 0 274.24 69.26
  Q 274.29 93.10 274.22 116.93
  Q 274.20 121.83 273.43 123.82
  C 270.12 132.28 259.06 128.57 259.04 119.49
  Q 258.98 94.41 258.99 69.29
  A 0.54 0.49 -90.0 0 0 258.50 68.75
  L 241.50 68.75
  A 0.50 0.48 -89.4 0 0 241.02 69.24
  Q 240.92 94.48 241.12 119.68
  Z"
/>
<path fill="#4d3c5d" d="
  M 299.18 67.70
  Q 299.82 66.37 301.32 66.32
  C 315.53 65.86 329.42 64.58 340.24 68.31
  C 355.36 73.51 358.49 93.42 347.36 104.15
  A 0.44 0.44 41.8 0 0 347.40 104.81
  C 356.72 111.96 357.60 127.10 350.92 135.86
  C 346.46 141.70 337.92 145.11 330.70 145.18
  Q 316.21 145.31 301.73 145.24
  Q 298.76 145.22 298.76 142.25
  L 298.75 69.50
  Q 298.75 68.59 299.18 67.70
  Z
  M 343.87 104.23
  C 346.27 100.44 349.14 100.11 350.36 94.53
  C 354.23 76.81 343.15 68.73 327.12 68.74
  Q 314.48 68.75 301.99 68.76
  A 0.49 0.49 0.1 0 0 301.50 69.25
  L 301.50 142.25
  A 0.53 0.45 -0.0 0 0 302.03 142.70
  Q 315.49 142.86 328.93 142.66
  C 335.71 142.56 347.14 139.34 350.00 132.99
  Q 357.52 116.26 344.00 105.05
  A 0.63 0.62 36.6 0 1 343.87 104.23
  Z"
/>
<path fill="#4d3c5d" d="
  M 382.75 95.25
  L 391.50 95.25
  A 0.50 0.50 0.0 0 0 392.00 94.75
  L 391.99 68.74
  Q 391.99 66.05 394.57 66.05
  L 411.74 66.04
  Q 415.00 66.04 415.00 69.24
  L 415.00 142.75
  Q 415.00 145.27 412.51 145.27
  L 394.26 145.24
  Q 392.00 145.24 392.00 143.00
  L 392.00 116.00
  A 0.50 0.50 0.0 0 0 391.50 115.50
  L 382.75 115.50
  A 0.51 0.50 -0.0 0 0 382.24 116.00
  L 382.22 142.69
  Q 382.22 145.26 379.76 145.26
  L 361.74 145.28
  Q 359.01 145.28 359.01 142.44
  L 359.01 69.00
  Q 359.00 66.02 362.00 66.02
  L 379.24 66.01
  Q 382.26 66.01 382.26 69.00
  L 382.25 94.75
  A 0.50 0.50 0.0 0 0 382.75 95.25
  Z
  M 393.77 97.66
  Q 387.65 98.35 381.48 97.84
  A 1.89 1.85 2.4 0 1 379.75 96.00
  L 379.75 69.25
  A 0.50 0.50 0.0 0 0 379.25 68.75
  L 362.25 68.75
  A 0.50 0.50 0.0 0 0 361.75 69.25
  L 361.75 142.25
  A 0.50 0.50 0.0 0 0 362.25 142.75
  L 379.25 142.75
  A 0.50 0.50 0.0 0 0 379.75 142.25
  L 379.75 114.50
  A 1.50 1.50 0.0 0 1 381.25 113.00
  L 393.18 113.03
  A 1.32 1.22 -0.0 0 1 394.50 114.25
  L 394.50 142.25
  A 0.50 0.50 0.0 0 0 395.00 142.75
  L 412.00 142.75
  A 0.50 0.50 0.0 0 0 412.50 142.25
  L 412.50 69.25
  A 0.50 0.50 0.0 0 0 412.00 68.75
  L 395.00 68.75
  A 0.50 0.50 0.0 0 0 394.50 69.25
  L 394.50 96.50
  A 1.20 0.81 88.0 0 1 393.77 97.66
  Z"
/>
<path fill="#4d3c5d" d="
  M 437.90 67.51
  A 2.73 2.72 13.6 0 1 440.30 66.05
  Q 450.90 65.95 461.50 66.02
  Q 464.61 66.05 465.43 69.20
  Q 474.80 105.24 484.27 141.24
  C 485.12 144.45 483.69 145.25 480.76 145.25
  Q 471.91 145.27 463.19 145.22
  Q 460.99 145.21 460.50 143.00
  L 458.80 135.49
  A 0.85 0.62 -4.4 0 0 458.00 135.00
  L 443.75 135.00
  A 0.70 0.65 5.5 0 0 443.07 135.52
  L 441.43 143.19
  Q 440.99 145.24 438.74 145.24
  L 420.74 145.26
  Q 416.90 145.26 417.92 141.44
  Q 427.30 106.27 436.53 71.06
  Q 437.03 69.16 437.90 67.51
  Z
  M 439.90 68.97
  L 420.50 141.95
  A 0.64 0.56 -81.6 0 0 421.01 142.75
  L 438.25 142.75
  A 0.88 0.62 4.2 0 0 439.07 142.26
  L 440.86 133.90
  A 2.03 2.00 -83.9 0 1 442.82 132.29
  L 458.76 132.25
  Q 460.72 132.25 461.22 134.51
  L 462.95 142.26
  A 0.85 0.62 -4.4 0 0 463.75 142.75
  L 481.25 142.75
  A 0.59 0.51 81.3 0 0 481.71 142.01
  L 462.56 69.44
  A 0.90 0.45 77.8 0 0 462.00 68.75
  L 440.25 68.75
  A 0.38 0.29 5.8 0 0 439.90 68.97
  Z"
/>
<path fill="#4d3c5d" d="
  M 529.88 104.46
  C 526.45 108.92 525.45 115.22 518.36 113.85
  Q 516.48 113.48 515.24 111.51
  L 510.90 104.62
  Q 510.49 103.97 510.49 104.75
  L 510.47 142.18
  Q 510.47 145.28 507.51 145.28
  L 489.50 145.25
  Q 487.26 145.25 487.26 142.94
  L 487.25 68.75
  Q 487.25 66.02 490.01 66.02
  L 506.75 66.02
  Q 509.28 66.02 510.47 68.03
  L 520.01 84.21
  A 0.47 0.43 46.6 0 0 520.78 84.27
  L 530.49 67.51
  Q 531.32 66.09 533.18 66.09
  L 550.42 66.08
  Q 553.26 66.08 553.26 68.99
  L 553.26 143.00
  Q 553.26 145.26 551.00 145.26
  L 533.01 145.24
  Q 530.24 145.24 530.24 142.51
  L 530.25 104.50
  Q 530.25 103.97 529.88 104.46
  Z
  M 507.81 101.56
  C 507.82 99.24 509.36 96.39 511.52 100.02
  Q 514.63 105.27 517.75 110.57
  A 1.27 0.29 62.3 0 0 518.43 111.36
  Q 520.35 111.75 522.27 111.30
  A 1.24 0.26 -61.7 0 0 522.93 110.52
  Q 528.28 101.39 529.47 99.70
  Q 531.05 97.45 532.48 99.41
  A 1.45 1.39 -64.1 0 1 532.75 100.25
  L 532.75 142.00
  A 0.75 0.50 90.0 0 0 533.25 142.75
  L 550.25 142.75
  A 0.50 0.50 0.0 0 0 550.75 142.25
  L 550.75 69.25
  A 0.50 0.50 0.0 0 0 550.25 68.75
  L 533.25 68.75
  A 1.18 0.97 -72.1 0 0 532.34 69.33
  L 522.33 86.59
  Q 520.41 89.90 518.44 86.55
  L 508.23 69.26
  A 1.02 0.70 69.6 0 0 507.50 68.75
  L 490.25 68.75
  A 0.50 0.50 0.0 0 0 489.75 69.25
  L 489.75 142.25
  A 0.50 0.50 0.0 0 0 490.25 142.75
  L 507.25 142.75
  A 0.53 0.49 89.4 0 0 507.74 142.21
  Q 507.71 121.86 507.81 101.56
  Z"
/>
<path fill="#ffffff" d="
  M 154.86 91.38
  C 153.75 76.02 131.80 84.56 142.43 93.81
  C 151.06 101.32 172.76 104.23 172.67 122.59
  C 172.53 151.93 119.19 149.95 122.09 120.14
  A 0.72 0.66 -86.6 0 1 122.75 119.50
  L 138.75 119.50
  A 0.76 0.58 85.1 0 1 139.35 120.16
  C 141.82 137.07 166.08 124.44 149.00 116.15
  Q 139.09 111.34 133.55 107.95
  C 124.08 102.14 118.98 90.75 123.92 80.49
  C 133.99 59.55 174.28 65.63 172.16 91.39
  A 0.66 0.66 -87.6 0 1 171.50 92.00
  L 155.50 92.00
  A 0.66 0.64 88.1 0 1 154.86 91.38
  Z"
/>
<path fill="#ffffff" d="
  M 201.50 97.93
  L 211.55 97.88
  Q 214.01 97.87 214.01 95.51
  L 214.00 69.25
  A 0.50 0.50 0.0 0 1 214.50 68.75
  L 231.50 68.75
  A 0.50 0.50 0.0 0 1 232.00 69.25
  L 232.00 142.25
  A 0.50 0.50 0.0 0 1 231.50 142.75
  L 214.50 142.75
  A 0.50 0.50 0.0 0 1 214.00 142.25
  L 214.00 114.75
  A 1.76 1.75 90.0 0 0 212.25 112.99
  L 200.75 113.00
  A 1.50 1.50 0.0 0 0 199.25 114.50
  L 199.25 142.00
  A 0.75 0.50 -90.0 0 1 198.75 142.75
  L 181.75 142.75
  A 0.75 0.50 90.0 0 1 181.25 142.00
  L 181.25 69.25
  A 0.50 0.50 0.0 0 1 181.75 68.75
  L 198.75 68.75
  A 0.50 0.50 0.0 0 1 199.25 69.25
  L 199.25 95.51
  Q 199.25 97.94 201.50 97.93
  Z"
/>
<path fill="#ffffff" d="
  M 285.50 136.30
  C 270.74 151.20 241.30 143.07 241.12 119.68
  Q 240.92 94.48 241.02 69.24
  A 0.50 0.48 -89.4 0 1 241.50 68.75
  L 258.50 68.75
  A 0.54 0.49 -90.0 0 1 258.99 69.29
  Q 258.98 94.41 259.04 119.49
  C 259.06 128.57 270.12 132.28 273.43 123.82
  Q 274.20 121.83 274.22 116.93
  Q 274.29 93.10 274.24 69.26
  A 0.51 0.51 89.6 0 1 274.75 68.75
  L 291.75 68.75
  A 0.56 0.46 -90.0 0 1 292.21 69.31
  Q 292.32 89.91 292.21 110.50
  C 292.15 121.79 292.53 129.21 285.50 136.30
  Z"
/>
<path fill="#ffffff" d="
  M 343.87 104.23
  A 0.63 0.62 36.6 0 0 344.00 105.05
  Q 357.52 116.26 350.00 132.99
  C 347.14 139.34 335.71 142.56 328.93 142.66
  Q 315.49 142.86 302.03 142.70
  A 0.53 0.45 0.0 0 1 301.50 142.25
  L 301.50 69.25
  A 0.49 0.49 -0.1 0 1 301.99 68.76
  Q 314.48 68.75 327.12 68.74
  C 343.15 68.73 354.23 76.81 350.36 94.53
  C 349.14 100.11 346.27 100.44 343.87 104.23
  Z
  M 319.56 84.93
  L 319.50 96.76
  A 1.76 1.53 3.4 0 0 321.09 98.32
  C 327.68 99.00 336.21 97.44 333.24 88.19
  C 331.57 82.97 324.92 83.37 320.67 83.90
  A 1.27 1.02 -4.2 0 0 319.56 84.93
  Z
  M 319.49 113.25
  L 319.48 125.52
  Q 319.48 127.70 321.68 127.74
  C 328.94 127.85 336.35 126.99 334.31 117.15
  C 332.99 110.77 326.26 111.27 321.27 111.55
  A 1.89 1.69 -1.8 0 0 319.49 113.25
  Z"
/>
<path fill="#ffffff" d="
  M 393.77 97.66
  A 1.20 0.81 88.0 0 0 394.50 96.50
  L 394.50 69.25
  A 0.50 0.50 0.0 0 1 395.00 68.75
  L 412.00 68.75
  A 0.50 0.50 0.0 0 1 412.50 69.25
  L 412.50 142.25
  A 0.50 0.50 0.0 0 1 412.00 142.75
  L 395.00 142.75
  A 0.50 0.50 0.0 0 1 394.50 142.25
  L 394.50 114.25
  A 1.32 1.22 0.0 0 0 393.18 113.03
  L 381.25 113.00
  A 1.50 1.50 0.0 0 0 379.75 114.50
  L 379.75 142.25
  A 0.50 0.50 0.0 0 1 379.25 142.75
  L 362.25 142.75
  A 0.50 0.50 0.0 0 1 361.75 142.25
  L 361.75 69.25
  A 0.50 0.50 0.0 0 1 362.25 68.75
  L 379.25 68.75
  A 0.50 0.50 0.0 0 1 379.75 69.25
  L 379.75 96.00
  A 1.89 1.85 2.4 0 0 381.48 97.84
  Q 387.65 98.35 393.77 97.66
  Z"
/>
<path fill="#ffffff" d="
  M 439.90 68.97
  A 0.38 0.29 5.8 0 1 440.25 68.75
  L 462.00 68.75
  A 0.90 0.45 77.8 0 1 462.56 69.44
  L 481.71 142.01
  A 0.59 0.51 81.3 0 1 481.25 142.75
  L 463.75 142.75
  A 0.85 0.62 -4.4 0 1 462.95 142.26
  L 461.22 134.51
  Q 460.72 132.25 458.76 132.25
  L 442.82 132.29
  A 2.03 2.00 -83.9 0 0 440.86 133.90
  L 439.07 142.26
  A 0.88 0.62 4.2 0 1 438.25 142.75
  L 421.01 142.75
  A 0.64 0.56 -81.6 0 1 420.50 141.95
  L 439.90 68.97
  Z
  M 448.94 95.27
  Q 446.43 106.30 444.43 116.47
  Q 443.90 119.16 446.58 119.17
  L 454.97 119.19
  Q 457.99 119.19 457.35 116.22
  C 456.62 112.83 453.38 94.39 451.83 93.12
  C 449.91 91.55 449.27 93.84 448.94 95.27
  Z"
/>
<path fill="#ffffff" d="
  M 507.81 101.56
  Q 507.71 121.86 507.74 142.21
  A 0.53 0.49 89.4 0 1 507.25 142.75
  L 490.25 142.75
  A 0.50 0.50 0.0 0 1 489.75 142.25
  L 489.75 69.25
  A 0.50 0.50 0.0 0 1 490.25 68.75
  L 507.50 68.75
  A 1.02 0.70 69.6 0 1 508.23 69.26
  L 518.44 86.55
  Q 520.41 89.90 522.33 86.59
  L 532.34 69.33
  A 1.18 0.97 -72.1 0 1 533.25 68.75
  L 550.25 68.75
  A 0.50 0.50 0.0 0 1 550.75 69.25
  L 550.75 142.25
  A 0.50 0.50 0.0 0 1 550.25 142.75
  L 533.25 142.75
  A 0.75 0.50 90.0 0 1 532.75 142.00
  L 532.75 100.25
  A 1.45 1.39 -64.1 0 0 532.48 99.41
  Q 531.05 97.45 529.47 99.70
  Q 528.28 101.39 522.93 110.52
  A 1.24 0.26 -61.7 0 1 522.27 111.30
  Q 520.35 111.75 518.43 111.36
  A 1.27 0.29 62.3 0 1 517.75 110.57
  Q 514.63 105.27 511.52 100.02
  C 509.36 96.39 507.82 99.24 507.81 101.56
  Z"
/>
<path fill="#b78151" d="
  M 82.75 70.04
  C 93.17 75.89 94.10 86.91 90.17 97.25
  A 0.92 0.47 -73.0 0 1 89.55 97.89
  L 87.24 97.74
  A 0.82 0.51 86.3 0 1 86.73 97.02
  Q 85.66 86.85 77.50 80.79
  C 80.53 79.41 83.33 78.16 83.51 74.74
  C 83.59 73.15 82.43 71.99 82.75 70.04
  Z
  M 89.42 81.41
  C 90.73 81.22 88.22 77.34 87.44 76.59
  Q 87.12 76.29 87.06 76.56
  L 87.02 76.76
  A 0.84 0.10 -76.5 0 0 86.94 77.46
  L 88.68 80.89
  A 0.89 0.59 68.5 0 0 89.42 81.41
  Z"
/>
<path fill="#4d3c5d" d="
  M 88.68 80.89
  L 86.94 77.46
  A 0.84 0.10 -76.5 0 1 87.02 76.76
  L 87.06 76.56
  Q 87.12 76.29 87.44 76.59
  C 88.22 77.34 90.73 81.22 89.42 81.41
  A 0.89 0.59 68.5 0 1 88.68 80.89
  Z"
/>
<path fill="#d7b88e" d="
  M 78.50 84.46
  L 66.00 85.22
  C 70.75 82.55 75.07 79.25 78.50 84.46
  Z"
/>
<path fill="#d7b88e" d="
  M 58.85 83.10
  Q 51.16 86.90 45.76 93.66
  C 47.02 88.83 52.57 78.92 58.85 83.10
  Z"
/>
<path fill="#4d3c5d" d="
  M 38.52 90.21
  C 36.99 91.61 36.45 84.07 36.55 82.92
  A 0.78 0.58 -89.5 0 1 37.06 82.24
  C 37.79 82.14 38.45 88.32 38.69 89.32
  A 1.01 0.65 67.9 0 1 38.52 90.21
  Z"
/>
<path fill="#fedaa7" d="
  M 58.85 83.10
  L 66.00 85.22
  L 78.50 84.46
  C 87.15 92.50 84.84 106.58 84.74 117.57
  A 1.23 1.22 11.2 0 1 83.06 118.69
  C 78.65 116.93 74.86 114.37 69.78 114.20
  A 0.54 0.38 4.4 0 1 69.24 113.75
  Q 69.47 112.47 68.27 112.23
  A 0.86 0.38 -66.0 0 0 67.65 112.79
  Q 64.72 118.75 62.05 112.54
  A 0.53 0.43 68.0 0 0 61.46 112.21
  Q 60.49 112.58 60.52 113.77
  A 0.56 0.42 -1.1 0 1 59.97 114.20
  C 54.66 114.32 51.02 117.11 46.25 118.77
  A 0.75 0.74 -10.5 0 1 45.26 118.10
  Q 44.86 105.83 45.76 93.66
  Q 51.16 86.90 58.85 83.10
  Z
  M 60.3476 97.5154
  A 3.45 3.45 0.0 0 0 56.3315 94.7448
  L 50.8235 95.7557
  A 3.45 3.45 0.0 0 0 48.0530 99.7719
  L 48.1324 100.2046
  A 3.45 3.45 0.0 0 0 52.1485 102.9752
  L 57.6565 101.9643
  A 3.45 3.45 0.0 0 0 60.4270 97.9481
  L 60.3476 97.5154
  Z
  M 81.9143 99.9260
  A 3.45 3.45 0.0 0 0 79.2356 95.8481
  L 73.7128 94.7044
  A 3.45 3.45 0.0 0 0 69.6349 97.3831
  L 69.5457 97.8140
  A 3.45 3.45 0.0 0 0 72.2244 101.8919
  L 77.7472 103.0356
  A 3.45 3.45 0.0 0 0 81.8251 100.3569
  L 81.9143 99.9260
  Z
  M 50.29 111.00
  Q 48.16 113.77 51.79 113.98
  Q 55.31 114.18 57.48 111.25
  Q 58.71 110.64 58.31 109.17
  C 56.70 103.36 48.37 105.38 50.29 111.00
  Z
  M 72.71 111.00
  C 75.34 114.60 83.38 114.58 79.75 110.96
  Q 80.67 108.00 78.58 106.63
  C 72.83 102.87 69.11 111.10 72.71 111.00
  Z"
/>
<path fill="#4d3c5d" d="
  M 319.56 84.93
  A 1.27 1.02 -4.2 0 1 320.67 83.90
  C 324.92 83.37 331.57 82.97 333.24 88.19
  C 336.21 97.44 327.68 99.00 321.09 98.32
  A 1.76 1.53 3.4 0 1 319.50 96.76
  L 319.56 84.93
  Z
  M 322.49 95.56
  C 332.93 98.43 335.27 84.78 322.60 86.33
  A 0.68 0.67 -3.3 0 0 322.00 87.00
  L 322.00 95.00
  A 0.67 0.55 9.5 0 0 322.49 95.56
  Z"
/>
<path fill="#ffffff" d="
  M 322.60 86.33
  C 335.27 84.78 332.93 98.43 322.49 95.56
  A 0.67 0.55 9.5 0 1 322.00 95.00
  L 322.00 87.00
  A 0.68 0.67 -3.3 0 1 322.60 86.33
  Z"
/>
<path fill="#4d3c5d" d="
  M 39.56 91.21
  Q 40.03 91.44 39.92 91.92
  A 0.49 0.47 -69.8 0 1 39.22 92.26
  Q 38.67 91.96 38.84 91.39
  A 0.56 0.41 22.6 0 1 39.56 91.21
  Z"
/>
<path fill="#4d3c5d" d="
  M 448.94 95.27
  C 449.27 93.84 449.91 91.55 451.83 93.12
  C 453.38 94.39 456.62 112.83 457.35 116.22
  Q 457.99 119.19 454.97 119.19
  L 446.58 119.17
  Q 443.90 119.16 444.43 116.47
  Q 446.43 106.30 448.94 95.27
  Z
  M 450.28 101.59
  Q 448.62 108.60 447.31 115.80
  A 0.60 0.47 -83.6 0 0 447.75 116.50
  L 454.00 116.50
  A 0.63 0.56 83.8 0 0 454.54 115.74
  L 451.07 99.49
  Q 450.92 98.77 450.63 99.41
  C 450.41 99.90 450.36 101.28 450.28 101.59
  Z"
/>
<path fill="#4d3c5d" d="
  M 60.4270 97.9481
  A 3.45 3.45 0.0 0 1 57.6565 101.9643
  L 52.1485 102.9752
  A 3.45 3.45 0.0 0 1 48.1324 100.2046
  L 48.0530 99.7719
  A 3.45 3.45 0.0 0 1 50.8235 95.7557
  L 56.3315 94.7448
  A 3.45 3.45 0.0 0 1 60.3476 97.5154
  L 60.4270 97.9481
  Z
  M 57.06 96.94
  Q 54.57 96.97 52.08 97.53
  C 49.85 98.03 48.63 100.12 51.84 100.96
  C 52.23 101.07 60.95 100.08 57.95 97.25
  A 1.35 1.03 -18.0 0 0 57.06 96.94
  Z"
/>
<path fill="#4d3c5d" d="
  M 81.8251 100.3569
  A 3.45 3.45 0.0 0 1 77.7472 103.0356
  L 72.2244 101.8919
  A 3.45 3.45 0.0 0 1 69.5457 97.8140
  L 69.6349 97.3831
  A 3.45 3.45 0.0 0 1 73.7128 94.7044
  L 79.2356 95.8481
  A 3.45 3.45 0.0 0 1 81.9143 99.9260
  L 81.8251 100.3569
  Z
  M 79.9543 99.4691
  A 1.54 1.54 0.0 0 0 78.6958 97.6916
  L 73.3335 96.7750
  A 1.54 1.54 0.0 0 0 71.5561 98.0335
  L 71.5257 98.2109
  A 1.54 1.54 0.0 0 0 72.7842 99.9884
  L 78.1465 100.9050
  A 1.54 1.54 0.0 0 0 79.9239 99.6465
  L 79.9543 99.4691
  Z"
/>
<path fill="#d0a075" d="
  M 57.95 97.25
  C 60.95 100.08 52.23 101.07 51.84 100.96
  C 48.63 100.12 49.85 98.03 52.08 97.53
  Q 54.57 96.97 57.06 96.94
  A 1.35 1.03 -18.0 0 1 57.95 97.25
  Z"
/>
<rect fill="#d0a075" x="-4.26" y="-1.63" transform="translate(75.74,98.84) rotate(9.7)" width="8.52" height="3.26" rx="1.54"/>
<path fill="#ffffff" d="
  M 450.28 101.59
  C 450.36 101.28 450.41 99.90 450.63 99.41
  Q 450.92 98.77 451.07 99.49
  L 454.54 115.74
  A 0.63 0.56 83.8 0 1 454.00 116.50
  L 447.75 116.50
  A 0.60 0.47 -83.6 0 1 447.31 115.80
  Q 448.62 108.60 450.28 101.59
  Z"
/>
<path fill="#fedaa7" d="
  M 40.02 109.43
  C 35.13 106.33 36.74 99.71 42.48 100.01
  A 0.56 0.51 1.3 0 1 43.01 100.51
  L 43.03 107.79
  Q 43.04 111.35 40.02 109.43
  Z
  M 40.09 104.15
  Q 41.29 104.39 40.19 104.88
  Q 38.22 105.77 39.17 107.59
  Q 39.41 108.04 39.67 107.56
  L 40.15 106.69
  A 0.36 0.34 38.6 0 1 40.72 106.64
  C 42.81 108.97 42.46 103.50 40.19 102.59
  A 0.80 0.54 21.1 0 0 39.24 102.81
  Q 38.84 103.90 40.09 104.15
  Z"
/>
<path fill="#f3d1a0" d="
  M 87.35 100.10
  C 95.07 99.66 93.63 110.84 87.38 109.68
  A 0.70 0.64 -85.1 0 1 86.86 109.00
  L 86.76 100.75
  A 0.65 0.63 88.1 0 1 87.35 100.10
  Z
  M 89.85 106.70
  Q 89.96 107.35 90.43 107.82
  A 0.47 0.28 -61.0 0 0 90.98 107.50
  Q 91.80 105.48 89.83 104.91
  Q 89.19 104.73 89.85 104.27
  Q 92.25 102.62 89.56 102.67
  A 1.08 0.84 13.8 0 0 88.78 103.02
  Q 87.26 105.02 88.11 107.34
  Q 88.30 107.84 88.61 107.29
  Q 88.87 106.81 89.25 106.54
  A 0.40 0.33 -24.8 0 1 89.85 106.70
  Z"
/>
<path fill="#4d3c5d" d="
  M 40.09 104.15
  Q 38.84 103.90 39.24 102.81
  A 0.80 0.54 21.1 0 1 40.19 102.59
  C 42.46 103.50 42.81 108.97 40.72 106.64
  A 0.36 0.34 38.6 0 0 40.15 106.69
  L 39.67 107.56
  Q 39.41 108.04 39.17 107.59
  Q 38.22 105.77 40.19 104.88
  Q 41.29 104.39 40.09 104.15
  Z"
/>
<path fill="#4d3c5d" d="
  M 89.25 106.54
  Q 88.87 106.81 88.61 107.29
  Q 88.30 107.84 88.11 107.34
  Q 87.26 105.02 88.78 103.02
  A 1.08 0.84 13.8 0 1 89.56 102.67
  Q 92.25 102.62 89.85 104.27
  Q 89.19 104.73 89.83 104.91
  Q 91.80 105.48 90.98 107.50
  A 0.47 0.28 -61.0 0 1 90.43 107.82
  Q 89.96 107.35 89.85 106.70
  A 0.40 0.33 -24.8 0 0 89.25 106.54
  Z"
/>
<path fill="#4d3c5d" d="
  M 57.48 111.25
  Q 56.32 110.56 56.58 109.97
  Q 54.91 105.96 52.06 108.90
  A 1.28 0.90 73.9 0 0 51.77 109.75
  Q 51.80 111.13 50.29 111.00
  C 48.37 105.38 56.70 103.36 58.31 109.17
  Q 58.71 110.64 57.48 111.25
  Z"
/>
<path fill="#4d3c5d" d="
  M 79.75 110.96
  C 76.90 111.74 78.80 106.36 74.51 108.10
  A 1.33 1.30 1.6 0 0 73.82 108.74
  L 72.71 111.00
  C 69.11 111.10 72.83 102.87 78.58 106.63
  Q 80.67 108.00 79.75 110.96
  Z"
/>
<path fill="#ffe6be" d="
  M 57.48 111.25
  Q 55.31 114.18 51.79 113.98
  Q 48.16 113.77 50.29 111.00
  Q 51.80 111.13 51.77 109.75
  A 1.28 0.90 73.9 0 1 52.06 108.90
  Q 54.91 105.96 56.58 109.97
  Q 56.32 110.56 57.48 111.25
  Z"
/>
<path fill="#ffe6be" d="
  M 79.75 110.96
  C 83.38 114.58 75.34 114.60 72.71 111.00
  L 73.82 108.74
  A 1.33 1.30 1.6 0 1 74.51 108.10
  C 78.80 106.36 76.90 111.74 79.75 110.96
  Z"
/>
<path fill="#4d3c5d" d="
  M 319.49 113.25
  A 1.89 1.69 -1.8 0 1 321.27 111.55
  C 326.26 111.27 332.99 110.77 334.31 117.15
  C 336.35 126.99 328.94 127.85 321.68 127.74
  Q 319.48 127.70 319.48 125.52
  L 319.49 113.25
  Z
  M 322.51 124.80
  C 329.39 126.71 336.14 120.82 329.87 114.82
  A 1.41 1.34 67.2 0 0 329.01 114.44
  L 322.50 114.03
  A 0.47 0.47 1.7 0 0 322.00 114.50
  L 322.00 124.25
  A 0.69 0.53 9.6 0 0 322.51 124.80
  Z"
/>
<path fill="#c78d59" d="
  M 48.00 125.46
  Q 46.21 125.50 46.50 127.21
  Q 44.44 129.30 46.71 131.00
  Q 47.33 134.21 49.69 136.36
  A 1.41 1.31 -21.1 0 0 50.56 136.71
  L 51.71 136.75
  Q 52.07 142.54 53.04 137.75
  L 54.25 137.46
  Q 55.93 138.73 56.04 136.50
  C 60.11 135.03 59.52 131.97 59.75 128.54
  Q 65.93 131.03 71.75 127.71
  Q 78.22 130.30 83.94 125.94
  Q 85.04 125.09 84.79 126.75
  Q 84.47 127.82 85.03 128.39
  A 0.42 0.39 -55.4 0 0 85.68 128.24
  Q 86.60 126.36 85.50 124.46
  L 85.34 122.54
  Q 87.38 117.93 86.82 112.80
  A 0.73 0.47 85.5 0 1 87.25 112.00
  L 88.99 112.00
  A 0.76 0.44 -87.3 0 1 89.41 112.80
  C 89.09 118.24 89.78 123.54 88.38 129.01
  Q 85.89 131.34 83.99 134.00
  C 79.16 140.81 70.65 143.81 62.50 143.79
  C 62.15 143.04 62.58 140.43 61.64 140.74
  A 0.83 0.81 -7.8 0 0 61.09 141.45
  L 60.96 143.25
  Q 52.27 142.60 46.41 136.32
  C 45.81 135.67 45.39 135.60 44.54 135.75
  C 39.46 127.97 40.63 121.26 40.39 113.04
  A 1.01 0.38 88.7 0 1 40.75 112.00
  L 42.69 112.05
  A 0.88 0.38 -87.1 0 1 43.03 112.96
  C 42.72 118.96 43.06 122.09 48.00 125.46
  Z
  M 68.04 135.44
  C 69.64 137.02 69.23 132.94 69.10 132.49
  A 0.64 0.44 73.7 0 0 68.50 132.00
  Q 68.23 132.08 68.05 132.31
  Q 66.65 134.07 68.04 135.44
  Z
  M 81.78 132.24
  Q 81.51 131.85 80.99 132.00
  A 0.82 0.28 88.2 0 0 80.76 132.75
  L 80.75 135.24
  A 0.60 0.48 87.9 0 0 81.27 135.85
  Q 81.91 135.79 82.06 134.24
  A 3.05 1.20 -76.5 0 0 81.78 132.24
  Z
  M 73.53 140.18
  Q 74.92 138.47 73.42 136.90
  A 0.33 0.33 -57.2 0 0 72.87 137.02
  Q 72.28 138.63 72.95 140.11
  A 0.35 0.34 -37.9 0 0 73.53 140.18
  Z"
/>
<path fill="#ffffff" d="
  M 329.87 114.82
  C 336.14 120.82 329.39 126.71 322.51 124.80
  A 0.69 0.53 9.6 0 1 322.00 124.25
  L 322.00 114.50
  A 0.47 0.47 1.7 0 1 322.50 114.03
  L 329.01 114.44
  A 1.41 1.34 67.2 0 1 329.87 114.82
  Z"
/>
<path fill="#d0a075" d="
  M 63.52 119.02
  Q 56.21 121.83 48.44 122.61
  Q 47.38 122.43 46.54 121.26
  A 0.38 0.37 -26.8 0 1 46.73 120.69
  C 52.00 118.91 57.45 114.60 63.03 117.42
  Q 64.22 118.02 63.52 119.02
  Z"
/>
<path fill="#d0a075" d="
  M 81.79 122.51
  Q 74.17 119.30 65.96 118.81
  C 68.90 114.20 75.94 117.44 79.66 119.63
  C 80.89 120.35 85.70 120.40 81.79 122.51
  Z"
/>
<path fill="#c78d59" d="
  M 81.79 122.51
  C 76.68 127.01 68.95 124.70 65.96 118.81
  Q 74.17 119.30 81.79 122.51
  Z"
/>
<path fill="#c78d59" d="
  M 63.52 119.02
  C 61.36 124.81 53.12 126.49 48.44 122.61
  Q 56.21 121.83 63.52 119.02
  Z"
/>
<path fill="#9f7046" d="
  M 85.34 122.54
  L 85.50 124.46
  Q 84.81 125.45 84.79 126.75
  Q 85.04 125.09 83.94 125.94
  Q 78.22 130.30 71.75 127.71
  Q 72.36 126.69 73.25 126.75
  Q 80.38 127.23 85.34 122.54
  Z"
/>
<path fill="#4d3c5d" d="
  M 580.44 134.55
  A 11.63 11.63 0.0 0 1 568.81 146.18
  A 11.63 11.63 0.0 0 1 557.18 134.55
  A 11.63 11.63 0.0 0 1 568.81 122.92
  A 11.63 11.63 0.0 0 1 580.44 134.55
  Z
  M 577.69 134.56
  A 8.89 8.89 0.0 0 0 568.80 125.67
  A 8.89 8.89 0.0 0 0 559.91 134.56
  A 8.89 8.89 0.0 0 0 568.80 143.45
  A 8.89 8.89 0.0 0 0 577.69 134.56
  Z"
/>
<path fill="#4d3c5d" d="
  M 85.50 124.46
  Q 86.60 126.36 85.68 128.24
  A 0.42 0.39 -55.4 0 1 85.03 128.39
  Q 84.47 127.82 84.79 126.75
  Q 84.81 125.45 85.50 124.46
  Z"
/>
<path fill="#ef6d66" d="
  M 69.47 125.71
  Q 70.05 126.25 68.96 126.72
  Q 64.26 128.77 60.55 126.46
  C 59.42 125.76 60.59 125.30 61.22 125.39
  Q 64.86 125.86 68.58 125.49
  A 1.27 0.82 -18.8 0 1 69.47 125.71
  Z"
/>
<path fill="#d0a075" d="
  M 48.00 125.46
  L 48.54 125.75
  C 48.69 127.95 55.61 128.67 57.19 128.61
  A 1.15 0.20 -39.7 0 0 57.95 128.17
  Q 58.15 128.02 58.50 127.96
  L 59.75 128.54
  C 59.52 131.97 60.11 135.03 56.04 136.50
  C 55.74 131.85 54.25 134.06 54.25 136.16
  Q 54.25 136.81 54.25 137.46
  L 53.04 137.75
  Q 53.11 134.86 51.71 136.75
  L 50.56 136.71
  A 1.41 1.31 -21.1 0 1 49.69 136.36
  Q 47.33 134.21 46.71 131.00
  Q 47.59 129.02 46.50 127.21
  Q 46.21 125.50 48.00 125.46
  Z"
/>
<path fill="#ae7b4d" d="
  M 48.54 125.75
  Q 52.31 126.82 56.19 126.60
  A 1.49 1.04 53.4 0 1 57.06 126.89
  L 58.50 127.96
  Q 58.15 128.02 57.95 128.17
  A 1.15 0.20 -39.7 0 1 57.19 128.61
  C 55.61 128.67 48.69 127.95 48.54 125.75
  Z"
/>
<circle fill="#ffffff" cx="568.80" cy="134.56" r="8.89"/>
<path fill="#4d3c5d" d="
  M 46.50 127.21
  Q 47.59 129.02 46.71 131.00
  Q 44.44 129.30 46.50 127.21
  Z"
/>
<path fill="#ae7b4d" d="
  M 88.38 129.01
  C 81.58 148.95 56.77 153.31 44.54 135.75
  C 45.39 135.60 45.81 135.67 46.41 136.32
  Q 52.27 142.60 60.96 143.25
  Q 61.29 145.57 62.50 143.79
  C 70.65 143.81 79.16 140.81 83.99 134.00
  Q 85.89 131.34 88.38 129.01
  Z"
/>
<path fill="#4d3c5d" d="
  M 69.10 132.49
  C 69.23 132.94 69.64 137.02 68.04 135.44
  Q 66.65 134.07 68.05 132.31
  Q 68.23 132.08 68.50 132.00
  A 0.64 0.44 73.7 0 1 69.10 132.49
  Z"
/>
<path fill="#4d3c5d" d="
  M 81.78 132.24
  A 3.05 1.20 -76.5 0 1 82.06 134.24
  Q 81.91 135.79 81.27 135.85
  A 0.60 0.48 87.9 0 1 80.75 135.24
  L 80.76 132.75
  A 0.82 0.28 88.2 0 1 80.99 132.00
  Q 81.51 131.85 81.78 132.24
  Z"
/>
<path fill="#4d3c5d" d="
  M 56.04 136.50
  Q 55.93 138.73 54.25 137.46
  Q 54.25 136.81 54.25 136.16
  C 54.25 134.06 55.74 131.85 56.04 136.50
  Z"
/>
<path fill="#4d3c5d" d="
  M 53.04 137.75
  Q 52.07 142.54 51.71 136.75
  Q 53.11 134.86 53.04 137.75
  Z"
/>
<path fill="#4d3c5d" d="
  M 72.95 140.11
  Q 72.28 138.63 72.87 137.02
  A 0.33 0.33 -57.2 0 1 73.42 136.90
  Q 74.92 138.47 73.53 140.18
  A 0.35 0.34 -37.9 0 1 72.95 140.11
  Z"
/>
<path fill="#4d3c5d" d="
  M 62.50 143.79
  Q 61.29 145.57 60.96 143.25
  L 61.09 141.45
  A 0.83 0.81 -7.8 0 1 61.64 140.74
  C 62.58 140.43 62.15 143.04 62.50 143.79
  Z"
/>
</svg>
