<?xml version="1.0" encoding="UTF-8" standalone="no"?>
<!DOCTYPE svg PUBLIC "-//W3C//DTD SVG 1.1//EN" "http://www.w3.org/Graphics/SVG/1.1/DTD/svg11.dtd">
<svg xmlns="http://www.w3.org/2000/svg" version="1.1" viewBox="0 0 600 200">
<g stroke-width="2.00" fill="none" stroke-linecap="butt">
<path stroke="#746f82" stroke-opacity="0.988" vector-effect="non-scaling-stroke" d="
  M 94.21 92.75
  Q 91.82 93.96 94.25 95.29"
/>
<path stroke="#746f82" stroke-opacity="0.988" vector-effect="non-scaling-stroke" d="
  M 93.29 96.75
  Q 93.49 95.99 93.15 95.55
  A 0.50 0.38 -49.6 0 0 92.44 95.70
  Q 91.28 97.54 93.03 98.42
  Q 93.45 98.64 92.75 98.85
  Q 92.46 98.93 92.25 99.16
  A 0.59 0.48 41.3 0 0 92.38 99.95
  Q 95.47 102.44 93.78 106.48
  A 0.38 0.38 -76.2 0 0 94.10 107.01
  L 94.59 107.04"
/>
<path stroke="#f1d2a0" vector-effect="non-scaling-stroke" d="
  M 414.71 68.25
  Q 414.08 70.18 412.50 68.79"
/>
<path stroke="#f1d2a0" vector-effect="non-scaling-stroke" d="
  M 412.54 131.25
  L 413.75 129.10
  A 0.22 0.17 -51.2 0 1 414.07 129.03
  L 414.27 129.28
  Q 414.53 129.61 414.54 129.20
  L 414.71 96.00"
/>
<path stroke="#88635b" vector-effect="non-scaling-stroke" d="
  M 34.46 80.00
  Q 33.57 89.64 39.08 97.47
  A 1.00 0.29 56.8 0 0 39.75 98.04
  L 42.50 97.73
  A 0.83 0.73 -89.6 0 0 43.16 96.98
  Q 44.18 85.77 53.71 79.91
  A 3.01 2.87 40.8 0 1 56.45 79.77
  Q 59.29 81.06 62.28 82.18
  C 68.49 84.51 72.26 76.45 77.41 80.73"
/>
<path stroke="#805d57" vector-effect="non-scaling-stroke" d="
  M 77.41 80.73
  Q 85.72 86.89 86.73 97.01
  A 0.83 0.54 87.8 0 0 87.24 97.73
  L 89.68 97.99
  A 1.07 0.31 -70.8 0 0 90.27 97.15
  C 94.13 86.80 93.08 75.35 82.40 69.81"
/>
<path stroke="#88635b" vector-effect="non-scaling-stroke" d="
  M 82.40 69.81
  Q 75.14 65.43 66.55 66.00"
/>
<path stroke="#8d6d69" vector-effect="non-scaling-stroke" d="
  M 66.55 66.00
  C 58.37 65.38 49.73 65.09 44.90 57.37
  A 0.43 0.43 51.6 0 0 44.22 57.29
  Q 35.16 66.72 34.46 80.00"
/>
<path stroke="#cc9767" vector-effect="non-scaling-stroke" d="
  M 66.55 66.00
  Q 59.95 68.04 53.08 67.45
  C 51.09 67.27 48.75 66.48 47.05 65.64
  Q 45.49 64.87 44.18 66.03
  Q 37.97 71.53 36.03 79.10
  C 35.88 79.66 35.06 80.63 34.46 80.00"
/>
<path stroke="#bf8755" vector-effect="non-scaling-stroke" d="
  M 82.40 69.81
  Q 85.88 78.24 77.41 80.73"
/>
<path stroke="#a48a82" vector-effect="non-scaling-stroke" d="
  M 66.00 84.96
  Q 62.14 84.82 58.75 82.96"
/>
<path stroke="#907976" vector-effect="non-scaling-stroke" d="
  M 58.75 82.96
  Q 57.26 82.08 55.55 81.86
  A 1.60 1.44 -53.5 0 0 54.62 82.05
  Q 48.02 85.66 45.72 93.37"
/>
<path stroke="#a48a82" vector-effect="non-scaling-stroke" d="
  M 45.72 93.37
  Q 44.91 105.73 45.25 118.09
  A 0.75 0.74 -10.4 0 0 46.24 118.77
  C 50.97 117.13 54.54 114.32 59.96 114.20
  A 0.57 0.42 -1.1 0 0 60.52 113.77
  Q 60.49 112.58 61.46 112.21
  A 0.53 0.43 68.0 0 1 62.05 112.54
  Q 64.72 118.75 67.65 112.79
  A 0.86 0.38 -66.0 0 1 68.27 112.23
  Q 69.47 112.47 69.24 113.75
  A 0.54 0.39 4.4 0 0 69.78 114.21
  C 74.75 114.38 78.78 116.97 83.26 118.76
  A 1.07 1.07 -78.9 0 0 84.73 117.77
  C 84.83 106.84 87.14 92.78 78.75 84.71"
/>
<path stroke="#907976" vector-effect="non-scaling-stroke" d="
  M 78.75 84.71
  C 74.99 78.87 70.25 83.13 66.00 84.96"
/>
<path stroke="#ebc99b" vector-effect="non-scaling-stroke" d="
  M 78.75 84.71
  Q 73.71 83.69 68.44 85.44
  Q 67.18 85.85 66.00 84.96"
/>
<path stroke="#ebc99b" vector-effect="non-scaling-stroke" d="
  M 58.75 82.96
  C 55.33 85.05 52.67 86.52 49.74 89.61
  Q 47.86 91.60 45.72 93.37"
/>
<path stroke="#745552" vector-effect="non-scaling-stroke" d="
  M 40.04 101.25
  Q 39.78 102.46 39.36 101.71
  A 0.79 0.56 70.2 0 0 38.75 101.29
  Q 37.68 101.35 37.75 102.71"
/>
<path stroke="#a48a82" vector-effect="non-scaling-stroke" d="
  M 37.75 102.71
  C 35.57 106.09 38.67 109.71 42.21 109.88
  A 0.75 0.64 1.7 0 0 43.00 109.25
  L 43.00 100.75
  A 0.73 0.43 86.9 0 0 42.49 99.98
  L 39.76 100.56
  Q 39.35 100.65 39.76 101.01
  L 40.04 101.25"
/>
<path stroke="#cfa577" vector-effect="non-scaling-stroke" d="
  M 37.75 102.71
  L 38.21 102.75"
/>
<path stroke="#a48a82" vector-effect="non-scaling-stroke" d="
  M 38.21 102.75
  Q 38.85 103.68 39.84 104.27
  A 0.36 0.36 -52.6 0 1 39.91 104.83
  L 39.32 105.42
  A 1.25 1.10 -25.5 0 0 38.97 106.24
  Q 39.02 109.40 40.05 106.77
  Q 40.41 105.84 40.70 106.31
  L 41.16 107.07
  Q 41.53 107.66 41.74 107.10
  Q 42.77 104.33 40.50 102.46"
/>
<path stroke="#cfa577" vector-effect="non-scaling-stroke" d="
  M 40.50 102.46
  L 40.04 101.25"
/>
<path stroke="#745552" vector-effect="non-scaling-stroke" d="
  M 40.50 102.46
  Q 39.30 102.36 38.21 102.75"
/>
<path stroke="#99837c" vector-effect="non-scaling-stroke" d="
  M 87.13 109.18
  A 0.73 0.65 -0.4 0 0 87.85 109.81
  C 94.28 109.91 94.63 99.73 87.40 100.07
  A 0.58 0.52 -2.2 0 0 86.85 100.60
  L 87.13 109.18"
/>
<path stroke="#7c5a55" vector-effect="non-scaling-stroke" d="
  M 44.54 135.75
  C 51.74 145.79 64.02 149.51 75.25 144.48
  Q 84.49 140.35 88.01 129.42"
/>
<path stroke="#88635b" vector-effect="non-scaling-stroke" d="
  M 88.01 129.42
  Q 90.45 121.33 89.13 112.55
  A 0.66 0.63 -3.6 0 0 88.49 112.01
  L 87.25 112.00
  A 0.52 0.45 87.6 0 0 86.81 112.56
  Q 87.26 117.62 85.56 122.25"
/>
<path stroke="#745552" vector-effect="non-scaling-stroke" d="
  M 85.56 122.25
  Q 80.69 127.30 73.95 126.64
  C 72.95 126.54 72.30 126.98 71.75 127.71"
/>
<path stroke="#88635b" vector-effect="non-scaling-stroke" d="
  M 71.75 127.71
  Q 65.83 131.13 59.56 128.32"
/>
<path stroke="#8d6d69" vector-effect="non-scaling-stroke" d="
  M 59.56 128.32
  Q 54.02 126.32 48.00 125.46"
/>
<path stroke="#88635b" vector-effect="non-scaling-stroke" d="
  M 48.00 125.46
  C 43.07 122.04 42.65 118.69 43.03 112.99
  A 0.94 0.48 -83.4 0 0 42.69 112.08
  Q 41.59 111.78 40.56 111.99
  A 1.07 0.29 86.6 0 0 40.34 113.04
  C 40.80 121.33 39.43 127.92 44.54 135.75"
/>
<path stroke="#cc9767" vector-effect="non-scaling-stroke" d="
  M 48.00 125.46
  Q 46.80 125.79 46.46 127.00"
/>
<path stroke="#88635b" vector-effect="non-scaling-stroke" d="
  M 46.46 127.00
  Q 44.30 129.31 46.71 131.00"
/>
<path stroke="#cc9767" vector-effect="non-scaling-stroke" d="
  M 46.71 131.00
  Q 47.23 135.83 51.58 136.69"
/>
<path stroke="#88635b" vector-effect="non-scaling-stroke" d="
  M 51.58 136.69
  L 51.78 138.49
  A 1.31 0.53 -88.8 0 0 52.11 139.35
  Q 53.30 140.38 53.04 137.75"
/>
<path stroke="#cc9767" vector-effect="non-scaling-stroke" d="
  M 53.04 137.75
  L 54.21 137.25"
/>
<path stroke="#88635b" vector-effect="non-scaling-stroke" d="
  M 54.21 137.25
  Q 55.66 138.96 56.04 136.75"
/>
<path stroke="#cc9767" vector-effect="non-scaling-stroke" d="
  M 56.04 136.75
  Q 60.82 134.27 59.56 128.32"
/>
<path stroke="#b37f50" vector-effect="non-scaling-stroke" d="
  M 71.75 127.71
  Q 78.38 130.31 83.85 126.07
  A 0.77 0.46 -39.4 0 1 84.70 125.94
  Q 84.93 126.19 84.79 126.75"
/>
<path stroke="#88635b" vector-effect="non-scaling-stroke" d="
  M 84.79 126.75
  Q 84.36 128.14 85.19 128.39
  A 0.60 0.52 -73.7 0 0 85.85 127.96
  Q 86.34 126.23 85.71 124.50"
/>
<path stroke="#b37f50" vector-effect="non-scaling-stroke" d="
  M 85.71 124.50
  L 85.56 122.25"
/>
<path stroke="#bb8453" vector-effect="non-scaling-stroke" d="
  M 88.01 129.42
  Q 79.27 143.04 63.27 143.99
  Q 62.75 144.43 62.54 143.75"
/>
<path stroke="#88635b" vector-effect="non-scaling-stroke" d="
  M 62.54 143.75
  Q 61.79 137.82 60.96 143.25"
/>
<path stroke="#bb8453" vector-effect="non-scaling-stroke" d="
  M 60.96 143.25
  L 60.64 143.31
  Q 60.34 143.36 59.99 143.32
  Q 51.98 142.26 46.78 136.27
  A 1.43 0.96 62.7 0 0 45.91 135.79
  L 44.54 135.75"
/>
<path stroke="#8d6d69" vector-effect="non-scaling-stroke" d="
  M 56.04 136.75
  Q 54.77 130.40 54.21 137.25"
/>
<path stroke="#8d6d69" vector-effect="non-scaling-stroke" d="
  M 53.04 137.75
  Q 53.25 135.10 51.58 136.69"
/>
<path stroke="#8d6d69" vector-effect="non-scaling-stroke" d="
  M 46.71 131.00
  Q 47.59 128.90 46.46 127.00"
/>
<path stroke="#7c5a55" vector-effect="non-scaling-stroke" d="
  M 60.96 143.25
  Q 61.23 145.63 62.54 143.75"
/>
<path stroke="#745552" vector-effect="non-scaling-stroke" d="
  M 85.71 124.50
  Q 84.73 125.33 84.79 126.75"
/>
<path stroke="#88635b" vector-effect="non-scaling-stroke" d="
  M 48.22 122.66
  Q 57.81 128.30 63.85 118.94"
/>
<path stroke="#8d6d69" vector-effect="non-scaling-stroke" d="
  M 63.85 118.94
  C 60.73 113.88 53.58 117.61 49.54 119.72
  C 48.37 120.33 43.84 120.47 48.22 122.66"
/>
<path stroke="#cc9767" vector-effect="non-scaling-stroke" d="
  M 63.85 118.94
  Q 55.86 121.87 48.22 122.66"
/>
<path stroke="#88635b" vector-effect="non-scaling-stroke" d="
  M 65.86 119.19
  Q 73.91 129.49 83.21 121.39
  Q 83.67 120.99 83.13 120.84
  L 81.04 120.25"
/>
<path stroke="#8d6d69" vector-effect="non-scaling-stroke" d="
  M 81.04 120.25
  Q 75.86 117.36 72.01 116.50
  Q 67.54 115.50 65.86 119.19"
/>
<path stroke="#cc9767" vector-effect="non-scaling-stroke" d="
  M 81.04 120.25
  Q 80.78 120.95 80.22 121.28
  A 1.31 0.83 31.1 0 1 79.28 121.30
  Q 72.78 119.11 65.86 119.19"
/>
<path stroke="#745552" vector-effect="non-scaling-stroke" d="
  M 64.07 123.41
  Q 64.92 124.06 65.77 123.54
  A 0.84 0.46 55.0 0 0 65.66 122.56
  Q 64.59 121.08 63.94 122.96
  A 0.41 0.41 -61.2 0 0 64.07 123.41"
/>
<path stroke="#9c5362" vector-effect="non-scaling-stroke" d="
  M 68.58 125.49
  L 61.13 125.36
  A 0.90 0.87 -64.3 0 0 60.56 125.57
  L 60.43 125.69
  A 0.41 0.36 -49.1 0 0 60.43 126.31
  Q 64.78 128.93 69.10 126.62
  Q 69.97 126.15 69.49 125.71
  A 1.35 0.46 -5.2 0 0 68.58 125.49"
/>
<path stroke="#88635b" vector-effect="non-scaling-stroke" d="
  M 36.51 83.62
  C 36.62 85.20 36.80 91.13 38.61 90.10
  A 0.82 0.50 75.1 0 0 38.84 89.33
  L 37.82 83.24
  A 1.14 0.30 82.7 0 0 37.44 82.31
  Q 36.86 82.10 36.56 82.57
  A 1.30 0.21 83.7 0 0 36.51 83.62"
/>
<path stroke="#88635b" vector-effect="non-scaling-stroke" d="
  M 39.89 91.81
  Q 39.90 91.19 39.30 90.94
  A 0.41 0.40 -77.9 0 0 38.75 91.31
  Q 38.71 92.25 39.31 92.35
  A 0.54 0.50 -85.9 0 0 39.89 91.81"
/>
<path stroke="#805d57" vector-effect="non-scaling-stroke" d="
  M 88.1302 77.0313
  A 0.60 0.60 0.0 0 0 87.3328 76.7411
  L 87.2603 76.7749
  A 0.60 0.60 0.0 0 0 86.9701 77.5722
  L 88.6098 81.0887
  A 0.60 0.60 0.0 0 0 89.4072 81.3789
  L 89.4797 81.3451
  A 0.60 0.60 0.0 0 0 89.7699 80.5478
  L 88.1302 77.0313"
/>
<path stroke="#a48a82" vector-effect="non-scaling-stroke" d="
  M 60.3476 97.5154
  A 3.45 3.45 0.0 0 0 56.3315 94.7448
  L 50.8235 95.7557
  A 3.45 3.45 0.0 0 0 48.0530 99.7719
  L 48.1324 100.2046
  A 3.45 3.45 0.0 0 0 52.1485 102.9752
  L 57.6565 101.9643
  A 3.45 3.45 0.0 0 0 60.4270 97.9481
  L 60.3476 97.5154"
/>
<path stroke="#a48a82" vector-effect="non-scaling-stroke" d="
  M 81.9043 99.9260
  A 3.45 3.45 0.0 0 0 79.2256 95.8481
  L 73.7028 94.7044
  A 3.45 3.45 0.0 0 0 69.6249 97.3831
  L 69.5357 97.8140
  A 3.45 3.45 0.0 0 0 72.2144 101.8919
  L 77.7372 103.0356
  A 3.45 3.45 0.0 0 0 81.8151 100.3569
  L 81.9043 99.9260"
/>
<path stroke="#ffe0b3" vector-effect="non-scaling-stroke" d="
  M 50.29 111.00
  Q 48.97 111.94 49.75 113.11
  A 1.42 1.11 -3.8 0 0 50.53 113.64
  Q 54.74 114.71 57.41 111.21"
/>
<path stroke="#a48a82" vector-effect="non-scaling-stroke" d="
  M 57.41 111.21
  Q 59.04 110.53 58.46 109.03
  C 56.21 103.19 48.16 105.81 50.29 111.00"
/>
<path stroke="#a4908e" vector-effect="non-scaling-stroke" d="
  M 57.41 111.21
  Q 56.28 110.17 56.06 109.00
  A 1.25 0.71 89.1 0 0 55.58 108.18
  Q 53.37 107.04 51.97 108.99
  A 1.57 0.38 89.2 0 0 51.74 109.99
  Q 51.68 111.13 50.29 111.00"
/>
<path stroke="#ffe0b3" vector-effect="non-scaling-stroke" d="
  M 72.60 111.14
  Q 74.35 113.16 76.94 113.81
  C 78.82 114.28 82.19 113.53 80.00 110.71"
/>
<path stroke="#a48a82" vector-effect="non-scaling-stroke" d="
  M 80.00 110.71
  C 80.45 105.00 73.14 103.72 71.29 109.04
  Q 70.63 110.94 72.60 111.14"
/>
<path stroke="#a4908e" vector-effect="non-scaling-stroke" d="
  M 80.00 110.71
  C 77.09 112.61 78.90 106.32 74.50 108.10
  A 1.44 1.23 -84.2 0 0 73.82 108.75
  L 72.60 111.14"
/>
<path stroke="#8d6d69" vector-effect="non-scaling-stroke" d="
  M 58.3470 97.9843
  A 1.59 1.59 0.0 0 0 56.4828 96.7269
  L 51.2999 97.7344
  A 1.59 1.59 0.0 0 0 50.0425 99.5986
  L 50.0730 99.7557
  A 1.59 1.59 0.0 0 0 51.9372 101.0131
  L 57.1201 100.0056
  A 1.59 1.59 0.0 0 0 58.3775 98.1414
  L 58.3470 97.9843"
/>
<path stroke="#8d6d69" vector-effect="non-scaling-stroke" d="
  M 79.9702 99.4953
  A 1.55 1.55 0.0 0 0 78.7097 97.7019
  L 73.3507 96.7666
  A 1.55 1.55 0.0 0 0 71.5573 98.0271
  L 71.5298 98.1847
  A 1.55 1.55 0.0 0 0 72.7903 99.9781
  L 78.1493 100.9134
  A 1.55 1.55 0.0 0 0 79.9427 99.6529
  L 79.9702 99.4953"
/>
<path stroke="#99837c" vector-effect="non-scaling-stroke" d="
  M 89.87 104.15
  Q 91.98 102.79 89.55 102.48
  A 1.06 0.58 -63.1 0 0 88.75 103.03
  Q 87.50 104.95 88.08 107.19
  Q 88.25 107.88 88.68 107.13
  C 89.99 104.85 89.81 107.53 90.50 107.89
  A 0.47 0.32 -72.6 0 0 91.00 107.50
  Q 91.41 105.69 89.93 104.74
  A 0.38 0.33 43.1 0 1 89.87 104.15"
/>
<path stroke="#88635b" vector-effect="non-scaling-stroke" d="
  M 68.6100 135.8600
  A 1.99 0.69 90.0 0 0 69.3000 133.8700
  A 1.99 0.69 90.0 0 0 68.6100 131.8800
  A 1.99 0.69 90.0 0 0 67.9200 133.8700
  A 1.99 0.69 90.0 0 0 68.6100 135.8600"
/>
<path stroke="#88635b" vector-effect="non-scaling-stroke" d="
  M 81.25 135.89
  C 82.45 136.07 82.19 131.90 81.27 131.95
  A 0.55 0.54 88.9 0 0 80.75 132.50
  L 80.75 135.25
  A 0.66 0.58 -86.5 0 0 81.25 135.89"
/>
<path stroke="#88635b" vector-effect="non-scaling-stroke" d="
  M 73.2948 140.7199
  A 2.12 0.80 89.6 0 0 74.0800 138.5944
  A 2.12 0.80 89.6 0 0 73.2652 136.4801
  A 2.12 0.80 89.6 0 0 72.4800 138.6056
  A 2.12 0.80 89.6 0 0 73.2948 140.7199"
/>
</g>
<path fill="#49395d" d="
  M 94.21 92.75
  Q 91.82 93.96 94.25 95.29
  Q 93.31 95.63 93.29 96.75
  Q 93.49 95.99 93.15 95.55
  A 0.50 0.38 -49.6 0 0 92.44 95.70
  Q 91.28 97.54 93.03 98.42
  Q 93.45 98.64 92.75 98.85
  Q 92.46 98.93 92.25 99.16
  A 0.59 0.48 41.3 0 0 92.38 99.95
  Q 95.47 102.44 93.78 106.48
  A 0.38 0.38 -76.2 0 0 94.10 107.01
  L 94.59 107.04
  L 91.46 111.56
  A 1.56 1.49 62.1 0 0 91.20 112.48
  Q 91.64 125.37 90.99 127.74
  C 86.48 144.15 70.60 152.91 54.68 146.60
  Q 53.33 146.07 51.26 144.24
  C 49.49 142.68 47.42 142.21 45.80 140.66
  C 38.19 133.33 37.75 122.84 38.40 112.84
  Q 38.48 111.47 37.21 110.04
  Q 32.75 105.01 37.11 99.82
  A 1.24 1.03 50.3 0 0 37.11 98.48
  C 28.98 85.61 31.64 64.22 44.43 54.98
  A 1.21 1.21 -29.0 0 1 46.26 55.50
  C 49.55 63.57 59.27 63.52 66.75 63.65
  Q 77.70 63.84 85.65 69.35
  C 94.02 75.17 94.72 82.91 94.21 92.75
  Z
  M 34.46 80.00
  Q 33.57 89.64 39.08 97.47
  A 1.00 0.29 56.8 0 0 39.75 98.04
  L 42.50 97.73
  A 0.83 0.73 -89.6 0 0 43.16 96.98
  Q 44.18 85.77 53.71 79.91
  A 3.01 2.87 40.8 0 1 56.45 79.77
  Q 59.29 81.06 62.28 82.18
  C 68.49 84.51 72.26 76.45 77.41 80.73
  Q 85.72 86.89 86.73 97.01
  A 0.83 0.54 87.8 0 0 87.24 97.73
  L 89.68 97.99
  A 1.07 0.31 -70.8 0 0 90.27 97.15
  C 94.13 86.80 93.08 75.35 82.40 69.81
  Q 75.14 65.43 66.55 66.00
  C 58.37 65.38 49.73 65.09 44.90 57.37
  A 0.43 0.43 51.6 0 0 44.22 57.29
  Q 35.16 66.72 34.46 80.00
  Z
  M 66.00 84.96
  Q 62.14 84.82 58.75 82.96
  Q 57.26 82.08 55.55 81.86
  A 1.60 1.44 -53.5 0 0 54.62 82.05
  Q 48.02 85.66 45.72 93.37
  Q 44.91 105.73 45.25 118.09
  A 0.75 0.74 -10.4 0 0 46.24 118.77
  C 50.97 117.13 54.54 114.32 59.96 114.20
  A 0.57 0.42 -1.1 0 0 60.52 113.77
  Q 60.49 112.58 61.46 112.21
  A 0.53 0.43 68.0 0 1 62.05 112.54
  Q 64.72 118.75 67.65 112.79
  A 0.86 0.38 -66.0 0 1 68.27 112.23
  Q 69.47 112.47 69.24 113.75
  A 0.54 0.39 4.4 0 0 69.78 114.21
  C 74.75 114.38 78.78 116.97 83.26 118.76
  A 1.07 1.07 -78.9 0 0 84.73 117.77
  C 84.83 106.84 87.14 92.78 78.75 84.71
  C 74.99 78.87 70.25 83.13 66.00 84.96
  Z
  M 40.04 101.25
  Q 39.78 102.46 39.36 101.71
  A 0.79 0.56 70.2 0 0 38.75 101.29
  Q 37.68 101.35 37.75 102.71
  C 35.57 106.09 38.67 109.71 42.21 109.88
  A 0.75 0.64 1.7 0 0 43.00 109.25
  L 43.00 100.75
  A 0.73 0.43 86.9 0 0 42.49 99.98
  L 39.76 100.56
  Q 39.35 100.65 39.76 101.01
  L 40.04 101.25
  Z
  M 87.13 109.18
  A 0.73 0.65 -0.4 0 0 87.85 109.81
  C 94.28 109.91 94.63 99.73 87.40 100.07
  A 0.58 0.52 -2.2 0 0 86.85 100.60
  L 87.13 109.18
  Z
  M 44.54 135.75
  C 51.74 145.79 64.02 149.51 75.25 144.48
  Q 84.49 140.35 88.01 129.42
  Q 90.45 121.33 89.13 112.55
  A 0.66 0.63 -3.6 0 0 88.49 112.01
  L 87.25 112.00
  A 0.52 0.45 87.6 0 0 86.81 112.56
  Q 87.26 117.62 85.56 122.25
  Q 80.69 127.30 73.95 126.64
  C 72.95 126.54 72.30 126.98 71.75 127.71
  Q 65.83 131.13 59.56 128.32
  Q 54.02 126.32 48.00 125.46
  C 43.07 122.04 42.65 118.69 43.03 112.99
  A 0.94 0.48 -83.4 0 0 42.69 112.08
  Q 41.59 111.78 40.56 111.99
  A 1.07 0.29 86.6 0 0 40.34 113.04
  C 40.80 121.33 39.43 127.92 44.54 135.75
  Z
  M 48.22 122.66
  Q 57.81 128.30 63.85 118.94
  C 60.73 113.88 53.58 117.61 49.54 119.72
  C 48.37 120.33 43.84 120.47 48.22 122.66
  Z
  M 65.86 119.19
  Q 73.91 129.49 83.21 121.39
  Q 83.67 120.99 83.13 120.84
  L 81.04 120.25
  Q 75.86 117.36 72.01 116.50
  Q 67.54 115.50 65.86 119.19
  Z
  M 64.07 123.41
  Q 64.92 124.06 65.77 123.54
  A 0.84 0.46 55.0 0 0 65.66 122.56
  Q 64.59 121.08 63.94 122.96
  A 0.41 0.41 -61.2 0 0 64.07 123.41
  Z
  M 68.58 125.49
  L 61.13 125.36
  A 0.90 0.87 -64.3 0 0 60.56 125.57
  L 60.43 125.69
  A 0.41 0.36 -49.1 0 0 60.43 126.31
  Q 64.78 128.93 69.10 126.62
  Q 69.97 126.15 69.49 125.71
  A 1.35 0.46 -5.2 0 0 68.58 125.49
  Z"
/>
<path fill="#d0a075" d="
  M 66.55 66.00
  Q 59.95 68.04 53.08 67.45
  C 51.09 67.27 48.75 66.48 47.05 65.64
  Q 45.49 64.87 44.18 66.03
  Q 37.97 71.53 36.03 79.10
  C 35.88 79.66 35.06 80.63 34.46 80.00
  Q 35.16 66.72 44.22 57.29
  A 0.43 0.43 51.6 0 1 44.90 57.37
  C 49.73 65.09 58.37 65.38 66.55 66.00
  Z"
/>
<path fill="#c78d59" d="
  M 66.55 66.00
  Q 75.14 65.43 82.40 69.81
  Q 85.88 78.24 77.41 80.73
  C 72.26 76.45 68.49 84.51 62.28 82.18
  Q 59.29 81.06 56.45 79.77
  A 3.01 2.87 40.8 0 0 53.71 79.91
  Q 44.18 85.77 43.16 96.98
  A 0.83 0.73 -89.6 0 1 42.50 97.73
  L 39.75 98.04
  A 1.00 0.29 56.8 0 1 39.08 97.47
  Q 33.57 89.64 34.46 80.00
  C 35.06 80.63 35.88 79.66 36.03 79.10
  Q 37.97 71.53 44.18 66.03
  Q 45.49 64.87 47.05 65.64
  C 48.75 66.48 51.09 67.27 53.08 67.45
  Q 59.95 68.04 66.55 66.00
  Z
  M 36.51 83.62
  C 36.62 85.20 36.80 91.13 38.61 90.10
  A 0.82 0.50 75.1 0 0 38.84 89.33
  L 37.82 83.24
  A 1.14 0.30 82.7 0 0 37.44 82.31
  Q 36.86 82.10 36.56 82.57
  A 1.30 0.21 83.7 0 0 36.51 83.62
  Z
  M 39.89 91.81
  Q 39.90 91.19 39.30 90.94
  A 0.41 0.40 -77.9 0 0 38.75 91.31
  Q 38.71 92.25 39.31 92.35
  A 0.54 0.50 -85.9 0 0 39.89 91.81
  Z"
/>
<path fill="#f8d7a4" d="
  M 142.41 89.20
  C 142.81 90.93 144.60 92.56 146.33 93.44
  Q 155.87 98.21 164.93 103.80
  C 171.53 107.86 174.88 113.84 175.15 121.66
  C 176.31 154.93 116.78 154.52 119.37 119.54
  Q 119.57 116.83 122.32 116.84
  L 139.25 116.91
  Q 141.77 116.93 141.98 119.50
  Q 142.63 127.62 150.89 125.34
  A 1.33 0.99 -73.4 0 0 151.56 124.84
  C 153.34 122.23 151.65 120.46 149.27 119.24
  C 136.98 112.99 123.05 107.60 120.24 94.44
  C 112.12 56.37 178.40 55.57 174.79 92.21
  Q 174.54 94.73 172.01 94.74
  Q 164.50 94.76 157.00 94.75
  C 153.59 94.75 151.40 93.68 152.02 89.93
  A 1.62 0.71 -69.9 0 0 151.96 89.00
  Q 149.85 84.60 144.73 85.67
  Q 141.74 86.29 142.41 89.20
  Z
  M 149.58 116.57
  C 165.89 124.52 141.06 136.75 139.32 120.18
  A 0.75 0.55 86.2 0 0 138.75 119.50
  L 122.75 119.50
  A 0.72 0.63 -86.5 0 0 122.11 120.14
  C 118.65 149.84 172.95 152.20 172.70 122.32
  C 172.57 106.97 156.39 101.69 145.30 95.73
  C 133.41 89.34 143.67 78.15 151.96 84.82
  Q 154.67 87.00 154.88 91.41
  A 0.62 0.61 -1.0 0 0 155.50 92.00
  L 171.50 92.00
  A 0.70 0.66 -86.6 0 0 172.16 91.38
  C 174.63 68.15 141.73 61.09 127.75 74.90
  C 117.94 84.59 121.38 99.98 132.55 107.45
  Q 137.10 110.49 149.58 116.57
  Z"
/>
<path fill="#f8d7a4" d="
  M 202.49 95.26
  L 211.00 95.25
  A 0.75 0.50 -90.0 0 0 211.50 94.50
  L 211.50 69.25
  Q 211.50 66.04 214.50 66.04
  L 231.49 66.03
  Q 234.51 66.03 234.50 69.00
  L 234.50 143.44
  Q 234.50 145.22 232.44 145.22
  L 214.26 145.23
  Q 211.49 145.23 211.49 142.50
  L 211.50 116.25
  A 0.75 0.75 0.0 0 0 210.75 115.50
  L 202.50 115.50
  A 0.76 0.72 -1.1 0 0 201.74 116.25
  Q 202.36 129.47 201.64 142.69
  Q 201.50 145.24 199.00 145.24
  L 181.50 145.24
  Q 178.50 145.25 178.50 142.25
  L 178.50 69.25
  Q 178.50 66.09 181.65 66.05
  C 184.77 66.01 198.54 65.19 200.60 66.68
  C 202.95 68.40 201.92 90.41 201.71 94.26
  A 0.95 0.79 -88.3 0 0 202.49 95.26
  Z
  M 199.30 96.75
  L 199.15 70.50
  A 1.76 1.63 89.8 0 0 197.52 68.75
  L 181.76 68.75
  A 0.51 0.50 -0.0 0 0 181.25 69.25
  L 181.25 142.25
  A 0.50 0.50 0.0 0 0 181.75 142.75
  L 198.75 142.75
  A 0.55 0.51 88.9 0 0 199.26 142.18
  Q 198.73 128.22 199.37 114.25
  A 1.37 1.30 1.5 0 1 200.75 113.01
  L 212.24 113.02
  A 1.76 1.73 -0.0 0 1 214.00 114.75
  L 214.00 142.00
  A 0.75 0.50 90.0 0 0 214.50 142.75
  L 231.50 142.75
  A 0.50 0.50 0.0 0 0 232.00 142.25
  L 232.00 69.25
  A 0.50 0.50 0.0 0 0 231.50 68.75
  L 214.50 68.75
  A 0.51 0.50 -0.0 0 0 213.99 69.25
  L 213.96 95.68
  A 2.01 1.97 85.0 0 1 212.34 97.65
  Q 206.07 98.74 200.05 97.31
  A 0.93 0.45 10.9 0 1 199.30 96.75
  Z"
/>
<path fill="#f8d7a4" d="
  M 261.74 71.84
  C 262.32 90.35 261.56 109.71 261.78 121.00
  C 261.91 127.70 271.49 127.39 271.50 120.50
  Q 271.50 94.75 271.50 68.98
  Q 271.50 66.03 274.50 66.02
  L 291.24 66.01
  Q 294.77 66.01 294.76 69.54
  Q 294.71 90.37 294.78 111.94
  Q 294.81 123.12 293.35 127.93
  C 286.20 151.46 247.96 152.91 239.97 128.48
  Q 238.53 124.06 238.51 114.74
  Q 238.48 91.87 238.50 68.98
  Q 238.51 66.08 241.41 66.04
  Q 249.65 65.95 258.00 65.97
  C 261.97 65.97 261.64 68.57 261.74 71.84
  Z
  M 241.24 120.42
  C 241.49 141.08 264.72 149.08 280.70 140.00
  Q 292.14 133.51 292.20 117.48
  Q 292.30 93.39 292.23 69.46
  A 0.73 0.71 -0.0 0 0 291.50 68.75
  L 274.75 68.75
  A 0.52 0.47 0.0 0 0 274.23 69.22
  Q 274.30 92.91 274.21 116.54
  Q 274.19 121.55 273.50 123.48
  C 270.42 132.03 259.02 128.73 259.01 119.67
  Q 259.00 94.58 258.96 69.39
  A 0.64 0.46 90.0 0 0 258.50 68.75
  L 241.50 68.75
  A 0.49 0.48 -89.4 0 0 241.02 69.23
  Q 240.93 94.86 241.24 120.42
  Z"
/>
<path fill="#f8d7a4" d="
  M 347.06 104.07
  A 0.25 0.25 -43.7 0 0 347.05 104.46
  C 357.28 112.70 358.53 130.78 347.92 139.18
  Q 340.93 144.72 330.18 144.99
  Q 316.22 145.34 302.25 145.24
  C 299.27 145.21 298.77 143.30 298.76 140.64
  Q 298.73 105.07 298.78 69.50
  Q 298.79 66.40 301.82 66.31
  C 316.79 65.83 330.60 64.46 341.80 68.96
  C 355.19 74.34 358.67 95.17 347.06 104.07
  Z
  M 349.06 134.31
  C 354.75 126.29 353.80 111.98 345.24 106.21
  Q 342.52 104.38 345.15 102.43
  C 351.91 97.44 352.51 88.03 349.99 80.86
  C 346.99 72.37 338.32 69.08 329.80 68.90
  Q 315.93 68.60 302.05 68.80
  A 0.56 0.45 -0.6 0 0 301.50 69.25
  L 301.50 142.19
  A 0.54 0.53 90.0 0 0 302.03 142.73
  Q 314.75 142.81 327.49 142.84
  C 335.05 142.86 344.77 140.36 349.06 134.31
  Z"
/>
<path fill="#f8d7a4" d="
  M 414.71 68.25
  Q 414.08 70.18 412.50 68.79
  L 395.22 68.76
  A 0.74 0.72 90.0 0 0 394.50 69.50
  L 394.50 96.50
  A 1.25 1.21 0.2 0 1 393.24 97.71
  L 381.74 97.69
  Q 379.79 97.68 379.79 95.68
  L 379.76 69.50
  A 0.75 0.51 -90.0 0 0 379.25 68.75
  L 362.50 68.75
  A 0.75 0.75 0.0 0 0 361.75 69.50
  L 361.75 142.00
  A 0.75 0.50 90.0 0 0 362.25 142.75
  L 379.25 142.75
  A 0.75 0.50 -90.0 0 0 379.75 142.00
  L 379.75 114.75
  A 1.75 1.74 -0.0 0 1 381.50 113.01
  L 392.51 112.99
  Q 394.52 112.99 394.53 115.25
  L 394.63 142.25
  A 0.62 0.50 0.0 0 0 395.25 142.75
  L 411.75 142.75
  A 0.63 0.61 0.5 0 0 412.38 142.15
  L 412.54 131.25
  L 413.75 129.10
  A 0.22 0.17 -51.2 0 1 414.07 129.03
  L 414.27 129.28
  Q 414.53 129.61 414.54 129.20
  L 414.71 96.00
  L 414.90 142.86
  Q 414.91 145.22 412.49 145.22
  L 395.25 145.23
  Q 392.00 145.23 392.00 142.01
  L 392.00 116.25
  A 0.73 0.49 89.6 0 0 391.50 115.52
  L 382.68 115.58
  A 0.67 0.44 -90.0 0 0 382.24 116.25
  L 382.22 142.69
  Q 382.22 145.21 379.69 145.21
  L 361.75 145.25
  Q 359.02 145.25 359.01 142.45
  Q 358.98 105.84 359.01 69.24
  Q 359.01 65.82 362.66 65.97
  C 368.15 66.20 373.74 65.97 379.26 66.02
  Q 382.26 66.04 382.26 69.00
  L 382.25 94.50
  A 0.75 0.50 90.0 0 0 382.75 95.25
  L 391.49 95.25
  A 0.74 0.58 90.0 0 0 392.07 94.51
  L 392.05 68.57
  A 2.21 2.20 78.9 0 1 393.41 66.53
  C 397.12 65.02 407.65 65.96 412.05 66.06
  Q 414.39 66.11 414.71 68.25
  Z"
/>
<path fill="#f8d7a4" d="
  M 443.11 135.52
  L 441.54 142.78
  Q 441.03 145.16 438.40 145.20
  Q 429.60 145.31 420.74 145.23
  C 417.26 145.20 417.64 142.72 418.30 140.23
  Q 427.70 104.59 437.17 68.98
  Q 437.92 66.17 440.80 66.12
  Q 451.04 65.93 461.26 66.00
  Q 464.39 66.02 465.19 69.06
  Q 474.74 105.46 484.44 141.82
  Q 485.35 145.26 481.75 145.26
  L 463.76 145.24
  Q 460.92 145.23 460.37 142.59
  L 458.93 135.57
  A 0.72 0.69 83.8 0 0 458.25 135.00
  L 443.50 135.00
  A 0.63 0.33 -80.6 0 0 443.11 135.52
  Z
  M 439.85 69.35
  Q 430.61 103.56 421.65 137.22
  Q 421.00 139.67 420.63 142.21
  A 0.47 0.39 -84.4 0 0 421.00 142.75
  L 438.50 142.75
  A 0.63 0.54 5.0 0 0 439.10 142.32
  L 440.80 134.25
  Q 441.22 132.26 443.25 132.26
  L 458.75 132.25
  Q 460.66 132.25 461.12 134.17
  L 463.01 142.25
  A 0.78 0.65 -5.5 0 0 463.75 142.75
  L 481.25 142.75
  A 0.61 0.59 82.1 0 0 481.81 141.98
  L 462.65 69.57
  A 0.82 0.62 80.8 0 0 462.00 68.95
  L 440.50 68.78
  A 0.76 0.64 -81.4 0 0 439.85 69.35
  Z"
/>
<path fill="#f8d7a4" d="
  M 510.49 105.25
  L 510.46 142.19
  Q 510.46 145.25 507.52 145.25
  L 489.75 145.24
  Q 487.25 145.24 487.25 142.76
  Q 487.25 106.25 487.25 69.75
  Q 487.25 66.41 490.32 66.29
  Q 498.65 65.96 507.02 66.02
  Q 509.26 66.03 510.37 67.90
  L 519.86 83.91
  A 0.64 0.62 45.2 0 0 520.94 83.93
  L 530.28 67.79
  Q 531.28 66.07 533.31 66.07
  L 550.68 66.06
  Q 553.25 66.06 553.25 68.75
  L 553.25 142.50
  Q 553.25 145.20 550.69 145.20
  L 533.26 145.22
  Q 530.24 145.22 530.24 142.26
  L 530.25 104.75
  Q 530.25 103.41 529.53 104.54
  L 523.90 113.38
  A 1.14 0.14 -14.3 0 1 522.97 113.74
  C 515.76 115.74 514.36 109.45 511.31 104.94
  Q 510.49 103.72 510.49 105.25
  Z
  M 489.83 141.98
  A 0.71 0.68 -87.6 0 0 490.50 142.75
  L 507.25 142.75
  A 0.50 0.47 -0.6 0 0 507.75 142.27
  Q 507.74 121.58 507.76 100.92
  C 507.77 98.66 509.69 97.06 511.23 99.70
  Q 514.41 105.16 517.77 110.55
  A 1.21 0.29 60.0 0 0 518.49 111.31
  L 522.00 111.48
  A 1.18 0.42 -61.6 0 0 522.75 110.80
  Q 526.08 105.49 529.18 100.03
  C 530.40 97.88 532.56 97.83 532.67 100.59
  C 533.21 114.48 532.60 126.25 533.06 142.21
  A 0.56 0.44 88.7 0 0 533.50 142.75
  L 550.25 142.75
  A 0.50 0.50 0.0 0 0 550.75 142.25
  L 550.75 69.50
  A 0.51 0.50 0.6 0 0 550.25 69.00
  L 533.50 68.67
  A 1.57 1.46 -73.4 0 0 532.19 69.44
  L 521.94 87.19
  Q 520.40 89.86 518.82 87.18
  L 508.32 69.43
  A 1.26 0.61 65.7 0 0 507.50 68.75
  L 490.25 68.75
  A 0.55 0.54 -0.5 0 0 489.70 69.30
  Q 490.29 104.78 489.62 140.25
  Q 489.96 140.48 489.83 141.98
  Z"
/>
<path fill="#e9cc9b" d="
  M 414.71 68.25
  L 414.71 96.00
  L 414.54 129.20
  Q 414.53 129.61 414.27 129.28
  L 414.07 129.03
  A 0.22 0.17 -51.2 0 0 413.75 129.10
  L 412.54 131.25
  L 412.50 68.79
  Q 414.08 70.18 414.71 68.25
  Z"
/>
<path fill="#b78151" d="
  M 82.40 69.81
  C 93.08 75.35 94.13 86.80 90.27 97.15
  A 1.07 0.31 -70.8 0 1 89.68 97.99
  L 87.24 97.73
  A 0.83 0.54 87.8 0 1 86.73 97.01
  Q 85.72 86.89 77.41 80.73
  Q 85.88 78.24 82.40 69.81
  Z
  M 88.1302 77.0313
  A 0.60 0.60 0.0 0 0 87.3328 76.7411
  L 87.2603 76.7749
  A 0.60 0.60 0.0 0 0 86.9701 77.5722
  L 88.6098 81.0887
  A 0.60 0.60 0.0 0 0 89.4072 81.3789
  L 89.4797 81.3451
  A 0.60 0.60 0.0 0 0 89.7699 80.5478
  L 88.1302 77.0313
  Z"
/>
<rect fill="#49395d" x="-0.64" y="-2.54" transform="translate(88.37,79.06) rotate(-25.0)" width="1.28" height="5.08" rx="0.60"/>
<path fill="#d7b88e" d="
  M 78.75 84.71
  Q 73.71 83.69 68.44 85.44
  Q 67.18 85.85 66.00 84.96
  C 70.25 83.13 74.99 78.87 78.75 84.71
  Z"
/>
<path fill="#d7b88e" d="
  M 58.75 82.96
  C 55.33 85.05 52.67 86.52 49.74 89.61
  Q 47.86 91.60 45.72 93.37
  Q 48.02 85.66 54.62 82.05
  A 1.60 1.44 -53.5 0 1 55.55 81.86
  Q 57.26 82.08 58.75 82.96
  Z"
/>
<path fill="#49395d" d="
  M 36.51 83.62
  A 1.30 0.21 83.7 0 1 36.56 82.57
  Q 36.86 82.10 37.44 82.31
  A 1.14 0.30 82.7 0 1 37.82 83.24
  L 38.84 89.33
  A 0.82 0.50 75.1 0 1 38.61 90.10
  C 36.80 91.13 36.62 85.20 36.51 83.62
  Z"
/>
<path fill="#fedaa7" d="
  M 58.75 82.96
  Q 62.14 84.82 66.00 84.96
  Q 67.18 85.85 68.44 85.44
  Q 73.71 83.69 78.75 84.71
  C 87.14 92.78 84.83 106.84 84.73 117.77
  A 1.07 1.07 -78.9 0 1 83.26 118.76
  C 78.78 116.97 74.75 114.38 69.78 114.21
  A 0.54 0.39 4.4 0 1 69.24 113.75
  Q 69.47 112.47 68.27 112.23
  A 0.86 0.38 -66.0 0 0 67.65 112.79
  Q 64.72 118.75 62.05 112.54
  A 0.53 0.43 68.0 0 0 61.46 112.21
  Q 60.49 112.58 60.52 113.77
  A 0.57 0.42 -1.1 0 1 59.96 114.20
  C 54.54 114.32 50.97 117.13 46.24 118.77
  A 0.75 0.74 -10.4 0 1 45.25 118.09
  Q 44.91 105.73 45.72 93.37
  Q 47.86 91.60 49.74 89.61
  C 52.67 86.52 55.33 85.05 58.75 82.96
  Z
  M 60.3476 97.5154
  A 3.45 3.45 0.0 0 0 56.3315 94.7448
  L 50.8235 95.7557
  A 3.45 3.45 0.0 0 0 48.0530 99.7719
  L 48.1324 100.2046
  A 3.45 3.45 0.0 0 0 52.1485 102.9752
  L 57.6565 101.9643
  A 3.45 3.45 0.0 0 0 60.4270 97.9481
  L 60.3476 97.5154
  Z
  M 81.9043 99.9260
  A 3.45 3.45 0.0 0 0 79.2256 95.8481
  L 73.7028 94.7044
  A 3.45 3.45 0.0 0 0 69.6249 97.3831
  L 69.5357 97.8140
  A 3.45 3.45 0.0 0 0 72.2144 101.8919
  L 77.7372 103.0356
  A 3.45 3.45 0.0 0 0 81.8151 100.3569
  L 81.9043 99.9260
  Z
  M 50.29 111.00
  Q 48.97 111.94 49.75 113.11
  A 1.42 1.11 -3.8 0 0 50.53 113.64
  Q 54.74 114.71 57.41 111.21
  Q 59.04 110.53 58.46 109.03
  C 56.21 103.19 48.16 105.81 50.29 111.00
  Z
  M 72.60 111.14
  Q 74.35 113.16 76.94 113.81
  C 78.82 114.28 82.19 113.53 80.00 110.71
  C 80.45 105.00 73.14 103.72 71.29 109.04
  Q 70.63 110.94 72.60 111.14
  Z"
/>
<path fill="#f8d7a4" d="
  M 319.48 85.49
  A 1.92 1.69 -2.4 0 1 321.25 83.80
  C 328.29 83.28 336.56 85.01 332.98 94.52
  Q 332.13 96.78 329.81 97.55
  Q 325.77 98.89 321.59 98.40
  Q 319.47 98.15 319.47 96.26
  L 319.48 85.49
  Z
  M 330.56 93.57
  Q 332.77 87.44 325.19 85.98
  Q 321.99 85.36 321.99 88.40
  L 322.00 94.98
  A 0.74 0.55 -87.9 0 0 322.50 95.70
  Q 325.78 96.04 328.93 95.20
  A 2.71 2.22 -84.3 0 0 330.56 93.57
  Z"
/>
<path fill="#49395d" d="
  M 39.31 92.35
  Q 38.71 92.25 38.75 91.31
  A 0.41 0.40 -77.9 0 1 39.30 90.94
  Q 39.90 91.19 39.89 91.81
  A 0.54 0.50 -85.9 0 1 39.31 92.35
  Z"
/>
<path fill="#a0a6a8" fill-opacity="0.976" d="
  M 94.21 92.75
  Q 94.68 94.05 94.25 95.29
  Q 91.82 93.96 94.21 92.75
  Z"
/>
<path fill="#f8d7a4" d="
  M 448.95 95.26
  C 449.57 92.48 451.95 91.37 452.68 94.74
  Q 455.09 105.84 457.42 116.60
  Q 457.97 119.16 455.44 119.16
  L 446.59 119.16
  Q 443.93 119.16 444.46 116.50
  Q 446.47 106.30 448.95 95.26
  Z
  M 447.20 115.97
  A 0.45 0.45 5.5 0 0 447.65 116.51
  L 454.20 116.49
  A 0.45 0.45 -5.9 0 0 454.64 115.94
  L 451.31 100.38
  A 0.45 0.45 73.4 0 0 450.42 100.39
  L 447.20 115.97
  Z"
/>
<path fill="#49395d" d="
  M 60.4270 97.9481
  A 3.45 3.45 0.0 0 1 57.6565 101.9643
  L 52.1485 102.9752
  A 3.45 3.45 0.0 0 1 48.1324 100.2046
  L 48.0530 99.7719
  A 3.45 3.45 0.0 0 1 50.8235 95.7557
  L 56.3315 94.7448
  A 3.45 3.45 0.0 0 1 60.3476 97.5154
  L 60.4270 97.9481
  Z
  M 58.3470 97.9843
  A 1.59 1.59 0.0 0 0 56.4828 96.7269
  L 51.2999 97.7344
  A 1.59 1.59 0.0 0 0 50.0425 99.5986
  L 50.0730 99.7557
  A 1.59 1.59 0.0 0 0 51.9372 101.0131
  L 57.1201 100.0056
  A 1.59 1.59 0.0 0 0 58.3775 98.1414
  L 58.3470 97.9843
  Z"
/>
<path fill="#49395d" d="
  M 81.8151 100.3569
  A 3.45 3.45 0.0 0 1 77.7372 103.0356
  L 72.2144 101.8919
  A 3.45 3.45 0.0 0 1 69.5357 97.8140
  L 69.6249 97.3831
  A 3.45 3.45 0.0 0 1 73.7028 94.7044
  L 79.2256 95.8481
  A 3.45 3.45 0.0 0 1 81.9043 99.9260
  L 81.8151 100.3569
  Z
  M 79.9702 99.4953
  A 1.55 1.55 0.0 0 0 78.7097 97.7019
  L 73.3507 96.7666
  A 1.55 1.55 0.0 0 0 71.5573 98.0271
  L 71.5298 98.1847
  A 1.55 1.55 0.0 0 0 72.7903 99.9781
  L 78.1493 100.9134
  A 1.55 1.55 0.0 0 0 79.9427 99.6529
  L 79.9702 99.4953
  Z"
/>
<path fill="#a0a6a8" fill-opacity="0.976" d="
  M 93.29 96.75
  Q 96.10 101.61 94.59 107.04
  L 94.10 107.01
  A 0.38 0.38 -76.2 0 1 93.78 106.48
  Q 95.47 102.44 92.38 99.95
  A 0.59 0.48 41.3 0 1 92.25 99.16
  Q 92.46 98.93 92.75 98.85
  Q 93.45 98.64 93.03 98.42
  Q 91.28 97.54 92.44 95.70
  A 0.50 0.38 -49.6 0 1 93.15 95.55
  Q 93.49 95.99 93.29 96.75
  Z"
/>
<rect fill="#d0a075" x="-4.23" y="-1.67" transform="translate(54.21,98.87) rotate(-11.0)" width="8.46" height="3.34" rx="1.59"/>
<rect fill="#d0a075" x="-4.27" y="-1.63" transform="translate(75.75,98.84) rotate(9.9)" width="8.54" height="3.26" rx="1.55"/>
<path fill="#fedaa7" d="
  M 37.75 102.71
  L 38.21 102.75
  Q 38.85 103.68 39.84 104.27
  A 0.36 0.36 -52.6 0 1 39.91 104.83
  L 39.32 105.42
  A 1.25 1.10 -25.5 0 0 38.97 106.24
  Q 39.02 109.40 40.05 106.77
  Q 40.41 105.84 40.70 106.31
  L 41.16 107.07
  Q 41.53 107.66 41.74 107.10
  Q 42.77 104.33 40.50 102.46
  L 40.04 101.25
  L 39.76 101.01
  Q 39.35 100.65 39.76 100.56
  L 42.49 99.98
  A 0.73 0.43 86.9 0 1 43.00 100.75
  L 43.00 109.25
  A 0.75 0.64 1.7 0 1 42.21 109.88
  C 38.67 109.71 35.57 106.09 37.75 102.71
  Z"
/>
<path fill="#e9cc9b" d="
  M 87.13 109.18
  L 86.85 100.60
  A 0.58 0.52 -2.2 0 1 87.40 100.07
  C 94.63 99.73 94.28 109.91 87.85 109.81
  A 0.73 0.65 -0.4 0 1 87.13 109.18
  Z
  M 89.87 104.15
  Q 91.98 102.79 89.55 102.48
  A 1.06 0.58 -63.1 0 0 88.75 103.03
  Q 87.50 104.95 88.08 107.19
  Q 88.25 107.88 88.68 107.13
  C 89.99 104.85 89.81 107.53 90.50 107.89
  A 0.47 0.32 -72.6 0 0 91.00 107.50
  Q 91.41 105.69 89.93 104.74
  A 0.38 0.33 43.1 0 1 89.87 104.15
  Z"
/>
<path fill="#9f7046" d="
  M 40.04 101.25
  L 40.50 102.46
  Q 39.30 102.36 38.21 102.75
  L 37.75 102.71
  Q 37.68 101.35 38.75 101.29
  A 0.79 0.56 70.2 0 1 39.36 101.71
  Q 39.78 102.46 40.04 101.25
  Z"
/>
<path fill="#49395d" d="
  M 40.50 102.46
  Q 42.77 104.33 41.74 107.10
  Q 41.53 107.66 41.16 107.07
  L 40.70 106.31
  Q 40.41 105.84 40.05 106.77
  Q 39.02 109.40 38.97 106.24
  A 1.25 1.10 -25.5 0 1 39.32 105.42
  L 39.91 104.83
  A 0.36 0.36 -52.6 0 0 39.84 104.27
  Q 38.85 103.68 38.21 102.75
  Q 39.30 102.36 40.50 102.46
  Z"
/>
<path fill="#49395d" d="
  M 89.93 104.74
  Q 91.41 105.69 91.00 107.50
  A 0.47 0.32 -72.6 0 1 90.50 107.89
  C 89.81 107.53 89.99 104.85 88.68 107.13
  Q 88.25 107.88 88.08 107.19
  Q 87.50 104.95 88.75 103.03
  A 1.06 0.58 -63.1 0 1 89.55 102.48
  Q 91.98 102.79 89.87 104.15
  A 0.38 0.33 43.1 0 0 89.93 104.74
  Z"
/>
<path fill="#49395d" d="
  M 57.41 111.21
  Q 56.28 110.17 56.06 109.00
  A 1.25 0.71 89.1 0 0 55.58 108.18
  Q 53.37 107.04 51.97 108.99
  A 1.57 0.38 89.2 0 0 51.74 109.99
  Q 51.68 111.13 50.29 111.00
  C 48.16 105.81 56.21 103.19 58.46 109.03
  Q 59.04 110.53 57.41 111.21
  Z"
/>
<path fill="#49395d" d="
  M 80.00 110.71
  C 77.09 112.61 78.90 106.32 74.50 108.10
  A 1.44 1.23 -84.2 0 0 73.82 108.75
  L 72.60 111.14
  Q 70.63 110.94 71.29 109.04
  C 73.14 103.72 80.45 105.00 80.00 110.71
  Z"
/>
<path fill="#ffe6be" d="
  M 57.41 111.21
  Q 54.74 114.71 50.53 113.64
  A 1.42 1.11 -3.8 0 1 49.75 113.11
  Q 48.97 111.94 50.29 111.00
  Q 51.68 111.13 51.74 109.99
  A 1.57 0.38 89.2 0 1 51.97 108.99
  Q 53.37 107.04 55.58 108.18
  A 1.25 0.71 89.1 0 1 56.06 109.00
  Q 56.28 110.17 57.41 111.21
  Z"
/>
<path fill="#ffe6be" d="
  M 80.00 110.71
  C 82.19 113.53 78.82 114.28 76.94 113.81
  Q 74.35 113.16 72.60 111.14
  L 73.82 108.75
  A 1.44 1.23 -84.2 0 1 74.50 108.10
  C 78.90 106.32 77.09 112.61 80.00 110.71
  Z"
/>
<path fill="#f8d7a4" d="
  M 319.49 113.24
  A 1.94 1.64 -2.2 0 1 321.30 111.58
  C 327.03 111.20 333.37 110.88 334.41 118.23
  C 335.65 126.98 328.29 128.27 321.68 127.68
  Q 319.48 127.48 319.48 125.51
  L 319.49 113.24
  Z
  M 322.52 124.83
  C 327.67 125.47 333.65 124.92 331.86 117.70
  C 330.80 113.44 325.95 113.79 322.54 114.03
  A 0.58 0.46 -2.6 0 0 322.00 114.50
  L 322.00 124.25
  A 0.60 0.58 3.9 0 0 322.52 124.83
  Z"
/>
<path fill="#c78d59" d="
  M 48.00 125.46
  Q 46.80 125.79 46.46 127.00
  Q 44.30 129.31 46.71 131.00
  Q 47.23 135.83 51.58 136.69
  L 51.78 138.49
  A 1.31 0.53 -88.8 0 0 52.11 139.35
  Q 53.30 140.38 53.04 137.75
  L 54.21 137.25
  Q 55.66 138.96 56.04 136.75
  Q 60.82 134.27 59.56 128.32
  Q 65.83 131.13 71.75 127.71
  Q 78.38 130.31 83.85 126.07
  A 0.77 0.46 -39.4 0 1 84.70 125.94
  Q 84.93 126.19 84.79 126.75
  Q 84.36 128.14 85.19 128.39
  A 0.60 0.52 -73.7 0 0 85.85 127.96
  Q 86.34 126.23 85.71 124.50
  L 85.56 122.25
  Q 87.26 117.62 86.81 112.56
  A 0.52 0.45 87.6 0 1 87.25 112.00
  L 88.49 112.01
  A 0.66 0.63 -3.6 0 1 89.13 112.55
  Q 90.45 121.33 88.01 129.42
  Q 79.27 143.04 63.27 143.99
  Q 62.75 144.43 62.54 143.75
  Q 61.79 137.82 60.96 143.25
  L 60.64 143.31
  Q 60.34 143.36 59.99 143.32
  Q 51.98 142.26 46.78 136.27
  A 1.43 0.96 62.7 0 0 45.91 135.79
  L 44.54 135.75
  C 39.43 127.92 40.80 121.33 40.34 113.04
  A 1.07 0.29 86.6 0 1 40.56 111.99
  Q 41.59 111.78 42.69 112.08
  A 0.94 0.48 -83.4 0 1 43.03 112.99
  C 42.65 118.69 43.07 122.04 48.00 125.46
  Z
  M 68.6100 135.8600
  A 1.99 0.69 90.0 0 0 69.3000 133.8700
  A 1.99 0.69 90.0 0 0 68.6100 131.8800
  A 1.99 0.69 90.0 0 0 67.9200 133.8700
  A 1.99 0.69 90.0 0 0 68.6100 135.8600
  Z
  M 81.25 135.89
  C 82.45 136.07 82.19 131.90 81.27 131.95
  A 0.55 0.54 88.9 0 0 80.75 132.50
  L 80.75 135.25
  A 0.66 0.58 -86.5 0 0 81.25 135.89
  Z
  M 73.2948 140.7199
  A 2.12 0.80 89.6 0 0 74.0800 138.5944
  A 2.12 0.80 89.6 0 0 73.2652 136.4801
  A 2.12 0.80 89.6 0 0 72.4800 138.6056
  A 2.12 0.80 89.6 0 0 73.2948 140.7199
  Z"
/>
<path fill="#d0a075" d="
  M 63.85 118.94
  Q 55.86 121.87 48.22 122.66
  C 43.84 120.47 48.37 120.33 49.54 119.72
  C 53.58 117.61 60.73 113.88 63.85 118.94
  Z"
/>
<path fill="#d0a075" d="
  M 81.04 120.25
  Q 80.78 120.95 80.22 121.28
  A 1.31 0.83 31.1 0 1 79.28 121.30
  Q 72.78 119.11 65.86 119.19
  Q 67.54 115.50 72.01 116.50
  Q 75.86 117.36 81.04 120.25
  Z"
/>
<path fill="#c78d59" d="
  M 81.04 120.25
  L 83.13 120.84
  Q 83.67 120.99 83.21 121.39
  Q 73.91 129.49 65.86 119.19
  Q 72.78 119.11 79.28 121.30
  A 1.31 0.83 31.1 0 0 80.22 121.28
  Q 80.78 120.95 81.04 120.25
  Z"
/>
<path fill="#c78d59" d="
  M 63.85 118.94
  Q 57.81 128.30 48.22 122.66
  Q 55.86 121.87 63.85 118.94
  Z"
/>
<path fill="#9f7046" d="
  M 64.07 123.41
  A 0.41 0.41 -61.2 0 1 63.94 122.96
  Q 64.59 121.08 65.66 122.56
  A 0.84 0.46 55.0 0 1 65.77 123.54
  Q 64.92 124.06 64.07 123.41
  Z"
/>
<path fill="#9f7046" d="
  M 85.56 122.25
  L 85.71 124.50
  Q 84.73 125.33 84.79 126.75
  Q 84.93 126.19 84.70 125.94
  A 0.77 0.46 -39.4 0 0 83.85 126.07
  Q 78.38 130.31 71.75 127.71
  C 72.30 126.98 72.95 126.54 73.95 126.64
  Q 80.69 127.30 85.56 122.25
  Z"
/>
<path fill="#f8d7a4" d="
  M 580.42 134.54
  A 11.61 11.61 0.0 0 1 568.81 146.15
  A 11.61 11.61 0.0 0 1 557.20 134.54
  A 11.61 11.61 0.0 0 1 568.81 122.93
  A 11.61 11.61 0.0 0 1 580.42 134.54
  Z
  M 577.76 134.56
  A 8.95 8.95 0.0 0 0 568.81 125.61
  A 8.95 8.95 0.0 0 0 559.86 134.56
  A 8.95 8.95 0.0 0 0 568.81 143.51
  A 8.95 8.95 0.0 0 0 577.76 134.56
  Z"
/>
<path fill="#49395d" d="
  M 85.71 124.50
  Q 86.34 126.23 85.85 127.96
  A 0.60 0.52 -73.7 0 1 85.19 128.39
  Q 84.36 128.14 84.79 126.75
  Q 84.73 125.33 85.71 124.50
  Z"
/>
<path fill="#ef6d66" d="
  M 69.49 125.71
  Q 69.97 126.15 69.10 126.62
  Q 64.78 128.93 60.43 126.31
  A 0.41 0.36 -49.1 0 1 60.43 125.69
  L 60.56 125.57
  A 0.90 0.87 -64.3 0 1 61.13 125.36
  L 68.58 125.49
  A 1.35 0.46 -5.2 0 1 69.49 125.71
  Z"
/>
<path fill="#d0a075" d="
  M 48.00 125.46
  Q 54.02 126.32 59.56 128.32
  Q 60.82 134.27 56.04 136.75
  Q 54.77 130.40 54.21 137.25
  L 53.04 137.75
  Q 53.25 135.10 51.58 136.69
  Q 47.23 135.83 46.71 131.00
  Q 47.59 128.90 46.46 127.00
  Q 46.80 125.79 48.00 125.46
  Z"
/>
<path fill="#49395d" d="
  M 46.46 127.00
  Q 47.59 128.90 46.71 131.00
  Q 44.30 129.31 46.46 127.00
  Z"
/>
<path fill="#af7b4d" d="
  M 88.01 129.42
  Q 84.49 140.35 75.25 144.48
  C 64.02 149.51 51.74 145.79 44.54 135.75
  L 45.91 135.79
  A 1.43 0.96 62.7 0 1 46.78 136.27
  Q 51.98 142.26 59.99 143.32
  Q 60.34 143.36 60.64 143.31
  L 60.96 143.25
  Q 61.23 145.63 62.54 143.75
  Q 62.75 144.43 63.27 143.99
  Q 79.27 143.04 88.01 129.42
  Z"
/>
<ellipse fill="#49395d" cx="0.00" cy="0.00" transform="translate(68.61,133.87) rotate(90.0)" rx="1.99" ry="0.69"/>
<path fill="#49395d" d="
  M 81.27 131.95
  C 82.19 131.90 82.45 136.07 81.25 135.89
  A 0.66 0.58 -86.5 0 1 80.75 135.25
  L 80.75 132.50
  A 0.55 0.54 88.9 0 1 81.27 131.95
  Z"
/>
<path fill="#49395d" d="
  M 56.04 136.75
  Q 55.66 138.96 54.21 137.25
  Q 54.77 130.40 56.04 136.75
  Z"
/>
<path fill="#49395d" d="
  M 53.04 137.75
  Q 53.30 140.38 52.11 139.35
  A 1.31 0.53 -88.8 0 1 51.78 138.49
  L 51.58 136.69
  Q 53.25 135.10 53.04 137.75
  Z"
/>
<ellipse fill="#49395d" cx="0.00" cy="0.00" transform="translate(73.28,138.60) rotate(89.6)" rx="2.12" ry="0.80"/>
<path fill="#49395d" d="
  M 62.54 143.75
  Q 61.23 145.63 60.96 143.25
  Q 61.79 137.82 62.54 143.75
  Z"
/>
</svg>
