<?xml version="1.0" encoding="UTF-8" standalone="no"?>
<!DOCTYPE svg PUBLIC "-//W3C//DTD SVG 1.1//EN" "http://www.w3.org/Graphics/SVG/1.1/DTD/svg11.dtd">
<svg xmlns="http://www.w3.org/2000/svg" version="1.1" viewBox="0 0 356 362">
<g stroke-width="2.00" fill="none" stroke-linecap="butt">
<path stroke="#a59cab" vector-effect="non-scaling-stroke" d="
  M 287.60 310.56
  L 288.75 308.21"
/>
<path stroke="#4a3e4f" stroke-opacity="0.757" vector-effect="non-scaling-stroke" d="
  M 318.16 274.91
  L 319.46 272.75
  Q 319.79 272.21 319.23 272.53
  Q 318.02 273.22 317.79 274.75"
/>
<path stroke="#a59cab" vector-effect="non-scaling-stroke" d="
  M 288.72 306.54
  Q 246.67 341.78 192.02 345.81
  C 167.03 347.65 141.51 344.95 117.66 336.07
  C 117.24 335.91 116.46 336.16 117.45 336.55
  C 146.26 347.73 175.54 351.42 206.25 347.46"
/>
<path stroke="#4f3a52" vector-effect="non-scaling-stroke" d="
  M 206.25 347.46
  L 209.50 347.54"
/>
<path stroke="#4c3a55" vector-effect="non-scaling-stroke" d="
  M 54.75 59.71
  Q 55.69 59.57 55.50 60.46"
/>
<path stroke="#a59cab" vector-effect="non-scaling-stroke" d="
  M 56.44 61.26
  Q 88.09 29.52 130.80 17.89
  C 169.79 7.27 213.12 10.53 249.75 27.04"
/>
<path stroke="#625272" vector-effect="non-scaling-stroke" d="
  M 249.75 27.04
  Q 255.94 29.92 250.25 26.79"
/>
<path stroke="#a59cab" vector-effect="non-scaling-stroke" d="
  M 250.25 26.79
  Q 230.11 16.99 206.06 11.94
  Q 198.40 10.33 192.79 10.50"
/>
<path stroke="#4a3e4f" stroke-opacity="0.757" vector-effect="non-scaling-stroke" d="
  M 192.79 10.50
  Q 192.05 9.14 191.00 10.46"
/>
<path stroke="#a59cab" vector-effect="non-scaling-stroke" d="
  M 191.00 10.46
  C 174.81 8.06 159.59 8.67 143.50 11.54"
/>
<path stroke="#625272" vector-effect="non-scaling-stroke" d="
  M 143.50 11.54
  L 141.00 11.40"
/>
<path stroke="#c0c0bd" stroke-opacity="0.757" vector-effect="non-scaling-stroke" d="
  M 191.00 10.46
  L 192.79 10.50"
/>
<path stroke="#bbb4c5" vector-effect="non-scaling-stroke" d="
  M 250.25 26.79
  L 249.75 27.04"
/>
<path stroke="#a59ca8" vector-effect="non-scaling-stroke" d="
  M 55.96 60.50
  L 60.25 54.79"
/>
<path stroke="#bbb4c5" vector-effect="non-scaling-stroke" d="
  M 65.79 49.25
  Q 68.46 48.46 69.71 46.00"
/>
<path stroke="#bbb4c5" vector-effect="non-scaling-stroke" d="
  M 134.96 13.04
  Q 139.37 12.93 143.50 11.54"
/>
<path stroke="#a89ca5" vector-effect="non-scaling-stroke" d="
  M 214.46 346.50
  Q 210.30 346.46 206.25 347.46"
/>
<path stroke="#a59cab" vector-effect="non-scaling-stroke" d="
  M 20.44 143.22
  Q 22.59 128.58 28.54 115.00"
/>
<path stroke="#847590" vector-effect="non-scaling-stroke" d="
  M 28.54 115.00
  Q 34.57 100.63 43.27 87.69
  A 0.38 0.35 -66.8 0 0 43.07 87.12
  C 40.72 86.66 29.87 109.36 28.19 113.00
  A 0.49 0.49 37.7 0 0 28.26 113.52
  L 28.46 113.75"
/>
<path stroke="#a59cab" vector-effect="non-scaling-stroke" d="
  M 28.46 113.75
  Q 27.81 113.84 27.45 114.69
  C 10.85 154.21 9.44 196.14 23.18 236.81
  C 32.39 264.09 50.78 288.08 73.00 306.04"
/>
<path stroke="#625272" vector-effect="non-scaling-stroke" d="
  M 73.00 306.04
  L 77.88 310.22
  A 0.40 0.33 36.6 0 0 78.44 310.19
  C 78.75 309.65 74.10 306.25 73.50 305.79"
/>
<path stroke="#a59cab" vector-effect="non-scaling-stroke" d="
  M 73.50 305.79
  Q 34.38 271.34 21.25 220.75
  Q 21.18 220.48 21.29 219.50"
/>
<path stroke="#625272" vector-effect="non-scaling-stroke" d="
  M 21.29 219.50
  L 21.54 218.75"
/>
<path stroke="#625272" vector-effect="non-scaling-stroke" d="
  M 333.96 219.50
  L 334.29 220.50"
/>
<path stroke="#a59cab" vector-effect="non-scaling-stroke" d="
  M 334.29 220.50
  Q 332.34 228.76 328.22 240.24
  Q 327.94 241.05 328.81 241.19
  A 0.74 0.61 -73.5 0 0 329.52 240.71
  Q 354.31 177.47 330.00 114.04
  A 1.35 0.85 81.0 0 0 329.35 113.30
  Q 329.03 113.18 328.75 113.25"
/>
<path stroke="#a59cab" vector-effect="non-scaling-stroke" d="
  M 328.75 113.25
  Q 327.16 115.26 328.06 117.44
  Q 332.36 127.87 333.79 137.97"
/>
<path stroke="#bbb4c5" vector-effect="non-scaling-stroke" d="
  M 334.29 220.50
  Q 335.88 215.88 335.96 211.00"
/>
<path stroke="#ddd7e3" vector-effect="non-scaling-stroke" d="
  M 19.29 209.50
  Q 19.15 214.81 19.83 211.82"
/>
<path stroke="#bbb4c5" vector-effect="non-scaling-stroke" d="
  M 20.54 215.00
  Q 19.99 217.40 21.29 219.50"
/>
<path stroke="#bbb4c5" vector-effect="non-scaling-stroke" d="
  M 73.50 305.79
  L 73.00 306.04"
/>
<path stroke="#ddd7e3" vector-effect="non-scaling-stroke" d="
  M 28.54 115.00
  L 28.46 113.75"
/>
<path stroke="#a59cab" vector-effect="non-scaling-stroke" d="
  M 97.75 34.46
  Q 81.44 42.80 66.19 55.94
  Q 65.13 56.85 66.25 57.04"
/>
<path stroke="#625272" vector-effect="non-scaling-stroke" d="
  M 29.78 100.53
  Q 29.08 97.21 31.60 94.79
  A 0.78 0.54 -39.7 0 0 31.83 93.97
  C 30.43 91.70 22.90 108.77 22.37 110.03
  A 0.87 0.74 -57.0 0 0 22.48 110.89
  Q 23.37 111.86 24.79 111.50"
/>
<path stroke="#a59cab" vector-effect="non-scaling-stroke" d="
  M 24.79 111.50
  Q 23.94 112.37 23.45 113.43
  Q 12.39 137.63 10.52 164.06
  C 10.06 170.63 10.36 179.25 10.05 186.87
  Q 10.03 187.29 10.34 187.09
  C 10.82 186.78 11.03 176.28 11.06 174.63
  C 11.36 152.74 17.28 130.91 26.79 111.25"
/>
<path stroke="#625272" vector-effect="non-scaling-stroke" d="
  M 26.79 111.25
  Q 28.01 110.04 27.79 108.50"
/>
<path stroke="#a59cab" vector-effect="non-scaling-stroke" d="
  M 66.50 57.04
  Q 67.74 56.84 68.19 56.44
  Q 81.99 44.04 98.04 34.75"
/>
<path stroke="#625272" vector-effect="non-scaling-stroke" d="
  M 98.04 34.75
  Q 107.41 28.86 97.75 34.46"
/>
<path stroke="#bbb4c5" vector-effect="non-scaling-stroke" d="
  M 98.04 34.75
  L 97.75 34.46"
/>
<path stroke="#bbb4c5" vector-effect="non-scaling-stroke" d="
  M 26.79 111.25
  L 26.50 110.71"
/>
<path stroke="#bbb4c5" vector-effect="non-scaling-stroke" d="
  M 25.25 111.21
  L 24.79 111.50"
/>
<path stroke="#847590" vector-effect="non-scaling-stroke" d="
  M 298.2233 67.1749
  A 0.28 0.28 0.0 0 0 298.2143 66.7790
  L 283.7260 52.9337
  A 0.28 0.28 0.0 0 0 283.3302 52.9427
  L 283.1367 53.1451
  A 0.28 0.28 0.0 0 0 283.1457 53.5410
  L 297.6340 67.3863
  A 0.28 0.28 0.0 0 0 298.0298 67.3773
  L 298.2233 67.1749"
/>
<path stroke="#625272" vector-effect="non-scaling-stroke" d="
  M 32.26 91.77
  Q 31.38 91.91 31.23 92.74
  A 0.65 0.50 12.2 0 0 31.75 93.35
  C 32.82 93.60 33.86 90.70 34.65 89.85
  Q 35.22 89.24 34.53 89.10
  Q 32.25 88.64 32.61 91.23
  A 0.49 0.43 81.7 0 1 32.26 91.77"
/>
<path stroke="#625272" vector-effect="non-scaling-stroke" d="
  M 333.21 237.25
  Q 331.56 238.18 332.35 239.25"
/>
<path stroke="#625272" vector-effect="non-scaling-stroke" d="
  M 315.65 269.20
  L 324.71 250.75"
/>
<path stroke="#847590" vector-effect="non-scaling-stroke" d="
  M 324.71 250.75
  L 325.71 248.75"
/>
<path stroke="#a58f8c" vector-effect="non-scaling-stroke" d="
  M 325.71 248.75
  C 326.57 247.27 329.88 241.40 327.91 241.81
  A 1.05 0.75 -80.0 0 0 327.28 242.43
  L 324.72 248.95"
/>
<path stroke="#847590" vector-effect="non-scaling-stroke" d="
  M 324.72 248.95
  Q 323.79 249.46 324.25 250.71"
/>
<path stroke="#625272" vector-effect="non-scaling-stroke" d="
  M 324.25 250.71
  Q 323.68 250.73 323.52 251.05
  Q 317.67 263.04 309.83 273.90
  A 0.77 0.63 -47.7 0 0 309.79 274.75
  Q 310.42 275.53 311.75 275.04"
/>
<path stroke="#625272" vector-effect="non-scaling-stroke" d="
  M 294.25 296.54
  L 293.50 296.79"
/>
<path stroke="#a59cab" vector-effect="non-scaling-stroke" d="
  M 293.50 296.79
  Q 291.93 297.24 291.06 298.06
  Q 276.09 312.27 258.46 323.00"
/>
<path stroke="#625272" vector-effect="non-scaling-stroke" d="
  M 258.46 323.00
  Q 254.85 325.03 258.75 323.29"
/>
<path stroke="#a59cab" vector-effect="non-scaling-stroke" d="
  M 258.75 323.29
  Q 278.23 312.75 294.25 297.46"
/>
<path stroke="#625272" vector-effect="non-scaling-stroke" d="
  M 294.25 297.46
  Q 297.84 296.01 299.21 292.50"
/>
<path stroke="#625272" vector-effect="non-scaling-stroke" d="
  M 334.46 237.75
  L 334.50 237.54"
/>
<path stroke="#a59cab" vector-effect="non-scaling-stroke" d="
  M 334.50 237.54
  Q 335.31 237.39 335.48 236.95
  C 343.51 216.94 345.88 197.21 345.78 175.61
  C 345.78 175.44 345.71 175.30 345.56 175.25
  A 0.27 0.15 -84.1 0 0 345.36 175.54
  Q 344.81 207.49 333.21 237.25"
/>
<path stroke="#bbb4c5" vector-effect="non-scaling-stroke" d="
  M 334.50 237.54
  L 333.21 237.25"
/>
<path stroke="#bbb4c5" vector-effect="non-scaling-stroke" d="
  M 294.25 297.46
  L 293.50 296.79"
/>
<path stroke="#bbb4c5" vector-effect="non-scaling-stroke" d="
  M 258.75 323.29
  L 258.46 323.00"
/>
<path stroke="#9a8da9" vector-effect="non-scaling-stroke" d="
  M 324.71 250.75
  L 324.25 250.71"
/>
<path stroke="#ddcac4" vector-effect="non-scaling-stroke" d="
  M 325.71 248.75
  L 324.72 248.95"
/>
<path stroke="#625272" vector-effect="non-scaling-stroke" d="
  M 332.3982 250.1328
  A 0.51 0.51 0.0 0 0 332.1802 249.4453
  L 332.0559 249.3809
  A 0.51 0.51 0.0 0 0 331.3684 249.5989
  L 322.5418 266.6272
  A 0.51 0.51 0.0 0 0 322.7598 267.3147
  L 322.8841 267.3791
  A 0.51 0.51 0.0 0 0 323.5716 267.1611
  L 332.3982 250.1328"
/>
<path stroke="#625272" vector-effect="non-scaling-stroke" d="
  M 320.29 269.57
  Q 319.78 270.38 320.64 269.98
  L 322.07 269.30
  A 0.71 0.68 -17.8 0 0 322.47 268.57
  Q 322.15 266.61 320.29 269.57"
/>
<path stroke="#8a6459" vector-effect="non-scaling-stroke" d="
  M 107.62 131.54
  Q 107.88 144.97 114.04 157.00"
/>
<path stroke="#825f56" vector-effect="non-scaling-stroke" d="
  M 114.04 157.00
  Q 116.25 161.79 119.61 165.98
  A 1.32 0.60 57.5 0 0 120.50 166.56
  L 128.06 165.87
  A 0.80 0.37 -88.3 0 0 128.43 165.13
  Q 128.87 156.64 131.71 148.75"
/>
<path stroke="#8a6459" vector-effect="non-scaling-stroke" d="
  M 131.71 148.75
  Q 136.82 136.05 147.44 126.97
  C 157.27 118.57 162.69 122.31 174.25 127.76
  C 188.24 134.37 196.66 115.67 209.43 122.69"
/>
<path stroke="#825f56" vector-effect="non-scaling-stroke" d="
  M 209.43 122.69
  Q 228.27 135.35 233.12 157.25
  C 233.64 159.61 233.75 162.68 234.29 165.38
  A 0.77 0.76 -3.8 0 0 235.01 166.00
  L 240.25 166.25
  A 1.89 0.63 4.3 0 0 242.00 165.81
  C 251.70 138.34 250.37 111.89 222.54 97.00"
/>
<path stroke="#8a6459" vector-effect="non-scaling-stroke" d="
  M 222.54 97.00
  Q 210.68 90.33 197.28 89.01"
/>
<path stroke="#8f6f6a" vector-effect="non-scaling-stroke" d="
  M 197.28 89.01
  C 173.87 85.07 145.24 91.23 133.19 67.38
  A 0.43 0.42 58.1 0 0 132.56 67.23
  C 114.24 81.19 106.60 109.64 107.62 131.54"
/>
<path stroke="#cd996b" vector-effect="non-scaling-stroke" d="
  M 197.28 89.01
  Q 179.55 91.00 161.76 92.18
  Q 147.78 93.10 136.41 86.55
  A 2.21 2.21 41.4 0 0 133.99 86.70
  C 121.79 95.80 115.42 106.10 111.35 120.45
  Q 109.76 126.08 107.62 131.54"
/>
<path stroke="#c08857" vector-effect="non-scaling-stroke" d="
  M 222.54 97.00
  L 221.90 98.73
  A 1.22 0.77 48.4 0 0 222.05 99.64
  C 226.64 107.64 228.32 114.56 219.95 119.69
  Q 215.18 122.61 209.43 122.69"
/>
<path stroke="#c08857" vector-effect="non-scaling-stroke" d="
  M 131.71 148.75
  Q 130.51 148.05 129.26 148.41
  A 0.95 0.78 -87.4 0 0 128.67 149.06
  C 127.01 155.33 119.55 156.64 114.04 157.00"
/>
<path stroke="#a68a80" vector-effect="non-scaling-stroke" d="
  M 183.25 134.29
  Q 174.73 134.20 167.30 130.23"
/>
<path stroke="#927a74" vector-effect="non-scaling-stroke" d="
  M 167.30 130.23
  Q 162.33 126.99 156.42 127.08
  A 1.77 1.76 28.0 0 0 155.50 127.36
  Q 137.44 139.14 133.95 160.78"
/>
<path stroke="#a68a80" vector-effect="non-scaling-stroke" d="
  M 133.95 160.78
  Q 133.79 162.23 133.77 163.82
  Q 133.47 190.13 133.51 215.98
  A 0.83 0.83 84.6 0 0 134.50 216.80
  C 147.36 214.32 155.87 204.82 170.04 205.82
  A 0.67 0.32 1.9 0 0 170.78 205.50
  Q 170.58 204.09 170.96 202.74
  A 1.07 0.04 -74.0 0 1 171.27 201.79
  Q 173.16 200.00 174.98 201.80
  A 1.67 0.99 -81.9 0 1 175.37 202.73
  C 176.04 208.73 181.70 211.40 185.95 206.42
  Q 186.59 205.67 187.51 201.84
  A 1.02 0.91 88.6 0 1 188.09 201.16
  C 192.11 199.60 191.27 203.48 191.86 205.44
  A 0.67 0.63 -10.5 0 0 192.54 205.88
  C 205.94 204.91 214.82 214.09 227.64 216.86
  A 0.93 0.91 7.8 0 0 228.76 216.02
  C 229.65 201.79 229.13 187.54 228.99 173.31
  Q 228.87 160.34 227.25 154.51
  Q 224.01 142.84 215.00 133.96"
/>
<path stroke="#8f7772" vector-effect="non-scaling-stroke" d="
  M 215.00 133.96
  Q 210.52 128.95 204.49 126.04
  A 2.47 2.46 47.1 0 0 202.50 125.96
  C 196.20 128.47 189.83 133.20 183.25 134.29"
/>
<path stroke="#e9c79a" vector-effect="non-scaling-stroke" d="
  M 215.00 133.96
  C 206.65 132.41 200.50 133.65 191.08 135.33
  Q 186.45 136.15 183.25 134.29"
/>
<path stroke="#ecca9b" vector-effect="non-scaling-stroke" d="
  M 167.30 130.23
  C 155.71 135.07 143.83 143.61 137.71 154.74
  Q 136.00 157.86 133.95 160.78"
/>
<path stroke="#a38c89" vector-effect="non-scaling-stroke" d="
  M 127.63 171.08
  C 109.79 170.58 109.17 194.26 126.89 195.29
  A 1.53 1.52 -88.4 0 0 128.50 193.76
  L 128.50 172.01
  A 0.93 0.89 -89.4 0 0 127.63 171.08"
/>
<path stroke="#a18983" vector-effect="non-scaling-stroke" d="
  M 238.75 194.79
  C 251.60 192.12 252.03 175.78 239.24 171.29"
/>
<path stroke="#927a74" vector-effect="non-scaling-stroke" d="
  M 239.24 171.29
  L 234.84 171.14
  A 0.61 0.57 -89.1 0 0 234.25 171.75
  L 234.25 194.25
  A 0.75 0.73 -83.0 0 0 234.80 194.97
  Q 236.88 195.49 238.75 194.79"
/>
<path stroke="#e7c99f" vector-effect="non-scaling-stroke" d="
  M 239.24 171.29
  Q 237.28 174.81 238.90 178.59"
/>
<path stroke="#927a70" vector-effect="non-scaling-stroke" d="
  M 238.90 178.59
  Q 235.97 182.65 236.62 187.82
  A 1.27 0.95 -81.6 0 0 237.06 188.64
  Q 237.68 189.08 238.50 189.04"
/>
<path stroke="#e7c99f" vector-effect="non-scaling-stroke" d="
  M 238.50 189.04
  L 238.75 194.79"
/>
<path stroke="#a08980" vector-effect="non-scaling-stroke" d="
  M 238.50 189.04
  Q 239.67 188.32 239.72 187.00
  A 1.36 0.41 88.1 0 1 239.99 185.98
  Q 240.66 185.40 241.19 186.07
  A 1.00 0.07 -89.7 0 1 241.25 187.00
  L 241.25 188.75
  A 1.02 0.54 14.0 0 0 241.99 189.41
  C 246.03 190.69 244.99 183.56 240.88 182.22
  A 0.50 0.39 26.7 0 1 240.56 181.55
  Q 241.61 180.36 243.26 180.28
  A 1.26 1.08 -67.3 0 0 244.08 179.87
  C 245.96 177.77 241.42 175.70 238.90 178.59"
/>
<path stroke="#7d5b55" vector-effect="non-scaling-stroke" d="
  M 127.50 249.79
  C 134.65 267.46 152.22 279.99 170.07 283.35
  C 203.94 289.74 235.26 266.65 239.84 232.76"
/>
<path stroke="#8a6459" vector-effect="non-scaling-stroke" d="
  M 239.84 232.76
  Q 240.98 216.78 240.33 200.75
  A 0.63 0.54 0.7 0 0 239.74 200.23
  L 234.75 199.98
  A 0.52 0.47 88.8 0 0 234.27 200.54
  Q 234.96 211.92 232.74 223.05"
/>
<path stroke="#765550" vector-effect="non-scaling-stroke" d="
  M 232.74 223.05
  C 223.68 232.52 215.22 238.26 201.49 235.59
  A 1.18 1.12 -56.7 0 0 200.60 235.80
  L 196.21 239.00"
/>
<path stroke="#8a6459" vector-effect="non-scaling-stroke" d="
  M 196.21 239.00
  Q 182.83 246.83 168.75 240.29"
/>
<path stroke="#8e6d67" vector-effect="non-scaling-stroke" d="
  M 168.75 240.29
  Q 168.42 240.02 168.02 239.93"
/>
<path stroke="#8a6459" vector-effect="non-scaling-stroke" d="
  M 168.02 239.93
  L 161.68 235.83
  A 1.46 0.94 47.9 0 0 160.80 235.59
  Q 141.25 238.44 130.40 222.37
  C 127.17 217.59 128.50 206.59 128.47 200.82
  A 0.54 0.51 -89.5 0 0 127.97 200.28
  L 122.40 200.18
  A 0.53 0.51 -88.9 0 0 121.88 200.70
  C 121.44 216.81 120.38 234.90 127.50 249.79"
/>
<path stroke="#cb9768" vector-effect="non-scaling-stroke" d="
  M 168.02 239.93
  C 154.30 240.26 149.02 240.12 139.49 233.98
  A 1.27 1.11 -65.5 0 0 137.77 234.76
  L 136.96 237.25"
/>
<path stroke="#8d6453" vector-effect="non-scaling-stroke" d="
  M 136.96 237.25
  C 133.23 236.56 134.77 244.52 134.89 245.61
  A 1.07 1.06 -77.6 0 0 135.38 246.39
  Q 137.71 247.86 137.79 244.25"
/>
<path stroke="#cb9768" vector-effect="non-scaling-stroke" d="
  M 137.79 244.25
  Q 137.83 256.89 149.11 260.55"
/>
<path stroke="#8d6453" vector-effect="non-scaling-stroke" d="
  M 149.11 260.55
  Q 149.79 262.68 149.49 266.01
  A 1.70 1.33 -62.9 0 0 149.67 266.94
  Q 150.88 269.09 152.03 267.33
  C 152.89 266.03 152.50 262.39 152.54 260.75"
/>
<path stroke="#cb9768" vector-effect="non-scaling-stroke" d="
  M 152.54 260.75
  Q 153.60 262.65 155.75 261.46"
/>
<path stroke="#8d6453" vector-effect="non-scaling-stroke" d="
  M 155.75 261.46
  Q 158.21 265.52 159.14 260.82"
/>
<path stroke="#cb9768" vector-effect="non-scaling-stroke" d="
  M 159.14 260.82
  Q 171.08 255.93 168.24 242.75
  Q 168.10 242.10 168.75 240.29"
/>
<path stroke="#b37f51" vector-effect="non-scaling-stroke" d="
  M 196.21 239.00
  C 203.59 240.00 208.50 241.38 217.07 239.62
  Q 222.50 238.50 228.83 233.04"
/>
<path stroke="#8d6453" vector-effect="non-scaling-stroke" d="
  M 228.83 233.04
  L 229.02 239.45
  A 0.84 0.55 -88.5 0 0 229.50 240.23
  Q 230.67 240.40 231.76 240.03
  A 1.10 0.25 -80.1 0 0 232.14 239.13
  Q 233.02 234.69 231.21 230.75"
/>
<path stroke="#b37f51" vector-effect="non-scaling-stroke" d="
  M 231.21 230.75
  L 232.74 223.05"
/>
<path stroke="#bb8556" vector-effect="non-scaling-stroke" d="
  M 239.84 232.76
  Q 235.98 240.24 232.17 247.63
  C 227.63 256.46 219.13 263.76 210.51 268.62
  C 199.28 274.94 188.21 277.48 175.29 276.75"
/>
<path stroke="#8d6453" vector-effect="non-scaling-stroke" d="
  M 175.29 276.75
  L 175.20 270.81
  A 0.81 0.78 -79.3 0 0 174.73 270.09
  Q 171.36 268.62 171.96 273.50"
/>
<path stroke="#bb8556" vector-effect="non-scaling-stroke" d="
  M 171.96 273.50
  C 171.77 280.01 157.77 273.10 155.01 272.15
  Q 151.67 271.00 148.71 269.05
  C 141.36 264.22 133.90 258.08 129.22 250.55
  Q 128.70 249.71 127.50 249.79"
/>
<path stroke="#916d60" vector-effect="non-scaling-stroke" d="
  M 159.14 260.82
  L 158.96 254.54
  A 0.91 0.78 -78.5 0 0 158.54 253.79
  C 154.56 251.68 155.76 259.75 155.75 261.46"
/>
<path stroke="#916d60" vector-effect="non-scaling-stroke" d="
  M 152.54 260.75
  Q 151.89 255.30 149.11 260.55"
/>
<path stroke="#916d60" vector-effect="non-scaling-stroke" d="
  M 137.79 244.25
  Q 138.60 240.52 136.96 237.25"
/>
<path stroke="#805b4e" vector-effect="non-scaling-stroke" d="
  M 171.96 273.50
  L 172.23 278.19
  A 1.04 0.91 15.7 0 0 172.73 278.96
  Q 175.56 280.70 175.29 276.75"
/>
<path stroke="#79554a" vector-effect="non-scaling-stroke" d="
  M 231.21 230.75
  Q 228.56 230.12 228.83 233.04"
/>
<path stroke="#8a6459" vector-effect="non-scaling-stroke" d="
  M 138.32 224.57
  Q 153.66 236.67 170.69 226.65
  Q 176.11 223.46 178.82 216.38"
/>
<path stroke="#8e6d67" vector-effect="non-scaling-stroke" d="
  M 178.82 216.38
  Q 174.58 210.55 167.55 210.56
  C 164.42 210.56 158.41 212.15 155.79 213.53
  Q 146.53 218.42 136.54 221.70
  A 0.38 0.34 -28.6 0 0 136.34 222.27
  L 138.32 224.57"
/>
<path stroke="#cb9768" vector-effect="non-scaling-stroke" d="
  M 178.82 216.38
  Q 177.28 217.16 176.89 216.47
  A 0.36 0.31 56.4 0 0 176.39 216.33
  C 171.94 220.28 165.84 221.87 159.69 223.39
  C 154.76 224.61 148.92 223.57 143.73 223.80
  Q 143.29 223.82 142.80 223.57
  Q 140.56 222.44 138.32 224.57"
/>
<path stroke="#8a6459" vector-effect="non-scaling-stroke" d="
  M 183.92 216.58
  C 190.20 233.01 212.44 235.85 224.25 224.04"
/>
<path stroke="#8f6f6a" vector-effect="non-scaling-stroke" d="
  M 224.25 224.04
  Q 225.62 223.46 226.23 222.15
  A 0.39 0.37 16.7 0 0 225.92 221.62
  C 212.60 219.56 199.48 204.00 184.17 214.53
  A 0.91 0.82 72.0 0 0 183.82 215.32
  L 183.92 216.58"
/>
<path stroke="#cd996b" vector-effect="non-scaling-stroke" d="
  M 224.25 224.04
  L 221.44 222.63
  A 1.96 1.15 43.8 0 0 220.52 222.41
  C 213.51 222.95 205.90 221.02 198.45 218.00
  Q 192.63 215.64 183.92 216.58"
/>
<path stroke="#6a4354" vector-effect="non-scaling-stroke" d="
  M 184.38 227.36
  L 181.86 224.55
  A 0.54 0.51 42.6 0 0 181.05 224.56
  L 180.20 225.70
  A 1.71 0.60 -11.4 0 1 179.32 226.22
  C 174.75 227.79 183.47 228.30 184.04 228.24
  Q 185.07 228.12 184.38 227.36"
/>
<path stroke="#9a5662" vector-effect="non-scaling-stroke" d="
  M 174.46 237.25
  Q 184.55 240.29 193.32 234.70
  A 0.44 0.42 -36.9 0 0 193.43 234.05
  C 191.74 232.13 189.89 231.77 187.30 232.58
  Q 182.67 234.02 177.75 233.21"
/>
<path stroke="#81495b" vector-effect="non-scaling-stroke" d="
  M 177.75 233.21
  L 173.25 231.90
  A 1.25 0.26 18.9 0 0 172.26 231.78
  L 168.44 233.68
  A 0.54 0.35 45.4 0 0 168.59 234.43
  Q 171.34 236.49 174.46 237.25"
/>
<path stroke="#cf6565" vector-effect="non-scaling-stroke" d="
  M 177.75 233.21
  Q 175.16 234.53 174.46 237.25"
/>
<path stroke="#8d6453" vector-effect="non-scaling-stroke" d="
  M 115.39 128.21
  C 109.33 123.55 114.42 144.27 115.16 146.22
  C 115.67 147.57 116.69 148.52 118.03 147.35
  A 0.85 0.81 62.0 0 0 118.27 146.49
  Q 115.81 137.93 115.77 128.99
  A 0.99 0.96 -71.9 0 0 115.39 128.21"
/>
<path stroke="#8d6453" vector-effect="non-scaling-stroke" d="
  M 120.9083 151.5774
  A 1.73 1.48 12.6 0 0 119.5429 149.7556
  A 1.73 1.48 12.6 0 0 117.5317 150.8226
  A 1.73 1.48 12.6 0 0 118.8971 152.6444
  A 1.73 1.48 12.6 0 0 120.9083 151.5774"
/>
<path stroke="#825f56" vector-effect="non-scaling-stroke" d="
  M 237.4461 115.2995
  A 1.35 1.35 0.0 0 0 235.6498 114.6527
  L 235.1612 114.8827
  A 1.35 1.35 0.0 0 0 234.5145 116.6790
  L 238.5339 125.2205
  A 1.35 1.35 0.0 0 0 240.3302 125.8673
  L 240.8188 125.6373
  A 1.35 1.35 0.0 0 0 241.4655 123.8410
  L 237.4461 115.2995"
/>
<path stroke="#a68a80" vector-effect="non-scaling-stroke" d="
  M 170.3356 164.8193
  A 8.44 8.44 0.0 0 0 160.4170 158.1794
  L 146.9779 160.8404
  A 8.44 8.44 0.0 0 0 140.3380 170.7590
  L 140.5244 171.7007
  A 8.44 8.44 0.0 0 0 150.4430 178.3406
  L 163.8821 175.6796
  A 8.44 8.44 0.0 0 0 170.5220 165.7610
  L 170.3356 164.8193"
/>
<path stroke="#a68a80" vector-effect="non-scaling-stroke" d="
  M 222.5247 170.6718
  A 8.41 8.41 0.0 0 0 215.8568 160.8233
  L 202.3254 158.2175
  A 8.41 8.41 0.0 0 0 192.4768 164.8855
  L 192.2953 165.8282
  A 8.41 8.41 0.0 0 0 198.9632 175.6767
  L 212.4946 178.2825
  A 8.41 8.41 0.0 0 0 222.3432 171.6145
  L 222.5247 170.6718"
/>
<path stroke="#ffdfb4" vector-effect="non-scaling-stroke" d="
  M 200.50 197.44
  Q 204.88 203.39 212.50 204.44
  Q 216.59 205.01 219.23 202.47
  A 1.27 1.22 69.0 0 0 219.59 201.61
  Q 219.62 198.51 217.44 196.93"
/>
<path stroke="#a58a7c" vector-effect="non-scaling-stroke" d="
  M 217.44 196.93
  C 219.25 180.16 195.26 181.55 196.77 195.97
  A 1.19 1.13 -75.1 0 0 197.21 196.78
  Q 198.76 197.99 200.50 197.44"
/>
<path stroke="#a58f89" vector-effect="non-scaling-stroke" d="
  M 217.44 196.93
  Q 215.62 197.88 214.08 197.34
  A 1.07 0.90 89.0 0 1 213.48 196.65
  C 212.88 194.60 212.48 192.34 210.79 190.95
  C 204.82 186.02 202.10 193.12 200.50 197.44"
/>
<path stroke="#ffdfb4" vector-effect="non-scaling-stroke" d="
  M 145.03 196.91
  C 141.56 204.87 150.47 205.27 155.19 204.28
  A 1.40 1.26 -75.2 0 0 155.97 203.77
  C 158.07 201.00 164.48 200.45 164.00 197.54"
/>
<path stroke="#a68a80" vector-effect="non-scaling-stroke" d="
  M 164.00 197.54
  C 170.43 194.67 159.60 178.91 148.83 186.76
  Q 144.30 190.05 145.03 196.91"
/>
<path stroke="#a58f8c" vector-effect="non-scaling-stroke" d="
  M 164.00 197.54
  Q 162.94 197.61 161.96 197.19
  A 1.20 0.97 88.4 0 1 161.36 196.49
  C 160.82 194.82 160.59 193.03 159.53 191.72
  C 155.82 187.09 150.29 190.10 149.60 195.32
  Q 149.10 199.15 145.03 196.91"
/>
<path stroke="#8a6459" vector-effect="non-scaling-stroke" d="
  M 145.87 171.84
  Q 147.59 173.87 149.25 173.52
  Q 155.75 172.17 162.24 171.00
  Q 165.66 170.39 165.74 166.74"
/>
<path stroke="#8f6f6a" vector-effect="non-scaling-stroke" d="
  M 165.74 166.74
  Q 164.91 162.37 160.25 163.28
  C 155.94 164.12 141.59 164.88 145.87 171.84"
/>
<path stroke="#cd996b" vector-effect="non-scaling-stroke" d="
  M 165.74 166.74
  Q 155.48 168.20 145.87 171.84"
/>
<path stroke="#8a6459" vector-effect="non-scaling-stroke" d="
  M 200.25 171.04
  Q 206.22 172.11 212.20 173.18
  C 215.25 173.72 217.70 172.85 217.68 169.44"
/>
<path stroke="#8f7772" vector-effect="non-scaling-stroke" d="
  M 217.68 169.44
  C 216.98 164.49 206.96 164.06 201.74 163.31
  C 196.41 162.54 195.54 169.24 200.25 171.04"
/>
<path stroke="#cda073" vector-effect="non-scaling-stroke" d="
  M 217.68 169.44
  L 204.45 166.73
  Q 203.00 166.44 201.97 168.17
  L 200.25 171.04"
/>
<path stroke="#a38b86" vector-effect="non-scaling-stroke" d="
  M 122.92 186.08
  L 123.39 188.07
  A 1.15 0.87 12.0 0 0 123.95 188.72
  C 127.67 190.63 126.34 177.88 121.52 177.00
  Q 118.24 176.39 118.26 179.68
  A 0.64 0.63 -83.8 0 0 118.75 180.30
  C 119.55 180.48 122.39 180.37 121.83 181.94
  A 1.42 0.57 -18.6 0 1 121.07 182.59
  Q 117.34 184.37 118.42 188.57
  A 1.07 1.02 -85.0 0 0 118.99 189.28
  C 122.84 191.12 120.46 186.10 122.19 185.59
  A 0.64 0.57 75.6 0 1 122.92 186.08"
/>
<path stroke="#8a6459" vector-effect="non-scaling-stroke" d="
  M 191.50 249.37
  A 0.85 0.85 0.0 0 0 190.65 248.52
  L 189.35 248.52
  A 0.85 0.85 0.0 0 0 188.50 249.37
  L 188.50 257.17
  A 0.85 0.85 0.0 0 0 189.35 258.02
  L 190.65 258.02
  A 0.85 0.85 0.0 0 0 191.50 257.17
  L 191.50 249.37"
/>
<path stroke="#8d6453" vector-effect="non-scaling-stroke" d="
  M 222.4468 249.8924
  A 1.36 1.36 0.0 0 0 221.1059 248.5135
  L 220.6659 248.5074
  A 1.36 1.36 0.0 0 0 219.2871 249.8483
  L 219.1932 256.5676
  A 1.36 1.36 0.0 0 0 220.5341 257.9465
  L 220.9741 257.9526
  A 1.36 1.36 0.0 0 0 222.3529 256.6117
  L 222.4468 249.8924"
/>
<path stroke="#8d6453" vector-effect="non-scaling-stroke" d="
  M 202.8125 261.1840
  A 0.96 0.96 0.0 0 0 201.8425 260.2341
  L 200.6626 260.2464
  A 0.96 0.96 0.0 0 0 199.7127 261.2164
  L 199.7875 268.3560
  A 0.96 0.96 0.0 0 0 200.7575 269.3059
  L 201.9374 269.2936
  A 0.96 0.96 0.0 0 0 202.8873 268.3236
  L 202.8125 261.1840"
/>
</g>
<path fill="#4c3a58" d="
  M 287.60 310.56
  L 288.75 308.21
  L 288.88 308.23
  A 0.28 0.25 -59.0 0 0 289.10 308.16
  Q 306.02 293.61 318.16 274.91
  L 319.46 272.75
  Q 319.79 272.21 319.23 272.53
  Q 318.02 273.22 317.79 274.75
  Q 307.00 288.88 303.94 292.44
  Q 298.29 299.00 288.72 306.54
  Q 246.67 341.78 192.02 345.81
  C 167.03 347.65 141.51 344.95 117.66 336.07
  C 117.24 335.91 116.46 336.16 117.45 336.55
  C 146.26 347.73 175.54 351.42 206.25 347.46
  L 209.50 347.54
  C 182.58 352.67 156.35 351.48 130.84 343.90
  C 44.42 318.22 -8.08 226.31 11.42 138.96
  Q 21.46 93.93 54.75 59.71
  Q 55.69 59.57 55.50 60.46
  Q 46.39 69.74 39.24 80.59
  A 0.46 0.36 -57.9 0 0 39.30 81.19
  Q 39.55 81.34 39.78 81.02
  Q 46.75 71.75 49.59 68.34
  Q 52.84 64.43 56.44 61.26
  Q 88.09 29.52 130.80 17.89
  C 169.79 7.27 213.12 10.53 249.75 27.04
  Q 255.94 29.92 250.25 26.79
  Q 230.11 16.99 206.06 11.94
  Q 198.40 10.33 192.79 10.50
  Q 192.05 9.14 191.00 10.46
  C 174.81 8.06 159.59 8.67 143.50 11.54
  L 141.00 11.40
  Q 195.23 -0.11 245.07 21.71
  C 296.78 44.34 331.80 91.19 344.77 145.50
  Q 347.01 154.89 348.43 173.07
  Q 350.06 193.90 344.47 218.24
  Q 331.65 274.14 287.60 310.56
  Z
  M 20.44 143.22
  Q 22.59 128.58 28.54 115.00
  Q 34.57 100.63 43.27 87.69
  A 0.38 0.35 -66.8 0 0 43.07 87.12
  C 40.72 86.66 29.87 109.36 28.19 113.00
  A 0.49 0.49 37.7 0 0 28.26 113.52
  L 28.46 113.75
  Q 27.81 113.84 27.45 114.69
  C 10.85 154.21 9.44 196.14 23.18 236.81
  C 32.39 264.09 50.78 288.08 73.00 306.04
  L 77.88 310.22
  A 0.40 0.33 36.6 0 0 78.44 310.19
  C 78.75 309.65 74.10 306.25 73.50 305.79
  Q 34.38 271.34 21.25 220.75
  Q 21.18 220.48 21.29 219.50
  L 21.54 218.75
  C 37.30 280.12 86.75 326.10 148.35 339.36
  C 173.80 344.85 205.13 342.45 230.21 332.99
  Q 300.76 306.38 328.74 235.69
  C 330.66 230.82 332.16 224.85 333.96 219.50
  L 334.29 220.50
  Q 332.34 228.76 328.22 240.24
  Q 327.94 241.05 328.81 241.19
  A 0.74 0.61 -73.5 0 0 329.52 240.71
  Q 354.31 177.47 330.00 114.04
  A 1.35 0.85 81.0 0 0 329.35 113.30
  Q 329.03 113.18 328.75 113.25
  Q 329.16 112.70 328.89 112.08
  C 321.70 95.05 311.16 81.16 298.76 67.65
  A 0.35 0.29 34.6 0 0 298.20 67.70
  Q 298.10 67.99 298.30 68.22
  Q 315.73 88.57 326.06 112.30
  A 1.57 1.08 83.4 0 0 326.69 113.02
  Q 327.61 113.49 328.75 113.25
  Q 327.16 115.26 328.06 117.44
  Q 332.36 127.87 333.79 137.97
  C 316.63 76.61 268.21 31.33 205.75 18.50
  Q 187.23 14.69 170.70 15.91
  C 97.48 21.27 37.93 71.85 20.44 143.22
  Z
  M 97.75 34.46
  Q 81.44 42.80 66.19 55.94
  Q 65.13 56.85 66.25 57.04
  L 64.93 57.61
  Q 64.12 57.95 64.06 58.00
  Q 42.91 75.96 29.78 100.53
  Q 29.08 97.21 31.60 94.79
  A 0.78 0.54 -39.7 0 0 31.83 93.97
  C 30.43 91.70 22.90 108.77 22.37 110.03
  A 0.87 0.74 -57.0 0 0 22.48 110.89
  Q 23.37 111.86 24.79 111.50
  Q 23.94 112.37 23.45 113.43
  Q 12.39 137.63 10.52 164.06
  C 10.06 170.63 10.36 179.25 10.05 186.87
  Q 10.03 187.29 10.34 187.09
  C 10.82 186.78 11.03 176.28 11.06 174.63
  C 11.36 152.74 17.28 130.91 26.79 111.25
  Q 28.01 110.04 27.79 108.50
  Q 42.65 79.77 66.44 57.91
  A 0.70 0.41 -34.6 0 0 66.70 57.36
  Q 66.65 57.19 66.50 57.04
  Q 67.74 56.84 68.19 56.44
  Q 81.99 44.04 98.04 34.75
  Q 107.41 28.86 97.75 34.46
  Z
  M 298.2233 67.1749
  A 0.28 0.28 0.0 0 0 298.2143 66.7790
  L 283.7260 52.9337
  A 0.28 0.28 0.0 0 0 283.3302 52.9427
  L 283.1367 53.1451
  A 0.28 0.28 0.0 0 0 283.1457 53.5410
  L 297.6340 67.3863
  A 0.28 0.28 0.0 0 0 298.0298 67.3773
  L 298.2233 67.1749
  Z
  M 37.3215 83.7685
  A 1.20 0.39 135.0 0 0 38.4458 83.1958
  A 1.20 0.39 135.0 0 0 39.0185 82.0715
  A 1.20 0.39 135.0 0 0 37.8942 82.6442
  A 1.20 0.39 135.0 0 0 37.3215 83.7685
  Z
  M 35.44 86.85
  C 36.09 87.55 38.28 83.48 35.54 86.21
  A 0.53 0.40 -44.2 0 0 35.44 86.85
  Z
  M 32.26 91.77
  Q 31.38 91.91 31.23 92.74
  A 0.65 0.50 12.2 0 0 31.75 93.35
  C 32.82 93.60 33.86 90.70 34.65 89.85
  Q 35.22 89.24 34.53 89.10
  Q 32.25 88.64 32.61 91.23
  A 0.49 0.43 81.7 0 1 32.26 91.77
  Z
  M 333.21 237.25
  Q 331.56 238.18 332.35 239.25
  Q 326.09 255.34 315.65 269.20
  L 324.71 250.75
  L 325.71 248.75
  C 326.57 247.27 329.88 241.40 327.91 241.81
  A 1.05 0.75 -80.0 0 0 327.28 242.43
  L 324.72 248.95
  Q 323.79 249.46 324.25 250.71
  Q 323.68 250.73 323.52 251.05
  Q 317.67 263.04 309.83 273.90
  A 0.77 0.63 -47.7 0 0 309.79 274.75
  Q 310.42 275.53 311.75 275.04
  Q 303.56 286.21 293.81 296.06
  A 0.23 0.22 31.3 0 0 293.91 296.43
  L 294.25 296.54
  L 293.50 296.79
  Q 291.93 297.24 291.06 298.06
  Q 276.09 312.27 258.46 323.00
  Q 254.85 325.03 258.75 323.29
  Q 278.23 312.75 294.25 297.46
  Q 297.84 296.01 299.21 292.50
  Q 319.69 272.07 332.06 245.06
  Q 333.89 241.07 334.46 237.75
  L 334.50 237.54
  Q 335.31 237.39 335.48 236.95
  C 343.51 216.94 345.88 197.21 345.78 175.61
  C 345.78 175.44 345.71 175.30 345.56 175.25
  A 0.27 0.15 -84.1 0 0 345.36 175.54
  Q 344.81 207.49 333.21 237.25
  Z
  M 332.3982 250.1328
  A 0.51 0.51 0.0 0 0 332.1802 249.4453
  L 332.0559 249.3809
  A 0.51 0.51 0.0 0 0 331.3684 249.5989
  L 322.5418 266.6272
  A 0.51 0.51 0.0 0 0 322.7598 267.3147
  L 322.8841 267.3791
  A 0.51 0.51 0.0 0 0 323.5716 267.1611
  L 332.3982 250.1328
  Z
  M 320.29 269.57
  Q 319.78 270.38 320.64 269.98
  L 322.07 269.30
  A 0.71 0.68 -17.8 0 0 322.47 268.57
  Q 322.15 266.61 320.29 269.57
  Z"
/>
<path fill="#fefefe" d="
  M 191.00 10.46
  L 192.79 10.50
  Q 198.40 10.33 206.06 11.94
  Q 230.11 16.99 250.25 26.79
  L 249.75 27.04
  C 213.12 10.53 169.79 7.27 130.80 17.89
  Q 88.09 29.52 56.44 61.26
  L 55.96 60.50
  L 60.25 54.79
  L 65.79 49.25
  Q 68.46 48.46 69.71 46.00
  C 87.99 31.14 111.68 18.25 134.96 13.04
  Q 139.37 12.93 143.50 11.54
  C 159.59 8.67 174.81 8.06 191.00 10.46
  Z"
/>
<path fill="#47463e" fill-opacity="0.510" d="
  M 192.79 10.50
  L 191.00 10.46
  Q 192.05 9.14 192.79 10.50
  Z"
/>
<path fill="#786a8b" d="
  M 141.00 11.40
  L 143.50 11.54
  Q 139.37 12.93 134.96 13.04
  L 141.00 11.40
  Z"
/>
<path fill="#786a8b" d="
  M 250.25 26.79
  Q 255.94 29.92 249.75 27.04
  L 250.25 26.79
  Z"
/>
<path fill="#786a8b" d="
  M 98.04 34.75
  L 97.75 34.46
  Q 107.41 28.86 98.04 34.75
  Z"
/>
<path fill="#fefefe" d="
  M 97.75 34.46
  L 98.04 34.75
  Q 81.99 44.04 68.19 56.44
  Q 67.74 56.84 66.50 57.04
  L 66.25 57.04
  Q 65.13 56.85 66.19 55.94
  Q 81.44 42.80 97.75 34.46
  Z"
/>
<path fill="#786a8b" d="
  M 69.71 46.00
  Q 68.46 48.46 65.79 49.25
  Q 67.38 47.19 69.71 46.00
  Z"
/>
<rect fill="#bbafc7" x="-10.30" y="-0.42" transform="translate(290.68,60.16) rotate(43.7)" width="20.60" height="0.84" rx="0.28"/>
<path fill="#4b3951" d="
  M 60.25 54.79
  L 55.96 60.50
  L 55.50 60.46
  Q 55.69 59.57 54.75 59.71
  L 60.25 54.79
  Z"
/>
<path fill="#4c3a58" d="
  M 211.72 87.30
  C 236.76 94.52 254.38 114.71 252.18 141.77
  Q 251.15 154.38 246.01 168.03
  A 0.85 0.83 35.1 0 0 246.17 168.87
  C 247.88 170.86 250.18 172.73 251.22 175.01
  Q 257.04 187.66 245.82 196.90
  A 2.97 2.97 -20.6 0 0 244.73 199.30
  Q 245.25 215.34 244.62 231.93
  C 244.20 243.02 238.75 255.29 231.29 264.73
  C 211.73 289.52 178.98 295.38 150.96 281.31
  Q 149.94 280.80 148.68 278.62
  C 147.01 275.74 146.11 275.95 143.17 275.14
  Q 140.57 274.43 137.27 271.58
  C 133.20 268.07 129.43 262.77 125.80 258.48
  C 124.99 257.53 125.43 257.09 124.96 256.08
  C 115.87 236.94 117.28 218.97 117.17 198.24
  A 1.19 1.18 22.2 0 0 116.81 197.39
  C 107.91 188.80 105.83 178.78 115.68 169.64
  A 0.50 0.50 52.1 0 0 115.76 168.99
  C 105.04 153.48 101.06 135.93 103.14 117.26
  C 105.45 96.49 114.94 73.16 132.99 60.97
  Q 135.42 59.32 136.44 62.57
  C 142.00 80.20 163.72 82.27 178.97 82.46
  Q 195.65 82.66 211.72 87.30
  Z
  M 107.62 131.54
  Q 107.88 144.97 114.04 157.00
  Q 116.25 161.79 119.61 165.98
  A 1.32 0.60 57.5 0 0 120.50 166.56
  L 128.06 165.87
  A 0.80 0.37 -88.3 0 0 128.43 165.13
  Q 128.87 156.64 131.71 148.75
  Q 136.82 136.05 147.44 126.97
  C 157.27 118.57 162.69 122.31 174.25 127.76
  C 188.24 134.37 196.66 115.67 209.43 122.69
  Q 228.27 135.35 233.12 157.25
  C 233.64 159.61 233.75 162.68 234.29 165.38
  A 0.77 0.76 -3.8 0 0 235.01 166.00
  L 240.25 166.25
  A 1.89 0.63 4.3 0 0 242.00 165.81
  C 251.70 138.34 250.37 111.89 222.54 97.00
  Q 210.68 90.33 197.28 89.01
  C 173.87 85.07 145.24 91.23 133.19 67.38
  A 0.43 0.42 58.1 0 0 132.56 67.23
  C 114.24 81.19 106.60 109.64 107.62 131.54
  Z
  M 183.25 134.29
  Q 174.73 134.20 167.30 130.23
  Q 162.33 126.99 156.42 127.08
  A 1.77 1.76 28.0 0 0 155.50 127.36
  Q 137.44 139.14 133.95 160.78
  Q 133.79 162.23 133.77 163.82
  Q 133.47 190.13 133.51 215.98
  A 0.83 0.83 84.6 0 0 134.50 216.80
  C 147.36 214.32 155.87 204.82 170.04 205.82
  A 0.67 0.32 1.9 0 0 170.78 205.50
  Q 170.58 204.09 170.96 202.74
  A 1.07 0.04 -74.0 0 1 171.27 201.79
  Q 173.16 200.00 174.98 201.80
  A 1.67 0.99 -81.9 0 1 175.37 202.73
  C 176.04 208.73 181.70 211.40 185.95 206.42
  Q 186.59 205.67 187.51 201.84
  A 1.02 0.91 88.6 0 1 188.09 201.16
  C 192.11 199.60 191.27 203.48 191.86 205.44
  A 0.67 0.63 -10.5 0 0 192.54 205.88
  C 205.94 204.91 214.82 214.09 227.64 216.86
  A 0.93 0.91 7.8 0 0 228.76 216.02
  C 229.65 201.79 229.13 187.54 228.99 173.31
  Q 228.87 160.34 227.25 154.51
  Q 224.01 142.84 215.00 133.96
  Q 210.52 128.95 204.49 126.04
  A 2.47 2.46 47.1 0 0 202.50 125.96
  C 196.20 128.47 189.83 133.20 183.25 134.29
  Z
  M 127.63 171.08
  C 109.79 170.58 109.17 194.26 126.89 195.29
  A 1.53 1.52 -88.4 0 0 128.50 193.76
  L 128.50 172.01
  A 0.93 0.89 -89.4 0 0 127.63 171.08
  Z
  M 238.75 194.79
  C 251.60 192.12 252.03 175.78 239.24 171.29
  L 234.84 171.14
  A 0.61 0.57 -89.1 0 0 234.25 171.75
  L 234.25 194.25
  A 0.75 0.73 -83.0 0 0 234.80 194.97
  Q 236.88 195.49 238.75 194.79
  Z
  M 127.50 249.79
  C 134.65 267.46 152.22 279.99 170.07 283.35
  C 203.94 289.74 235.26 266.65 239.84 232.76
  Q 240.98 216.78 240.33 200.75
  A 0.63 0.54 0.7 0 0 239.74 200.23
  L 234.75 199.98
  A 0.52 0.47 88.8 0 0 234.27 200.54
  Q 234.96 211.92 232.74 223.05
  C 223.68 232.52 215.22 238.26 201.49 235.59
  A 1.18 1.12 -56.7 0 0 200.60 235.80
  L 196.21 239.00
  Q 182.83 246.83 168.75 240.29
  Q 168.42 240.02 168.02 239.93
  L 161.68 235.83
  A 1.46 0.94 47.9 0 0 160.80 235.59
  Q 141.25 238.44 130.40 222.37
  C 127.17 217.59 128.50 206.59 128.47 200.82
  A 0.54 0.51 -89.5 0 0 127.97 200.28
  L 122.40 200.18
  A 0.53 0.51 -88.9 0 0 121.88 200.70
  C 121.44 216.81 120.38 234.90 127.50 249.79
  Z
  M 138.32 224.57
  Q 153.66 236.67 170.69 226.65
  Q 176.11 223.46 178.82 216.38
  Q 174.58 210.55 167.55 210.56
  C 164.42 210.56 158.41 212.15 155.79 213.53
  Q 146.53 218.42 136.54 221.70
  A 0.38 0.34 -28.6 0 0 136.34 222.27
  L 138.32 224.57
  Z
  M 183.92 216.58
  C 190.20 233.01 212.44 235.85 224.25 224.04
  Q 225.62 223.46 226.23 222.15
  A 0.39 0.37 16.7 0 0 225.92 221.62
  C 212.60 219.56 199.48 204.00 184.17 214.53
  A 0.91 0.82 72.0 0 0 183.82 215.32
  L 183.92 216.58
  Z
  M 184.38 227.36
  L 181.86 224.55
  A 0.54 0.51 42.6 0 0 181.05 224.56
  L 180.20 225.70
  A 1.71 0.60 -11.4 0 1 179.32 226.22
  C 174.75 227.79 183.47 228.30 184.04 228.24
  Q 185.07 228.12 184.38 227.36
  Z
  M 174.46 237.25
  Q 184.55 240.29 193.32 234.70
  A 0.44 0.42 -36.9 0 0 193.43 234.05
  C 191.74 232.13 189.89 231.77 187.30 232.58
  Q 182.67 234.02 177.75 233.21
  L 173.25 231.90
  A 1.25 0.26 18.9 0 0 172.26 231.78
  L 168.44 233.68
  A 0.54 0.35 45.4 0 0 168.59 234.43
  Q 171.34 236.49 174.46 237.25
  Z"
/>
<path fill="#d2a47c" d="
  M 197.28 89.01
  Q 179.55 91.00 161.76 92.18
  Q 147.78 93.10 136.41 86.55
  A 2.21 2.21 41.4 0 0 133.99 86.70
  C 121.79 95.80 115.42 106.10 111.35 120.45
  Q 109.76 126.08 107.62 131.54
  C 106.60 109.64 114.24 81.19 132.56 67.23
  A 0.43 0.42 58.1 0 1 133.19 67.38
  C 145.24 91.23 173.87 85.07 197.28 89.01
  Z"
/>
<path fill="#c78d5a" d="
  M 197.28 89.01
  Q 210.68 90.33 222.54 97.00
  L 221.90 98.73
  A 1.22 0.77 48.4 0 0 222.05 99.64
  C 226.64 107.64 228.32 114.56 219.95 119.69
  Q 215.18 122.61 209.43 122.69
  C 196.66 115.67 188.24 134.37 174.25 127.76
  C 162.69 122.31 157.27 118.57 147.44 126.97
  Q 136.82 136.05 131.71 148.75
  Q 130.51 148.05 129.26 148.41
  A 0.95 0.78 -87.4 0 0 128.67 149.06
  C 127.01 155.33 119.55 156.64 114.04 157.00
  Q 107.88 144.97 107.62 131.54
  Q 109.76 126.08 111.35 120.45
  C 115.42 106.10 121.79 95.80 133.99 86.70
  A 2.21 2.21 41.4 0 1 136.41 86.55
  Q 147.78 93.10 161.76 92.18
  Q 179.55 91.00 197.28 89.01
  Z
  M 115.39 128.21
  C 109.33 123.55 114.42 144.27 115.16 146.22
  C 115.67 147.57 116.69 148.52 118.03 147.35
  A 0.85 0.81 62.0 0 0 118.27 146.49
  Q 115.81 137.93 115.77 128.99
  A 0.99 0.96 -71.9 0 0 115.39 128.21
  Z
  M 120.9083 151.5774
  A 1.73 1.48 12.6 0 0 119.5429 149.7556
  A 1.73 1.48 12.6 0 0 117.5317 150.8226
  A 1.73 1.48 12.6 0 0 118.8971 152.6444
  A 1.73 1.48 12.6 0 0 120.9083 151.5774
  Z"
/>
<path fill="#bbafc7" d="
  M 28.54 115.00
  L 28.46 113.75
  L 28.26 113.52
  A 0.49 0.49 37.7 0 1 28.19 113.00
  C 29.87 109.36 40.72 86.66 43.07 87.12
  A 0.38 0.35 -66.8 0 1 43.27 87.69
  Q 34.57 100.63 28.54 115.00
  Z"
/>
<path fill="#786a8b" d="
  M 32.61 91.23
  Q 32.25 88.64 34.53 89.10
  Q 35.22 89.24 34.65 89.85
  C 33.86 90.70 32.82 93.60 31.75 93.35
  A 0.65 0.50 12.2 0 1 31.23 92.74
  Q 31.38 91.91 32.26 91.77
  A 0.49 0.43 81.7 0 0 32.61 91.23
  Z"
/>
<path fill="#786a8b" d="
  M 29.78 100.53
  Q 26.60 105.45 25.25 111.21
  L 24.79 111.50
  Q 23.37 111.86 22.48 110.89
  A 0.87 0.74 -57.0 0 1 22.37 110.03
  C 22.90 108.77 30.43 91.70 31.83 93.97
  A 0.78 0.54 -39.7 0 1 31.60 94.79
  Q 29.08 97.21 29.78 100.53
  Z"
/>
<path fill="#b88354" d="
  M 222.54 97.00
  C 250.37 111.89 251.70 138.34 242.00 165.81
  A 1.89 0.63 4.3 0 1 240.25 166.25
  L 235.01 166.00
  A 0.77 0.76 -3.8 0 1 234.29 165.38
  C 233.75 162.68 233.64 159.61 233.12 157.25
  Q 228.27 135.35 209.43 122.69
  Q 215.18 122.61 219.95 119.69
  C 228.32 114.56 226.64 107.64 222.05 99.64
  A 1.22 0.77 48.4 0 1 221.90 98.73
  L 222.54 97.00
  Z
  M 237.4461 115.2995
  A 1.35 1.35 0.0 0 0 235.6498 114.6527
  L 235.1612 114.8827
  A 1.35 1.35 0.0 0 0 234.5145 116.6790
  L 238.5339 125.2205
  A 1.35 1.35 0.0 0 0 240.3302 125.8673
  L 240.8188 125.6373
  A 1.35 1.35 0.0 0 0 241.4655 123.8410
  L 237.4461 115.2995
  Z"
/>
<path fill="#786a8b" d="
  M 27.79 108.50
  Q 28.01 110.04 26.79 111.25
  L 26.50 110.71
  L 27.79 108.50
  Z"
/>
<path fill="#fefefe" d="
  M 26.50 110.71
  L 26.79 111.25
  C 17.28 130.91 11.36 152.74 11.06 174.63
  C 11.03 176.28 10.82 186.78 10.34 187.09
  Q 10.03 187.29 10.05 186.87
  C 10.36 179.25 10.06 170.63 10.52 164.06
  Q 12.39 137.63 23.45 113.43
  Q 23.94 112.37 24.79 111.50
  L 25.25 111.21
  L 26.50 110.71
  Z"
/>
<path fill="#fefefe" d="
  M 328.75 113.25
  Q 329.03 113.18 329.35 113.30
  A 1.35 0.85 81.0 0 1 330.00 114.04
  Q 354.31 177.47 329.52 240.71
  A 0.74 0.61 -73.5 0 1 328.81 241.19
  Q 327.94 241.05 328.22 240.24
  Q 332.34 228.76 334.29 220.50
  Q 335.88 215.88 335.96 211.00
  Q 337.26 204.39 337.99 197.71
  C 339.07 187.74 341.17 177.63 339.99 166.76
  Q 339.45 161.77 333.79 137.97
  Q 332.36 127.87 328.06 117.44
  Q 327.16 115.26 328.75 113.25
  Z"
/>
<path fill="#fefefe" d="
  M 28.46 113.75
  L 28.54 115.00
  Q 22.59 128.58 20.44 143.22
  C 15.73 165.28 15.56 187.30 19.29 209.50
  Q 19.15 214.81 19.83 211.82
  L 20.54 215.00
  Q 19.99 217.40 21.29 219.50
  Q 21.18 220.48 21.25 220.75
  Q 34.38 271.34 73.50 305.79
  L 73.00 306.04
  C 50.78 288.08 32.39 264.09 23.18 236.81
  C 9.44 196.14 10.85 154.21 27.45 114.69
  Q 27.81 113.84 28.46 113.75
  Z"
/>
<rect fill="#4c3a58" x="-1.62" y="-6.07" transform="translate(237.99,120.26) rotate(-25.2)" width="3.24" height="12.14" rx="1.35"/>
<path fill="#d2b38c" d="
  M 215.00 133.96
  C 206.65 132.41 200.50 133.65 191.08 135.33
  Q 186.45 136.15 183.25 134.29
  C 189.83 133.20 196.20 128.47 202.50 125.96
  A 2.47 2.46 47.1 0 1 204.49 126.04
  Q 210.52 128.95 215.00 133.96
  Z"
/>
<path fill="#d8ba8f" d="
  M 167.30 130.23
  C 155.71 135.07 143.83 143.61 137.71 154.74
  Q 136.00 157.86 133.95 160.78
  Q 137.44 139.14 155.50 127.36
  A 1.77 1.76 28.0 0 1 156.42 127.08
  Q 162.33 126.99 167.30 130.23
  Z"
/>
<path fill="#523a4b" d="
  M 115.16 146.22
  C 114.42 144.27 109.33 123.55 115.39 128.21
  A 0.99 0.96 -71.9 0 1 115.77 128.99
  Q 115.81 137.93 118.27 146.49
  A 0.85 0.81 62.0 0 1 118.03 147.35
  C 116.69 148.52 115.67 147.57 115.16 146.22
  Z"
/>
<path fill="#ffdaa7" d="
  M 167.30 130.23
  Q 174.73 134.20 183.25 134.29
  Q 186.45 136.15 191.08 135.33
  C 200.50 133.65 206.65 132.41 215.00 133.96
  Q 224.01 142.84 227.25 154.51
  Q 228.87 160.34 228.99 173.31
  C 229.13 187.54 229.65 201.79 228.76 216.02
  A 0.93 0.91 7.8 0 1 227.64 216.86
  C 214.82 214.09 205.94 204.91 192.54 205.88
  A 0.67 0.63 -10.5 0 1 191.86 205.44
  C 191.27 203.48 192.11 199.60 188.09 201.16
  A 1.02 0.91 88.6 0 0 187.51 201.84
  Q 186.59 205.67 185.95 206.42
  C 181.70 211.40 176.04 208.73 175.37 202.73
  A 1.67 0.99 -81.9 0 0 174.98 201.80
  Q 173.16 200.00 171.27 201.79
  A 1.07 0.04 -74.0 0 0 170.96 202.74
  Q 170.58 204.09 170.78 205.50
  A 0.67 0.32 1.9 0 1 170.04 205.82
  C 155.87 204.82 147.36 214.32 134.50 216.80
  A 0.83 0.83 84.6 0 1 133.51 215.98
  Q 133.47 190.13 133.77 163.82
  Q 133.79 162.23 133.95 160.78
  Q 136.00 157.86 137.71 154.74
  C 143.83 143.61 155.71 135.07 167.30 130.23
  Z
  M 170.3356 164.8193
  A 8.44 8.44 0.0 0 0 160.4170 158.1794
  L 146.9779 160.8404
  A 8.44 8.44 0.0 0 0 140.3380 170.7590
  L 140.5244 171.7007
  A 8.44 8.44 0.0 0 0 150.4430 178.3406
  L 163.8821 175.6796
  A 8.44 8.44 0.0 0 0 170.5220 165.7610
  L 170.3356 164.8193
  Z
  M 222.5247 170.6718
  A 8.41 8.41 0.0 0 0 215.8568 160.8233
  L 202.3254 158.2175
  A 8.41 8.41 0.0 0 0 192.4768 164.8855
  L 192.2953 165.8282
  A 8.41 8.41 0.0 0 0 198.9632 175.6767
  L 212.4946 178.2825
  A 8.41 8.41 0.0 0 0 222.3432 171.6145
  L 222.5247 170.6718
  Z
  M 200.50 197.44
  Q 204.88 203.39 212.50 204.44
  Q 216.59 205.01 219.23 202.47
  A 1.27 1.22 69.0 0 0 219.59 201.61
  Q 219.62 198.51 217.44 196.93
  C 219.25 180.16 195.26 181.55 196.77 195.97
  A 1.19 1.13 -75.1 0 0 197.21 196.78
  Q 198.76 197.99 200.50 197.44
  Z
  M 145.03 196.91
  C 141.56 204.87 150.47 205.27 155.19 204.28
  A 1.40 1.26 -75.2 0 0 155.97 203.77
  C 158.07 201.00 164.48 200.45 164.00 197.54
  C 170.43 194.67 159.60 178.91 148.83 186.76
  Q 144.30 190.05 145.03 196.91
  Z"
/>
<path fill="#b88354" d="
  M 131.71 148.75
  Q 128.87 156.64 128.43 165.13
  A 0.80 0.37 -88.3 0 1 128.06 165.87
  L 120.50 166.56
  A 1.32 0.60 57.5 0 1 119.61 165.98
  Q 116.25 161.79 114.04 157.00
  C 119.55 156.64 127.01 155.33 128.67 149.06
  A 0.95 0.78 -87.4 0 1 129.26 148.41
  Q 130.51 148.05 131.71 148.75
  Z"
/>
<ellipse fill="#523a4b" cx="0.00" cy="0.00" transform="translate(119.22,151.20) rotate(12.6)" rx="1.73" ry="1.48"/>
<path fill="#4c3a58" d="
  M 170.5220 165.7610
  A 8.44 8.44 0.0 0 1 163.8821 175.6796
  L 150.4430 178.3406
  A 8.44 8.44 0.0 0 1 140.5244 171.7007
  L 140.3380 170.7590
  A 8.44 8.44 0.0 0 1 146.9779 160.8404
  L 160.4170 158.1794
  A 8.44 8.44 0.0 0 1 170.3356 164.8193
  L 170.5220 165.7610
  Z
  M 145.87 171.84
  Q 147.59 173.87 149.25 173.52
  Q 155.75 172.17 162.24 171.00
  Q 165.66 170.39 165.74 166.74
  Q 164.91 162.37 160.25 163.28
  C 155.94 164.12 141.59 164.88 145.87 171.84
  Z"
/>
<path fill="#4c3a58" d="
  M 222.3432 171.6145
  A 8.41 8.41 0.0 0 1 212.4946 178.2825
  L 198.9632 175.6767
  A 8.41 8.41 0.0 0 1 192.2953 165.8282
  L 192.4768 164.8855
  A 8.41 8.41 0.0 0 1 202.3254 158.2175
  L 215.8568 160.8233
  A 8.41 8.41 0.0 0 1 222.5247 170.6718
  L 222.3432 171.6145
  Z
  M 200.25 171.04
  Q 206.22 172.11 212.20 173.18
  C 215.25 173.72 217.70 172.85 217.68 169.44
  C 216.98 164.49 206.96 164.06 201.74 163.31
  C 196.41 162.54 195.54 169.24 200.25 171.04
  Z"
/>
<path fill="#d2a47c" d="
  M 165.74 166.74
  Q 155.48 168.20 145.87 171.84
  C 141.59 164.88 155.94 164.12 160.25 163.28
  Q 164.91 162.37 165.74 166.74
  Z"
/>
<path fill="#d2b38c" d="
  M 217.68 169.44
  L 204.45 166.73
  Q 203.00 166.44 201.97 168.17
  L 200.25 171.04
  C 195.54 169.24 196.41 162.54 201.74 163.31
  C 206.96 164.06 216.98 164.49 217.68 169.44
  Z"
/>
<path fill="#c78d5a" d="
  M 165.74 166.74
  Q 165.66 170.39 162.24 171.00
  Q 155.75 172.17 149.25 173.52
  Q 147.59 173.87 145.87 171.84
  Q 155.48 168.20 165.74 166.74
  Z"
/>
<path fill="#c78d5a" d="
  M 217.68 169.44
  C 217.70 172.85 215.25 173.72 212.20 173.18
  Q 206.22 172.11 200.25 171.04
  L 201.97 168.17
  Q 203.00 166.44 204.45 166.73
  L 217.68 169.44
  Z"
/>
<path fill="#faddba" d="
  M 126.89 195.29
  C 109.17 194.26 109.79 170.58 127.63 171.08
  A 0.93 0.89 -89.4 0 1 128.50 172.01
  L 128.50 193.76
  A 1.53 1.52 -88.4 0 1 126.89 195.29
  Z
  M 122.92 186.08
  L 123.39 188.07
  A 1.15 0.87 12.0 0 0 123.95 188.72
  C 127.67 190.63 126.34 177.88 121.52 177.00
  Q 118.24 176.39 118.26 179.68
  A 0.64 0.63 -83.8 0 0 118.75 180.30
  C 119.55 180.48 122.39 180.37 121.83 181.94
  A 1.42 0.57 -18.6 0 1 121.07 182.59
  Q 117.34 184.37 118.42 188.57
  A 1.07 1.02 -85.0 0 0 118.99 189.28
  C 122.84 191.12 120.46 186.10 122.19 185.59
  A 0.64 0.57 75.6 0 1 122.92 186.08
  Z"
/>
<path fill="#d8ba8f" d="
  M 239.24 171.29
  Q 237.28 174.81 238.90 178.59
  Q 235.97 182.65 236.62 187.82
  A 1.27 0.95 -81.6 0 0 237.06 188.64
  Q 237.68 189.08 238.50 189.04
  L 238.75 194.79
  Q 236.88 195.49 234.80 194.97
  A 0.75 0.73 -83.0 0 1 234.25 194.25
  L 234.25 171.75
  A 0.61 0.57 -89.1 0 1 234.84 171.14
  L 239.24 171.29
  Z"
/>
<path fill="#f5d8ae" d="
  M 239.24 171.29
  C 252.03 175.78 251.60 192.12 238.75 194.79
  L 238.50 189.04
  Q 239.67 188.32 239.72 187.00
  A 1.36 0.41 88.1 0 1 239.99 185.98
  Q 240.66 185.40 241.19 186.07
  A 1.00 0.07 -89.7 0 1 241.25 187.00
  L 241.25 188.75
  A 1.02 0.54 14.0 0 0 241.99 189.41
  C 246.03 190.69 244.99 183.56 240.88 182.22
  A 0.50 0.39 26.7 0 1 240.56 181.55
  Q 241.61 180.36 243.26 180.28
  A 1.26 1.08 -67.3 0 0 244.08 179.87
  C 245.96 177.77 241.42 175.70 238.90 178.59
  Q 237.28 174.81 239.24 171.29
  Z"
/>
<path fill="#fefefe" d="
  M 334.50 237.54
  L 333.21 237.25
  Q 344.81 207.49 345.36 175.54
  A 0.27 0.15 -84.1 0 1 345.56 175.25
  C 345.71 175.30 345.78 175.44 345.78 175.61
  C 345.88 197.21 343.51 216.94 335.48 236.95
  Q 335.31 237.39 334.50 237.54
  Z"
/>
<path fill="#4b3951" d="
  M 122.19 185.59
  C 120.46 186.10 122.84 191.12 118.99 189.28
  A 1.07 1.02 -85.0 0 1 118.42 188.57
  Q 117.34 184.37 121.07 182.59
  A 1.42 0.57 -18.6 0 0 121.83 181.94
  C 122.39 180.37 119.55 180.48 118.75 180.30
  A 0.64 0.63 -83.8 0 1 118.26 179.68
  Q 118.24 176.39 121.52 177.00
  C 126.34 177.88 127.67 190.63 123.95 188.72
  A 1.15 0.87 12.0 0 1 123.39 188.07
  L 122.92 186.08
  A 0.64 0.57 75.6 0 0 122.19 185.59
  Z"
/>
<path fill="#4b3951" d="
  M 238.50 189.04
  Q 237.68 189.08 237.06 188.64
  A 1.27 0.95 -81.6 0 1 236.62 187.82
  Q 235.97 182.65 238.90 178.59
  C 241.42 175.70 245.96 177.77 244.08 179.87
  A 1.26 1.08 -67.3 0 1 243.26 180.28
  Q 241.61 180.36 240.56 181.55
  A 0.50 0.39 26.7 0 0 240.88 182.22
  C 244.99 183.56 246.03 190.69 241.99 189.41
  A 1.02 0.54 14.0 0 1 241.25 188.75
  L 241.25 187.00
  A 1.00 0.07 -89.7 0 0 241.19 186.07
  Q 240.66 185.40 239.99 185.98
  A 1.36 0.41 88.1 0 0 239.72 187.00
  Q 239.67 188.32 238.50 189.04
  Z"
/>
<path fill="#4b3951" d="
  M 217.44 196.93
  Q 215.62 197.88 214.08 197.34
  A 1.07 0.90 89.0 0 1 213.48 196.65
  C 212.88 194.60 212.48 192.34 210.79 190.95
  C 204.82 186.02 202.10 193.12 200.50 197.44
  Q 198.76 197.99 197.21 196.78
  A 1.19 1.13 -75.1 0 1 196.77 195.97
  C 195.26 181.55 219.25 180.16 217.44 196.93
  Z"
/>
<path fill="#4c3a58" d="
  M 164.00 197.54
  Q 162.94 197.61 161.96 197.19
  A 1.20 0.97 88.4 0 1 161.36 196.49
  C 160.82 194.82 160.59 193.03 159.53 191.72
  C 155.82 187.09 150.29 190.10 149.60 195.32
  Q 149.10 199.15 145.03 196.91
  Q 144.30 190.05 148.83 186.76
  C 159.60 178.91 170.43 194.67 164.00 197.54
  Z"
/>
<path fill="#fee4c0" d="
  M 164.00 197.54
  C 164.48 200.45 158.07 201.00 155.97 203.77
  A 1.40 1.26 -75.2 0 1 155.19 204.28
  C 150.47 205.27 141.56 204.87 145.03 196.91
  Q 149.10 199.15 149.60 195.32
  C 150.29 190.10 155.82 187.09 159.53 191.72
  C 160.59 193.03 160.82 194.82 161.36 196.49
  A 1.20 0.97 88.4 0 0 161.96 197.19
  Q 162.94 197.61 164.00 197.54
  Z"
/>
<path fill="#fee4c0" d="
  M 217.44 196.93
  Q 219.62 198.51 219.59 201.61
  A 1.27 1.22 69.0 0 1 219.23 202.47
  Q 216.59 205.01 212.50 204.44
  Q 204.88 203.39 200.50 197.44
  C 202.10 193.12 204.82 186.02 210.79 190.95
  C 212.48 192.34 212.88 194.60 213.48 196.65
  A 1.07 0.90 89.0 0 0 214.08 197.34
  Q 215.62 197.88 217.44 196.93
  Z"
/>
<path fill="#c78d5a" d="
  M 168.02 239.93
  C 154.30 240.26 149.02 240.12 139.49 233.98
  A 1.27 1.11 -65.5 0 0 137.77 234.76
  L 136.96 237.25
  C 133.23 236.56 134.77 244.52 134.89 245.61
  A 1.07 1.06 -77.6 0 0 135.38 246.39
  Q 137.71 247.86 137.79 244.25
  Q 137.83 256.89 149.11 260.55
  Q 149.79 262.68 149.49 266.01
  A 1.70 1.33 -62.9 0 0 149.67 266.94
  Q 150.88 269.09 152.03 267.33
  C 152.89 266.03 152.50 262.39 152.54 260.75
  Q 153.60 262.65 155.75 261.46
  Q 158.21 265.52 159.14 260.82
  Q 171.08 255.93 168.24 242.75
  Q 168.10 242.10 168.75 240.29
  Q 182.83 246.83 196.21 239.00
  C 203.59 240.00 208.50 241.38 217.07 239.62
  Q 222.50 238.50 228.83 233.04
  L 229.02 239.45
  A 0.84 0.55 -88.5 0 0 229.50 240.23
  Q 230.67 240.40 231.76 240.03
  A 1.10 0.25 -80.1 0 0 232.14 239.13
  Q 233.02 234.69 231.21 230.75
  L 232.74 223.05
  Q 234.96 211.92 234.27 200.54
  A 0.52 0.47 88.8 0 1 234.75 199.98
  L 239.74 200.23
  A 0.63 0.54 0.7 0 1 240.33 200.75
  Q 240.98 216.78 239.84 232.76
  Q 235.98 240.24 232.17 247.63
  C 227.63 256.46 219.13 263.76 210.51 268.62
  C 199.28 274.94 188.21 277.48 175.29 276.75
  L 175.20 270.81
  A 0.81 0.78 -79.3 0 0 174.73 270.09
  Q 171.36 268.62 171.96 273.50
  C 171.77 280.01 157.77 273.10 155.01 272.15
  Q 151.67 271.00 148.71 269.05
  C 141.36 264.22 133.90 258.08 129.22 250.55
  Q 128.70 249.71 127.50 249.79
  C 120.38 234.90 121.44 216.81 121.88 200.70
  A 0.53 0.51 -88.9 0 1 122.40 200.18
  L 127.97 200.28
  A 0.54 0.51 -89.5 0 1 128.47 200.82
  C 128.50 206.59 127.17 217.59 130.40 222.37
  Q 141.25 238.44 160.80 235.59
  A 1.46 0.94 47.9 0 1 161.68 235.83
  L 168.02 239.93
  Z
  M 191.50 249.37
  A 0.85 0.85 0.0 0 0 190.65 248.52
  L 189.35 248.52
  A 0.85 0.85 0.0 0 0 188.50 249.37
  L 188.50 257.17
  A 0.85 0.85 0.0 0 0 189.35 258.02
  L 190.65 258.02
  A 0.85 0.85 0.0 0 0 191.50 257.17
  L 191.50 249.37
  Z
  M 222.4468 249.8924
  A 1.36 1.36 0.0 0 0 221.1059 248.5135
  L 220.6659 248.5074
  A 1.36 1.36 0.0 0 0 219.2871 249.8483
  L 219.1932 256.5676
  A 1.36 1.36 0.0 0 0 220.5341 257.9465
  L 220.9741 257.9526
  A 1.36 1.36 0.0 0 0 222.3529 256.6117
  L 222.4468 249.8924
  Z
  M 202.8125 261.1840
  A 0.96 0.96 0.0 0 0 201.8425 260.2341
  L 200.6626 260.2464
  A 0.96 0.96 0.0 0 0 199.7127 261.2164
  L 199.7875 268.3560
  A 0.96 0.96 0.0 0 0 200.7575 269.3059
  L 201.9374 269.2936
  A 0.96 0.96 0.0 0 0 202.8873 268.3236
  L 202.8125 261.1840
  Z"
/>
<path fill="#bbafc7" d="
  M 19.29 209.50
  L 19.83 211.82
  Q 19.15 214.81 19.29 209.50
  Z"
/>
<path fill="#cfa075" d="
  M 178.82 216.38
  Q 177.28 217.16 176.89 216.47
  A 0.36 0.31 56.4 0 0 176.39 216.33
  C 171.94 220.28 165.84 221.87 159.69 223.39
  C 154.76 224.61 148.92 223.57 143.73 223.80
  Q 143.29 223.82 142.80 223.57
  Q 140.56 222.44 138.32 224.57
  L 136.34 222.27
  A 0.38 0.34 -28.6 0 1 136.54 221.70
  Q 146.53 218.42 155.79 213.53
  C 158.41 212.15 164.42 210.56 167.55 210.56
  Q 174.58 210.55 178.82 216.38
  Z"
/>
<path fill="#d2a47c" d="
  M 224.25 224.04
  L 221.44 222.63
  A 1.96 1.15 43.8 0 0 220.52 222.41
  C 213.51 222.95 205.90 221.02 198.45 218.00
  Q 192.63 215.64 183.92 216.58
  L 183.82 215.32
  A 0.91 0.82 72.0 0 1 184.17 214.53
  C 199.48 204.00 212.60 219.56 225.92 221.62
  A 0.39 0.37 16.7 0 1 226.23 222.15
  Q 225.62 223.46 224.25 224.04
  Z"
/>
<path fill="#786a8b" d="
  M 335.96 211.00
  Q 335.88 215.88 334.29 220.50
  L 333.96 219.50
  L 335.96 211.00
  Z"
/>
<path fill="#786a8b" d="
  M 20.54 215.00
  L 21.54 218.75
  L 21.29 219.50
  Q 19.99 217.40 20.54 215.00
  Z"
/>
<path fill="#c78d5a" d="
  M 178.82 216.38
  Q 176.11 223.46 170.69 226.65
  Q 153.66 236.67 138.32 224.57
  Q 140.56 222.44 142.80 223.57
  Q 143.29 223.82 143.73 223.80
  C 148.92 223.57 154.76 224.61 159.69 223.39
  C 165.84 221.87 171.94 220.28 176.39 216.33
  A 0.36 0.31 56.4 0 1 176.89 216.47
  Q 177.28 217.16 178.82 216.38
  Z"
/>
<path fill="#c78d5a" d="
  M 224.25 224.04
  C 212.44 235.85 190.20 233.01 183.92 216.58
  Q 192.63 215.64 198.45 218.00
  C 205.90 221.02 213.51 222.95 220.52 222.41
  A 1.96 1.15 43.8 0 1 221.44 222.63
  L 224.25 224.04
  Z"
/>
<path fill="#9f7048" d="
  M 232.74 223.05
  L 231.21 230.75
  Q 228.56 230.12 228.83 233.04
  Q 222.50 238.50 217.07 239.62
  C 208.50 241.38 203.59 240.00 196.21 239.00
  L 200.60 235.80
  A 1.18 1.12 -56.7 0 1 201.49 235.59
  C 215.22 238.26 223.68 232.52 232.74 223.05
  Z"
/>
<path fill="#884c50" d="
  M 184.38 227.36
  Q 185.07 228.12 184.04 228.24
  C 183.47 228.30 174.75 227.79 179.32 226.22
  A 1.71 0.60 -11.4 0 0 180.20 225.70
  L 181.05 224.56
  A 0.54 0.51 42.6 0 1 181.86 224.55
  L 184.38 227.36
  Z"
/>
<path fill="#523a4b" d="
  M 231.21 230.75
  Q 233.02 234.69 232.14 239.13
  A 1.10 0.25 -80.1 0 1 231.76 240.03
  Q 230.67 240.40 229.50 240.23
  A 0.84 0.55 -88.5 0 1 229.02 239.45
  L 228.83 233.04
  Q 228.56 230.12 231.21 230.75
  Z"
/>
<path fill="#b6585e" d="
  M 177.75 233.21
  Q 175.16 234.53 174.46 237.25
  Q 171.34 236.49 168.59 234.43
  A 0.54 0.35 45.4 0 1 168.44 233.68
  L 172.26 231.78
  A 1.25 0.26 18.9 0 1 173.25 231.90
  L 177.75 233.21
  Z"
/>
<path fill="#e8716c" d="
  M 174.46 237.25
  Q 175.16 234.53 177.75 233.21
  Q 182.67 234.02 187.30 232.58
  C 189.89 231.77 191.74 232.13 193.43 234.05
  A 0.44 0.42 -36.9 0 1 193.32 234.70
  Q 184.55 240.29 174.46 237.25
  Z"
/>
<path fill="#ae7c51" d="
  M 239.84 232.76
  C 235.26 266.65 203.94 289.74 170.07 283.35
  C 152.22 279.99 134.65 267.46 127.50 249.79
  Q 128.70 249.71 129.22 250.55
  C 133.90 258.08 141.36 264.22 148.71 269.05
  Q 151.67 271.00 155.01 272.15
  C 157.77 273.10 171.77 280.01 171.96 273.50
  L 172.23 278.19
  A 1.04 0.91 15.7 0 0 172.73 278.96
  Q 175.56 280.70 175.29 276.75
  C 188.21 277.48 199.28 274.94 210.51 268.62
  C 219.13 263.76 227.63 256.46 232.17 247.63
  Q 235.98 240.24 239.84 232.76
  Z"
/>
<path fill="#cfa075" d="
  M 168.02 239.93
  Q 168.42 240.02 168.75 240.29
  Q 168.10 242.10 168.24 242.75
  Q 171.08 255.93 159.14 260.82
  L 158.96 254.54
  A 0.91 0.78 -78.5 0 0 158.54 253.79
  C 154.56 251.68 155.76 259.75 155.75 261.46
  Q 153.60 262.65 152.54 260.75
  Q 151.89 255.30 149.11 260.55
  Q 137.83 256.89 137.79 244.25
  Q 138.60 240.52 136.96 237.25
  L 137.77 234.76
  A 1.27 1.11 -65.5 0 1 139.49 233.98
  C 149.02 240.12 154.30 240.26 168.02 239.93
  Z"
/>
<path fill="#523a4b" d="
  M 136.96 237.25
  Q 138.60 240.52 137.79 244.25
  Q 137.71 247.86 135.38 246.39
  A 1.07 1.06 -77.6 0 1 134.89 245.61
  C 134.77 244.52 133.23 236.56 136.96 237.25
  Z"
/>
<path fill="#786a8b" d="
  M 333.21 237.25
  L 334.50 237.54
  L 334.46 237.75
  L 332.35 239.25
  Q 331.56 238.18 333.21 237.25
  Z"
/>
<path fill="#fee4c0" d="
  M 325.71 248.75
  L 324.72 248.95
  L 327.28 242.43
  A 1.05 0.75 -80.0 0 1 327.91 241.81
  C 329.88 241.40 326.57 247.27 325.71 248.75
  Z"
/>
<rect fill="#4c3a58" x="188.50" y="248.52" width="3.00" height="9.50" rx="0.85"/>
<rect fill="#523a4b" x="-1.58" y="-4.72" transform="translate(220.82,253.23) rotate(0.8)" width="3.16" height="9.44" rx="1.36"/>
<path fill="#bbafc7" d="
  M 325.71 248.75
  L 324.71 250.75
  L 324.25 250.71
  Q 323.79 249.46 324.72 248.95
  L 325.71 248.75
  Z"
/>
<rect fill="#786a8b" x="-0.58" y="-10.10" transform="translate(327.47,258.38) rotate(27.4)" width="1.16" height="20.20" rx="0.51"/>
<path fill="#786a8b" d="
  M 324.25 250.71
  L 324.71 250.75
  L 315.65 269.20
  Q 314.20 272.40 311.75 275.04
  Q 310.42 275.53 309.79 274.75
  A 0.77 0.63 -47.7 0 1 309.83 273.90
  Q 317.67 263.04 323.52 251.05
  Q 323.68 250.73 324.25 250.71
  Z"
/>
<path fill="#523a4b" d="
  M 159.14 260.82
  Q 158.21 265.52 155.75 261.46
  C 155.76 259.75 154.56 251.68 158.54 253.79
  A 0.91 0.78 -78.5 0 1 158.96 254.54
  L 159.14 260.82
  Z"
/>
<path fill="#523a4b" d="
  M 152.54 260.75
  C 152.50 262.39 152.89 266.03 152.03 267.33
  Q 150.88 269.09 149.67 266.94
  A 1.70 1.33 -62.9 0 1 149.49 266.01
  Q 149.79 262.68 149.11 260.55
  Q 151.89 255.30 152.54 260.75
  Z"
/>
<rect fill="#523a4b" x="-1.55" y="-4.53" transform="translate(201.30,264.77) rotate(-0.6)" width="3.10" height="9.06" rx="0.96"/>
<path fill="#786a8b" d="
  M 320.29 269.57
  Q 322.15 266.61 322.47 268.57
  A 0.71 0.68 -17.8 0 1 322.07 269.30
  L 320.64 269.98
  Q 319.78 270.38 320.29 269.57
  Z"
/>
<path fill="#523a4b" d="
  M 175.29 276.75
  Q 175.56 280.70 172.73 278.96
  A 1.04 0.91 15.7 0 1 172.23 278.19
  L 171.96 273.50
  Q 171.36 268.62 174.73 270.09
  A 0.81 0.78 -79.3 0 1 175.20 270.81
  L 175.29 276.75
  Z"
/>
<path fill="#47463e" fill-opacity="0.510" d="
  M 318.16 274.91
  L 317.79 274.75
  Q 318.02 273.22 319.23 272.53
  Q 319.79 272.21 319.46 272.75
  L 318.16 274.91
  Z"
/>
<path fill="#786a8b" d="
  M 299.21 292.50
  Q 297.84 296.01 294.25 297.46
  L 293.50 296.79
  L 294.25 296.54
  L 299.21 292.50
  Z"
/>
<path fill="#fefefe" d="
  M 293.50 296.79
  L 294.25 297.46
  Q 278.23 312.75 258.75 323.29
  L 258.46 323.00
  Q 276.09 312.27 291.06 298.06
  Q 291.93 297.24 293.50 296.79
  Z"
/>
<path fill="#786a8b" d="
  M 73.50 305.79
  C 74.10 306.25 78.75 309.65 78.44 310.19
  A 0.40 0.33 36.6 0 1 77.88 310.22
  L 73.00 306.04
  L 73.50 305.79
  Z"
/>
<path fill="#fefefe" d="
  M 288.72 306.54
  L 288.75 308.21
  L 287.60 310.56
  C 265.40 328.34 242.45 340.83 214.46 346.50
  Q 210.30 346.46 206.25 347.46
  C 175.54 351.42 146.26 347.73 117.45 336.55
  C 116.46 336.16 117.24 335.91 117.66 336.07
  C 141.51 344.95 167.03 347.65 192.02 345.81
  Q 246.67 341.78 288.72 306.54
  Z"
/>
<path fill="#786a8b" d="
  M 258.46 323.00
  L 258.75 323.29
  Q 254.85 325.03 258.46 323.00
  Z"
/>
<path fill="#523a4b" d="
  M 214.46 346.50
  L 209.50 347.54
  L 206.25 347.46
  Q 210.30 346.46 214.46 346.50
  Z"
/>
</svg>
